/* XPM */
static char *result[] = {
/* columns rows colors chars-per-pixel */
"60 60 216 2 ",
"   c #7B345E",
".  c #6D2754",
"X  c #5A156E",
"o  c #530F74",
"O  c #551474",
"+  c #561976",
"@  c #56147A",
"#  c #59167D",
"$  c #561E79",
"%  c #5B1C7B",
"&  c #5A1974",
"*  c #621D78",
"=  c #681C6A",
"-  c #5C2373",
";  c #5B247B",
":  c #5A2C7E",
">  c #562479",
",  c #583677",
"<  c #6C276A",
"1  c #67396A",
"2  c #7A3561",
"3  c #63297D",
"4  c #64247C",
"5  c #763879",
"6  c #693477",
"7  c #745C4B",
"8  c #685458",
"9  c #725A55",
"0  c #684E5A",
"q  c #7C6A58",
"w  c #7F735F",
"e  c #58537C",
"r  c #604178",
"t  c #6F4E6B",
"y  c #566679",
"u  c #B91C13",
"i  c #AA1313",
"p  c #BC2318",
"a  c #8F323A",
"s  c #A42029",
"d  c #C2261C",
"f  c #C8352A",
"g  c #9A5723",
"h  c #BF4232",
"j  c #AA6426",
"k  c #BD7237",
"l  c #B06E33",
"z  c #DA4439",
"x  c #C57A3B",
"c  c #8A3257",
"v  c #A83859",
"b  c #853A6B",
"n  c #901F48",
"m  c #9C564C",
"M  c #954B52",
"N  c #954B52",
"B  c #894C52",
"V  c #AB5651",
"C  c #87715D",
"Z  c #866A50",
"A  c #A86943",
"S  c #BA6D41",
"D  c #8C4D6D",
"F  c #AB586C",
"G  c #887967",
"H  c #957B68",
"J  c #86696B",
"K  c #AA656B",
"L  c #B9746B",
"P  c #B36E70",
"I  c #D45052",
"U  c #E6564A",
"Y  c #E35044",
"T  c #C45475",
"R  c #D25562",
"E  c #C77F53",
"W  c #D38435",
"Q  c #CC8037",
"!  c #B38750",
"~  c #9E846C",
"^  c #948C74",
"/  c #958F6F",
"(  c #A48E74",
")  c #B4AB6C",
"_  c #D28945",
"`  c #E0995D",
"'  c #ECA45D",
"]  c #D7936D",
"[  c #C2A876",
"{  c #EAA469",
"}  c #F3AC67",
"|  c #F7B069",
" . c #CCF66A",
".. c #D0FF6A",
"X. c #5D1C85",
"o. c #5C1B85",
"O. c #631F83",
"+. c #5F2384",
"@. c #5C3281",
"#. c #5E3B84",
"$. c #62228D",
"%. c #642983",
"&. c #643382",
"*. c #6A3584",
"=. c #6C3B85",
"-. c #693A87",
";. c #652593",
":. c #6A2C9C",
">. c #672B96",
",. c #703E85",
"<. c #6E2FA1",
"1. c #6E31A3",
"2. c #7236AA",
"3. c #7539AD",
"4. c #7034A7",
"5. c #773BB1",
"6. c #793DB4",
"7. c #595381",
"8. c #6E438A",
"9. c #6F4B8C",
"0. c #72458A",
"q. c #734A8C",
"w. c #794B89",
"e. c #7A548E",
"r. c #774E93",
"t. c #765291",
"y. c #7A5694",
"u. c #7B5B94",
"i. c #7B5C95",
"p. c #5A6B82",
"a. c #7C6396",
"s. c #6F7496",
"d. c #7D42BB",
"f. c #7A43B4",
"g. c #7652AA",
"h. c #7968B4",
"j. c #746EAB",
"k. c #81588E",
"l. c #845D91",
"z. c #935D83",
"x. c #B15290",
"c. c #83669C",
"v. c #856A9E",
"b. c #886795",
"n. c #92749A",
"m. c #96799C",
"M. c #997D9D",
"N. c #947D84",
"B. c #9C50AA",
"V. c #8346BB",
"C. c #914FBB",
"Z. c #8955B6",
"A. c #896FA1",
"S. c #876FA0",
"D. c #8E79A5",
"F. c #8B73A3",
"G. c #917DA8",
"H. c #8147C1",
"J. c #834AC5",
"K. c #864DCA",
"L. c #8B4EC2",
"P. c #8354C5",
"I. c #5C9D87",
"U. c #659794",
"Y. c #668B97",
"T. c #5CA986",
"R. c #57B580",
"E. c #60A28D",
"W. c #9B829F",
"Q. c #9D9383",
"!. c #A19C82",
"~. c #ABAA8C",
"^. c #B5B798",
"/. c #9583AB",
"(. c #998BAE",
"). c #9B87A5",
"_. c #A28BA3",
"`. c #AE9EAA",
"'. c #A693A7",
"]. c #A196B0",
"[. c #B2A4AB",
"{. c #B7ACB3",
"}. c #BDB5B5",
"|. c #C9A888",
" X c #D9B693",
".X c #CFAE8F",
"XX c #E4BF9A",
"oX c #C3BDBA",
"OX c #DEB3A0",
"+X c #C0968C",
"@X c #BEC0A0",
"#X c #ECC59F",
"$X c #DBC7A3",
"%X c #C7C4BC",
"&X c #CDD1B0",
"*X c #FED6AB",
"=X c #F8D0A6",
"-X c #E8CAA7",
";X c #DFE1B9",
":X c #E1E1B9",
">X c #CDCCC1",
",X c #D1D3C4",
"<X c #DADDCC",
"1X c #D6D8C9",
"2X c #DCE3CC",
"3X c #DDE8C6",
"4X c #DEE3D1",
"5X c #E3E9CC",
"6X c #E5EBC6",
"7X c #E3EAD3",
"8X c #E5EBD7",
"9X c #ECF3DC",
"0X c #EAF1D5",
"qX c #EBF2D5",
"wX c #F1F9E1",
"eX c None",
/* pixels */
"eXeXeXeXeXeXeXeXeXeXeXeXeXeXeXeXeXeXeXeXeXeXeXeXeXeXeXeXeXeXeXeXeXeXeXeXeXeXeXeXeXeXeXeXeXeXeXeXeXeXeXeXeXeXeXeXeXeXeXeX",
"eXeXeXeXeXeXeXeXeXeXeXeXeXeXeXeXeXeXeXeXeXeXeXeXeXeXeXeXeXeXeXeXeXeXeXeXeXeXeXeXeXeXeXeXeXeXeXeXeXeXeXeXeXeXeXeXeXeXeXeX",
"eXeXeXeXeXeXeXeXeXeXeXeXeXeXeXeXeXeXeXeXeXeXeXeXeXeXeXeXeXeXeXeXeXeXeXeXeXeXeXeXeXeXeXeXeXeXeXeXeXeXeXeXeXeXeXeXeXeXeXeX",
"eXeXeXeXeXeXeXeXeXeXeXeXeXeXeXeXeXeXeXeXeXeXeXeXeXeXeXeXeXeXeXeXeXeXeXeXeXeXeXeXeXeXeXeXeXeXeXeXeXeXeXeXeXeXeXeXeXeXeXeX",
"eXeXeXeXeXeXeXeXeXeXeXeXeXeXeXeXeXeXeXeXeXeXeXeXeXeXeXeXeXeXeXeXeXeXeXeXeXeXeXeXeXeXeXeXeXeXeXeXeXeXeXeXeXeXeXeXeXeXeXeX",
"eXeXeXeXeXeXeXeXeXeXeXeXeXeXeXeXeXeXeXeXeXeXeXeXeXeXeXeXeXeXeXeXeXeXeXeXeXeXeXeXeXeXeXeXeXeXeXeXeXeXeXeXeXeXeXeXeXeXeXeX",
"eXeXeXeXeXeXeX,XeXeXeXeXeXeXeXeXeXeXeXeXeXeXeXeXeXeXeXeXeXeXeXeXeXeXeXeXeXeXeXeXeXeXeXeXeXeXeXeXeXeXeXeXeXeXeXeXeXeXeXeX",
"eXeXeXeXeXeXeX%XeXeXeXeXeXeXeXeXeXeXeXeXeXeXeXeXeXeXeXeXeXeXeXeXeXeXeXeXeXeXeXeXeXeXeXeXeXeXeXeXeXeXeXeXeXeXeXeXeXeXeXeX",
"eXeXeXeXeX8Xn.G.k.q.,.=.,.q.y.b._.oX<XeXeX3XeXeXeXeXeXeXeXeXeXeXeXeXeXeXeXeXeXeXeXeXeXeXeXeXeXeXeXeXeXeXeXeXeXeXeXeXeXeX",
"eXeXeXW.q.G.-.(._.(.(.(.(.(.(.(.(.(.G.c.&.l.,XeXeXeX<X'.<XeXeXeXeXeXeXeXeXeXeXeXeXeXeXeXeXeXeXeXeXeXeXeXeXeXeXeXeXeXeXeX",
"eX2XA.(.(.G.G.(.(.(./.D.A.i.y.0.0.y.c.D.D.(.(.i.'.%X'.*., e _.eXeXeXeXeXeXeXeXeXeXeXeXeX8XoX}.1XeXeXeXeXeXeXeXeXeXeXeXeX",
"eX,X%X{._.6 r.v./.(.(.(.(.(.(.(.(.(.(.q./.c.i./.(.5 X A x M &   k.eXeXeXeXeX,XM.,.+.X.;.3.J.H.d.>.*.>XeXeXeXeXeXeXeXeXeX",
"eXeXeXeXeXw.eXeXeXeX).e.q.*.%.; +.; % +.&.-.r.> y y 1   S W W m V   %Xk.% ;.d.J.K.J.J.3.V.K.J.K.K.K.6.,.eXeXeXeXeXeXeXeX",
"eXeXeXeXeXn.eX_.%.-.c./.(./.A.y.q.0.-.q.-.t.y.%.: $ y T.T.7.< S W x M d.2.;.X.;.;.O K { { ] ] K %.6.K.K.;.>XeXeXeXeXeXeX",
"eXeXeXeXoX; c.(.i.(.(./.(.(.(.(.(.(.D.t.8.6 a.a.8.M W x 2 7.U.s.4 l W = J.K.K.K.K.K.J.5.X.P | } | } D 6.K.3._.eXeXeXeXeX",
"eXeX4X&./.A.(.(.S.(.(.(.(.G.A.y.r.y.b.+ ; : -.9.t.9.-.: 2 m N 6 j.g.< M K.K.K.K.K.K.K.K.K.K.$._ x x { { 5 6.H.0.eXeXeXeX",
"eXm.A.(.(.D.(.(.i.8.k.eXeXeXeXeXeXb.$ i.a.a.a.a.a.u.i.t.t.r $ k S %.V.X K.K.K.K.K.6.4.J.K.K.K.1.2XeX6X! l ` D 3.$.eXeXeX",
"l.b._.{.%X_.W.{.eXeXeXeXeXeXeX0.G.-.a.q.&.&.9.t.u.a.t.8.8 / , & Q 7 m ;.J.K.K.J.J  .../ 1.K.K.K.%.eXeXeXeX;Xl k b @ eXeX",
"eXeXeXeXeXoXeX8XeXeXeXeXeXw././.S.-.u.a.a.a.a.-.$ + @.#.0 *X9 W Q ) A Q 3.K.K.6. .......( K.K.K.J.%XeXeXeXeXeXeX|.j . oX",
"eXeXeXeXeX`.eXeXeXeXeXeXc.(.(.(.q.a.a.9.; + + #.0 8 #.#.r XX.X- B #XZ W 1 7 K.d.) ...... .3.K.K.K.>.eXeXeXeXeXeXeXeX:X. ",
"eXeXeXeXeXn.eXeXeXeXk.(.(.(.(.(.+ + &.y.@.@.#.#.9 *X~ r #.t 5 O O z.B l  XH Z.+.o.^  . .H H.K.K.K.4.eXeXeXeXeXeXeXeXeXeX",
"eXeXeXeXeX_.eXeXeX0.(.(.(.(.=.%.q.a.q.@.#.#.#.#.r ~ *Xt ; #.#.#.#.#., $ .Xm I >.d.:.2.<.H.K.J.;.4.d.8XeXeXeXeXeXeXeXeXeX",
"eXeXeXeXeX1XeXeX&.(.(.(.y.&.(.c.a.@.#.#.#.#.#.#.#.r - #.#.#.#.#.: @.#.#.+.c I U I V O.5.4.J.6.8X9Xm.7XeXeXeXeXeXeXeXeXeX",
"eXeXeXeXeXeX5X0.G.(./.# F.(.(.8., #.#.#.#.#.#.8 9 , @.#.#.#.$ ;.J.# #.#.&.$  X7 Y U f &X%X4X1XeXeXeXeXeXeXeXeXeXeXeXeXeX",
"eXeXeXeXeXeX0.(.(.i.-.(.(./.b.0.@.7.-.&.#.&.r ~ =X5 #.#.@., Y.K.K.$ $ + $ : B U U U Y h eXeXeXeXeXeXeXeXeXeXeXeXeXeXeXeX",
"eXeXeXeXeX[./.A.=.c.(.(.c.<XeX0.#.#.: & n < ; &.8 & #.#.$.j.P.K.K.+ 2 H.J.d.% n u U U U z 7XeXeXeXeXeXeXeXeXeXeXeXeXeXeX",
"eXeXeXeXeXt.).3Xr.(./.>XeXeXeXn.@.0.<XeXp U U $.$ + #., j.j.P.K.5.c   K.K.K.K.J.$.s p Y Y z p eXeXeXeXeXeXeXeXeXeXeXeXeX",
"eXeXeXeX7XeXeX{.].2XeXeXeXeXeXW.{.eXeXeX|.Y U T K.5.: : h.K.K.:.+ x :.$.F 5 $.f.K.J.+.P u z z eXeXeXeXeXeXeXeXeXeXeXeXeX",
"eXeXeXeXeXeXeX3XeXeXeXeXeXeXeXeXeXeXeXeX9Xf U U K.K.1.@ K.5.o.6.4 O { | | | | } L ; J.3.[.$Xz $XeXeXeXeXeXeXeXeXeXeXeXeX",
"eXeXeXeXeXeXeXeXeXeXeXeXeXeXeXeXeXeXeXeXeXu U U x.K.1.d.o.3.K.K.4.P | | | | | | | | F d.;.eXeXeXeXeXeXeXeXeXeXeXeXeXeXeX",
"eXeXeXeXeXeXeXeXeXeXeXeXeXeXeXeXeXeXeXeXeXu U K.R J.o.o.K.K.K.H.g A S x | j x } | | | t J.b.eXeXeXeXeXeXeXeXeXeXeXeXeXeX",
"eXeXeXeXeXeXeXeXeXeXeXeXeXeXeXeXeXeXeXeXeXd U B.6.2 X d.K.J.J.$.9XeXeX5Xj 6X9Xj | | | | $.;.eXeXeXeXeXeXeXeXeXeXeXeXeXeX",
"eXeXeXeXeXeXeXeXeXeXeXeXeXeXeXeXeXeXeXeX$Xz U I O.M m K.K.h.p.7XeXeXeXeX5XeXeXwXj | | | L L.m.eXeXeXeXeXeXeXeXeXeXeXeXeX",
"eXeXeXeXeXeXeXeXeXeXeXeXeXeXeXeXeXeXeXeXd U x.T = c 2 5.J.h.m.eXeXeXeXeXeXeXeXeXqXk | | | :.$.eXeXeXeXeXeXeXeXeXeXeXeXeX",
"eXeXeXeXeXeXeXeXeXeXeXeXeXeXeXeXeX9X&XD Y U C.K.:.$.@ *.d.*.eXeXeXeXeXeXeXeXeXeXeX:X_ } _ K J.m.eXeXeXeXeXeXeXeXeXeXeXeX",
"eXeXeXeXeXeXeXeXeXeXeXeXeXeXeXeXeX@ +.* U F R L.K.;.`.eX9XeXeXeXeXeXeXeXeXeXeXeXeXeX[ ' [ { 1.$.eXeXeXeXeXeXeXeXeXeXeXeX",
"eXeXeXeXeXeXeXeXeXeXeXeXeXeXeXeXeXw.#.; Y L.B.K.J.w.eXeXeXeXeXeXeXeXeXeXeXeXeXeXeXeXeXj :Xj K H.[.eXeXeXeXeXeXeXeXeXeXeX",
"eXeXeXeXeXeXeXeXeXeXeXeXeXeXeXeXeX-Xb , + B.K.K.$.2XeXeXeXeXeXeXeXeXeXeXeXeXeXeXeXeXeX$XeX6X_ ;.$.eXeXeXeXeXeXeXeXeXeXeX",
"eXeXeXeXeXeXeXeXeXeXeXeXeXeXeXeXeXeXd 6 #.> 3.X.: >.r ; &.`.eXeXeXeXeXeXeXeXeXeXeXeXeXeXeXeX) ] 4.7XeXeXeXeXeXeXeXeXeXeX",
"eXeXeXeXeXeXeXeXeXeXeXeXeXeXeXeXeXeXu F @.@ d.j.h.T.K.R.J.H.$.=.<XeXeXeXeXeXeXeXeXeXeXeXeXeXeXj 5 y.eXeXeXeXeXeXeXeXeXeX",
"eXeXeXeXeXeXeXeXeXeXeXeXeXeXeXeXeXeXi I X.K.K.E.K.T.K.E.K.K.K.L.c `.`.oXeXeXeXeXeXeXeXeXeXeXeX9Xl o.eXeXeXeXeXeXeXeXeXeX",
"eXeXeXeXeXeXeXeXeX9Xb.eXeXeXeXeXeX{.i # K.K.K.Y.P.T.K.U.K.K.K.K.T v X o %XeXeXeXeXeXeXeXeXeXeXeX[ < 4XeXeXeXeXeXeXeXeXeX",
"eXeXeXeXeXeXeXeXeXq.;.1XeXeXeXeXeX@ n J.K.K.K.K.K.K.K.K.K.K.K.K.C.U < B 9XeXeXeXeXeXeXeXeXeXeXeXeXg ).eXeXeXeXeXeXeXeXeX",
"eXeXeXeXeXeXeXeXeXX.K.# 7XeXeXeX4 V.X.K.K.K.K.K.K.K.K.K.K.K.K.K.L.U v & eXeXeXeXeXeXeXeXeXeXeXeXeX5X1 eXeXeXeXeXeXeXeXeX",
"eXeXeXeXeXeXeXeX<X<.H.K.o.m.>X3 5.d.f.1.$.@ o ,.,.&.# # ;.V.J.J.@ > @.+ eXeXeXeXeXeXeXeXeXeXeXeXeXeX,XeXeXeXeXeXeXeXeXeX",
"eXeXeXeXeXeXeXeXm.H.o.J.J.K.J.J.K.J.g.U.h.p._.eXeXeXeXeX9Xm.o d.&.-.; }.eXeXeXeXeXeXeXeXeXeXeXeXeXeXeXeXeXeXeXeXeXeXeXeX",
"eXeXeXeXeXeXeXeX@ J.;.:.J.K.K.K.K.K.P.U.e _.eXeXeXeXeXeXm.$.K.5.@.+ }.eXeXeXeXeXeXeXeXeXeXeXeXeXeXeXeXeXeXeXeXeXeXeXeXeX",
"eXeXeXeXeXeXeXoX:.K.6.l.1.K.K.K.K.P.d.+ ,XeXeXeXeXeXeX{.:.K.5.r.<XeXeXeXeXeXeXeXeXeXeXeXeXeXeXeXeXeXeXeXeXeXeXeXeXeXeXeX",
"eXeXeXeXeXeXeX% K.K.H D [.o.H.K.6.# r.eXeXeXeXeXeXeX,X$.K.$.oXeXeXeXeXeXeXeXeXeXeXeXeXeXeXeXeXeXeXeXeXeXeXeXeXeXeXeXeXeX",
"eXeXeXeXeXeX^.- K.J.H .X;X=.+ + : ; w.eXeXeXeXeXeXeX# K.X.8XeX8X^.^.wXeXeXeXeXeXeXeXeXeXeXeXeXeXeXeXeXeXeXeXeXeXeXeXeXeX",
"eXeXeXeXeX~.( J V.H.Q. X^ eXn.=.m.7XeXeXeXeXeXeXeX>X2.3.4 % 1 .X|. XG wXeXeXeXeXeXeXeXeXeXeXeXeXeXeXeXeXeXeXeXeXeXeXeXeX",
"eXeXeXeX0XG ^ Z J !.&X( ~.eXeXeXeXeXeXeXeXeXeXeXeXW.J.K.K.K.y.Q.0X3X^.@XeXeXeXeXeXeXeXeXeXeXeXeXeXeXeXeXeXeXeXeXeXeXeXeX",
"eXeXeXeXeX7XG |.7  X3X7 2XeXeXeXeXeXeXeXeXeXeXeXeX`.; # :.K.K.>.@ =.^.eXeXeXeXeXeXeXeXeXeXeXeXeXeXeXeXeXeXeXeXeXeXeXeXeX",
"eXeXeXeXeXG G ( #X^ eX3XeXeXeXeXeXeXeXeXeXeXeXeXeXeXeXeX1X%.6.5.f.D C G ~.eXeXeXeXeXeXeXeXeXeXeXeXeXeXeXeXeXeXeXeXeXeXeX",
"eXeXeXeXeXeX@X~ ( eXeXeXeXeXeXeXeXeXeXeXeXeXeXeXeXeXeXeXeXeXl.5 OX8 =X|.q 3XeXeXeXeXeXeXeXeXeXeXeXeXeXeXeXeXeXeXeXeXeXeX",
"eXeXeXeXeXeX9XeXeXeXeXeXeXeXeXeXeXeXeXeXeXeXeXeXeXeXeXeXeXeXeX0 *XG ~ #X^ @XeXeXeXeXeXeXeXeXeXeXeXeXeXeXeXeXeXeXeXeXeXeX",
"eXeXeXeXeXeXeXeXeXeXeXeXeXeXeXeXeXeXeXeXeXeXeXeXeXeXeXeXeXeXeXq *XG eXq ^ eXeXeXeXeXeXeXeXeXeXeXeXeXeXeXeXeXeXeXeXeXeXeX",
"eXeXeXeXeXeXeXeXeXeXeXeXeXeXeXeXeXeXeXeXeXeXeXeXeXeXeXeXeXeXeXw =X!.eX&X&XeXeXeXeXeXeXeXeXeXeXeXeXeXeXeXeXeXeXeXeXeXeXeX",
"eXeXeXeXeXeXeXeXeXeXeXeXeXeXeXeXeXeXeXeXeXeXeXeXeXeXeXeXeXeXeX^ q eXeXeXeXeXeXeXeXeXeXeXeXeXeXeXeXeXeXeXeXeXeXeXeXeXeXeX",
"eXeXeXeXeXeXeXeXeXeXeXeXeXeXeXeXeXeXeXeXeXeXeXeXeXeXeXeXeXeXeX~.9XeXeXeXeXeXeXeXeXeXeXeXeXeXeXeXeXeXeXeXeXeXeXeXeXeXeXeX"
};
