/* XPM */
static char *result[] = {
/* columns rows colors chars-per-pixel */
"60 60 216 2 ",
"   c #7B345E",
".  c #6D2754",
"X  c #5A156E",
"o  c #530F74",
"O  c #551474",
"+  c #561976",
"@  c #56147A",
"#  c #59167D",
"$  c #561E79",
"%  c #5B1C7B",
"&  c #5A1974",
"*  c #621D78",
"=  c #681C6A",
"-  c #5C2373",
";  c #5B247B",
":  c #5A2C7E",
">  c #562479",
",  c #583677",
"<  c #6C276A",
"1  c #67396A",
"2  c #7A3561",
"3  c #63297D",
"4  c #64247C",
"5  c #763879",
"6  c #693477",
"7  c #745C4B",
"8  c #685458",
"9  c #725A55",
"0  c #684E5A",
"q  c #7C6A58",
"w  c #7F735F",
"e  c #58537C",
"r  c #604178",
"t  c #6F4E6B",
"y  c #566679",
"u  c #B91C13",
"i  c #AA1313",
"p  c #BC2318",
"a  c #8F323A",
"s  c #A42029",
"d  c #C2261C",
"f  c #C8352A",
"g  c #9A5723",
"h  c #BF4232",
"j  c #AA6426",
"k  c #BD7237",
"l  c #B06E33",
"z  c #DA4439",
"x  c #C57A3B",
"c  c #8A3257",
"v  c #A83859",
"b  c #853A6B",
"n  c #901F48",
"m  c #9C564C",
"M  c #954B52",
"N  c #954B52",
"B  c #894C52",
"V  c #AB5651",
"C  c #87715D",
"Z  c #866A50",
"A  c #A86943",
"S  c #BA6D41",
"D  c #8C4D6D",
"F  c #AB586C",
"G  c #887967",
"H  c #957B68",
"J  c #86696B",
"K  c #AA656B",
"L  c #B9746B",
"P  c #B36E70",
"I  c #D45052",
"U  c #E6564A",
"Y  c #E35044",
"T  c #C45475",
"R  c #D25562",
"E  c #C77F53",
"W  c #D38435",
"Q  c #CC8037",
"!  c #B38750",
"~  c #9E846C",
"^  c #948C74",
"/  c #958F6F",
"(  c #A48E74",
")  c #B4AB6C",
"_  c #D28945",
"`  c #E0995D",
"'  c #ECA45D",
"]  c #D7936D",
"[  c #C2A876",
"{  c #EAA469",
"}  c #F3AC67",
"|  c #F7B069",
" . c #CCF66A",
".. c #D0FF6A",
"X. c #5D1C85",
"o. c #5C1B85",
"O. c #631F83",
"+. c #5F2384",
"@. c #5C3281",
"#. c #5E3B84",
"$. c #62228D",
"%. c #642983",
"&. c #643382",
"*. c #6A3584",
"=. c #6C3B85",
"-. c #693A87",
";. c #652593",
":. c #6A2C9C",
">. c #672B96",
",. c #703E85",
"<. c #6E2FA1",
"1. c #6E31A3",
"2. c #7236AA",
"3. c #7539AD",
"4. c #7034A7",
"5. c #773BB1",
"6. c #793DB4",
"7. c #595381",
"8. c #6E438A",
"9. c #6F4B8C",
"0. c #72458A",
"q. c #734A8C",
"w. c #794B89",
"e. c #7A548E",
"r. c #774E93",
"t. c #765291",
"y. c #7A5694",
"u. c #7B5B94",
"i. c #7B5C95",
"p. c #5A6B82",
"a. c #7C6396",
"s. c #6F7496",
"d. c #7D42BB",
"f. c #7A43B4",
"g. c #7652AA",
"h. c #7968B4",
"j. c #746EAB",
"k. c #81588E",
"l. c #845D91",
"z. c #935D83",
"x. c #B15290",
"c. c #83669C",
"v. c #856A9E",
"b. c #886795",
"n. c #92749A",
"m. c #96799C",
"M. c #997D9D",
"N. c #947D84",
"B. c #9C50AA",
"V. c #8346BB",
"C. c #914FBB",
"Z. c #8955B6",
"A. c #896FA1",
"S. c #876FA0",
"D. c #8E79A5",
"F. c #8B73A3",
"G. c #917DA8",
"H. c #8147C1",
"J. c #834AC5",
"K. c #864DCA",
"L. c #8B4EC2",
"P. c #8354C5",
"I. c #5C9D87",
"U. c #659794",
"Y. c #668B97",
"T. c #5CA986",
"R. c #57B580",
"E. c #60A28D",
"W. c #9B829F",
"Q. c #9D9383",
"!. c #A19C82",
"~. c #ABAA8C",
"^. c #B5B798",
"/. c #9583AB",
"(. c #998BAE",
"). c #9B87A5",
"_. c #A28BA3",
"`. c #AE9EAA",
"'. c #A693A7",
"]. c #A196B0",
"[. c #B2A4AB",
"{. c #B7ACB3",
"}. c #BDB5B5",
"|. c #C9A888",
" X c #D9B693",
".X c #CFAE8F",
"XX c #E4BF9A",
"oX c #C3BDBA",
"OX c #DEB3A0",
"+X c #C0968C",
"@X c #BEC0A0",
"#X c #ECC59F",
"$X c #DBC7A3",
"%X c #C7C4BC",
"&X c #CDD1B0",
"*X c #FED6AB",
"=X c #F8D0A6",
"-X c #E8CAA7",
";X c #DFE1B9",
":X c #E1E1B9",
">X c #CDCCC1",
",X c #D1D3C4",
"<X c #DADDCC",
"1X c #D6D8C9",
"2X c #DCE3CC",
"3X c #DDE8C6",
"4X c #DEE3D1",
"5X c #E3E9CC",
"6X c #E5EBC6",
"7X c #E3EAD3",
"8X c #E5EBD7",
"9X c #ECF3DC",
"0X c #EAF1D5",
"qX c #EBF2D5",
"wX c #F1F9E1",
"eX c None",
/* pixels */
"eXeXeXeXeXeXeXeXeXeXeXeXeXeXeXeXeXl.eXeXeXeXeXeXeXeXeXeXeXeXeXeXeXeXeXeXeXeXeXeXeXeXeXeXeXeXeXeXeXeXeXeXeXeXeXeXeXeXeXeX",
"eXeXeXeXeXeXeXeXeXeX4X,XeXeXeXeXm.b.eXeXeXeXeXeXeXeXeXeXeXeXeXeXeXeXeXeXeXeXeXeXeXeXeXeXeXeXeXeXeXeXeXeXeXeXeXeXeXeXeXeX",
"eXeXeXeXeXeXeXeXeXeXA.%XeXeXeX<Xv.'.eXeXeXeXeXeXeXeXeXeXeXeXeXeXeXeXeXeXeXeXeXeXeXeXeXeXeXeXeXeXeXeXeXeXeXeXeXeXeXeXeXeX",
"eXeXeXeXeXeXeXeXeX).(.{.eXeXeX*.(.{.eXeXeXeXeXeXeXeXeXeXeXeXeXeXeXeXeXeXeXeXeXeXeXeXeXeXeXeXeXeXeXeXeXeXeXeXeXeXeXeXeXeX",
"eXeXeXeXeXeXeXeXeX0.(._.eXeX%XG.(.%XeXeXeXeXeXeXeXeXeX7XeXeXeXeXeXeXeXeXeXeXeXeXeXeXeXeXeXeXeXeXeXeXeX0XeXeXeXeXeXeXeXeX",
"eXeXeXeXeXeXeXeX8XG.G.*.w.n.; A.D._.oX`.n._.1XeXeX[.t.eXeXeXeXeXeXeXeXeXeXeXeXeXeXeXeXeXeXeXeXeXeXeX~.G 7XG eXeXeXeXeXeX",
"eXeXeXeXeXeXeXeXn.,.G.q.eXeXv.(.(.W.eXeXeXeXeX3X0./.).eXeXeXeXeXeXeXeXeXeXeXeXeXeXeXeXeXeXeXeXeXeX^.~ ~ w ^ &X0XeXeXeXeX",
"eXeXeXeXeXeX,XoXM.(.(.v.eX_.(.(.(.{.8XeXeXeXeX0.(.A.3X{.5XeXeXeXeXeXeXeXeXeXeXeXeXeXeXeXeXeXeXoX& - J C ~.( H eXeXeXeXeX",
"eXeXeXeXeXeXeXeXl.(.(./.eX3 y.v.l.eXeXeXeXeX&.G.(.=.r.].eXeXeXeXeXeXeXeXeXeXeXeXeXeXeXeX4Xn.O :.K.K.d.J q #X/ eXeXeXeXeX",
"eXeXeXeXeXeXeXeXw.(.(.(.eX=.(.(.8.eXeXeXeX0.(.(.i.c.(.2XeXeXeXeXeXeXeXeXeXeXeXeXeX9Xq.X.<.H.K.K.K.L.V.+X XG eXeXeXeXeXeX",
"eXeXeXeXeXeXeXeX=.(./.(.).c.(.(.y.eXeXeXe.(.(./.-.(./.eXeXeXeXeXeXeXeXeXeXeXeXeXeXb.;.K.H.o.;.5.H ~ N.&X6XeXeXeXeXeXeXeX",
"eXeXeXeXeXeXeXeX=.(.D.(.y.G.(.(.eXeXeXeX(.(.(.% (.(.>XeXeXeXeXeXeXeXeXeXeXeXeXeXeXeX1X# K.J.:.l.t |. X( 7 2XeXeXeXeXeXeX",
"eXeXeXeXeXeXeXeX=.(.A.(.r.(.(.(.eXeXeXv.(.(.y.F.(.l.eXeXeXeXeXeXeXeXeXeXeXeXeXeXeXeXeX7Xo.K.J.1.{.;X^ ~.3XeXeXeXeXeXeXeX",
"eXeXeXeXeXeXeXeXq.(.i.(.*./.(.G.eXeXq.(.(.(.&.(./.<XeXeXeXeXeXeXeXeXeXeXeXeXeXeXeXeXeXeXm.K.K.K.# 8.eXeXeXeXeXeXeXeXeXeX",
"eXeXeXeXeXeXeXeXe.(.u.(.3 A.(.S.eXeX/.(.(.=.(.(.c.eXeXeXeXeXeXeXeXeXeXeXeXeXeXeXeXeXeXeX>XJ.K.K.H.+ n.eXeXeXeXeXeXeXeXeX",
"eXeXeXeXeXeXeXeXb.(.0.(.; y.(.i.eX0.(.(.(.3 c.0.0.0.n.W.eXeXeXeXeXeXeXeXeXeXeXeXeXeXeXeX3 J.K.K.K.+ =.eXeXeXeXeXeXeXeXeX",
"eXeXeXeXeXeXeXeX_.(.0.(.; q.(.t.eXG.v.q.$ q.a.@.#.#.@.{.eXeXeXeXeXeXeXeXeXeXeXeXeXeXeX%.5.J.K.K.6.> M.eXeXeXeXeXeXeXeXeX",
"eXeXeXeXeXeXeXeXoX(.y.(.% q.(.e.b.*.-.a.+ a.@.#.#.#.0.eXeXeXeXeXeXeX9XO w.-XeXeXeX{.# V.d.J.K.K.o.; 7XeXeXeXeXeXeXeXeXeX",
"eXeXeXeXeXeXeXeX<X/.c.(.> *.D.c.> a.i.a.&.9.#.#.#.: <XeXeXeXeXeXeXeX,X: #.b d u i i n O.6.g.P.H.w.w.eXeXeXeXeXeXeXeXeXeX",
"eXeXeXeXeXeXeXeXeXc.D.q.+.q.y.@ a.q.a.9.y.@.#.#.#.+ eXeXeXeXeXeXeXeXD X ; #.#.V I * J.J.4.I.U.+ eXeXeXeXeXeXeXeXeXeXeXeX",
"eXeXeXeXeXeXeXeXeX%.D./.&.*.,.; a.&.a.> &.#.#.#.#.n d ] wXeXeXeX$Xd I U Y X #.#.o.K.K.K.$.h.7.,XeXeXeXeXeXeXeXeXeXeXeXeX",
"eXeXeXeXeXeXeXeX3Xl.(.c.=.q.&.&.a.&.a.$ @.#.#.#.#.= U Y f u u d z U Y T L.Z.$ @ K.K.K.K.# p._.eXeXeXeXeXeXeXeXeXeXeXeXeX",
"eXeXeXeXeXeXeXeXeX,X(.a.t.y.a.-.a.9.u.$ #.#.#.#.8.> U U U U U U U x.C.R B.K.2.6.K.K.K.K.O _.eXeXeXeXeXeXeXeXeXeXeXeXeXeX",
"eXeXeXeXeXeXeXeXeXeXi./.> : a.9.a.t.-., #.#.#.8 ~ #.$.T U U L.B.U T K.K.K.K.+.j.U.Y.K.K.=.eXeXeXeXeXeXeXeXeXeXeXeXeXeXeX",
"eXeXeXeXeXeXeXeXeXeX'./.y 3 9.t.a.i.$ 8 9 r &.8 *X0 > K.J.x.R 6.* 4 :.L.H.$.: h.K.K.K.K.=.eXeXeXeXeXeXeXeXeXeXeXeXeXeXeX",
"eXeXeXeXeXeXeXeXeXeX>X5 y > M 9.u.i.+ 8 *X~ r , 5 + + 3.K.K.J.2 N c $.;.0.3X>.T.R.T.K.K.%.eXeXeXeXeX>XG.`.eXeXeXeXeXeXeX",
"eXeXeXeXeXeXeXeXeX<X_.X 1 e Q &.t.i.: #.~ *X- @.8.#.#.@.4.1.o.o m   @ `.eXeX7.K.K.K.K.K.% eXeXeX,X+ 2.J.* eXeXeXeXeXeXeX",
"eXeXeXeXeXeXeXeXeX'.*.A B T.k ; t.9.#.#.t t #.#.#.#.: > @ d.o.d.K.5.*.eXeXeX% R.E.U.K.K.# eXeX[.;.K.3.K.# eXeXeXeXeXeXeX",
"eXeXeXeXeXeXeXeXeX<X, x S I.2 2 t.8 0 r #.; #.#.@.+.j.h.K.@ K.K.K.K.6.9XeXeX3 K.K.K.K.K.:.9XM.:.J.X.4 K.:.<XeXeXeXeXeXeX",
"eXeXeXeXeXeXeXeXeXeXe N W 7.p.m 8.~ *X Xt #.#.#., h.h.P.6.6.K.P.j.h.*.eXeXeX`.H.K.K.K.K.6.n.;.K.$.8XX.K.K.3 eXeXeXeXeXeX",
"eXeXeXeXeXeXeXeXeXeX_.% W < Y.B > , 9 |.6 #.#.$ Y.P.P.P.@ K.K.K.p.m.eXeXeXeXeX$.K.K.K.K.K.o K.5.oXeX1 r.K.6.l.eXeXeXeXeX",
"eXeXeXeXeXeXeXeXeXeXeX2 m S s.6 x X Q , @ #.#.;.K.J.K.:.d.K.H.+.7XeXeXeXeXeXeX=.L.K.K.K.J.V.5.e.eX7X.XQ.:.5.5 0 q q ^ ~.",
"eXeXeXeXeXeXeXeXeXeXeXk.m W ; j.k x Q B X r > J.K.P.6.@ < 2.a 9XeXeXeXeXeXeXeX2Xc T C.K.@ #.: <XeX^.|.7X+ 5.OX*X*X=Xq 9X",
"eXeXeXeXeXeXeXeXeXeXeXeX2 W V g.4 7 |.#Xz.#.+.@ # O   x X L l eXeXeXeXeXeXeXeXeX[.v U U ; #.$ eXeX^. X5X*.J 9 G G !.eXeX",
"eXeXeXeXeXeXeXeXeXeXeXeX%XM W   f.m l Z B @.#.7.+ b 2 :.{ | ! eXeXeXeXeXeXeXeXeX`.X = v @.: {.eXeXwXC ~.^.C =XG eXeXeXeX",
"eXeXeXeXeXeXeXeXeXeXeXeXk.6.= M o ;.x W l > #.#.+ H.K.$.| } x 0XeXeXeXeXeXeXeXeXoXX N X $ }.eXeXeXeXwX&XeXC .X#Xw &XeXeX",
"eXeXeXeXeXeXeXeXeXeXeXeX* 2.J.K.K.K.3.1 OX.X: #.> J.K.F | | | j 0XeXeXeXeXeXeXeXeX%X8XeXeXeXeXeXeXeXeXeXeX~.C ^ ^ &XeXeX",
"eXeXeXeXeXeXeXeXeXeXeXeX>.$.K.K.K.K.K.9 H m c > : d.L.5 | | j 6XeXeXeXeXeXeXeXeXeXeXeXeXeXeXeXeXeXeXeXeXeXeX3X@XeXeXeXeX",
"eXeXeXeXeXeXeXeXeXeXeX,Xd.X.K.K.K.K.K.K.V.Y I  XB - K.$.| | k qXeXeXeXeXeXeXeXeXeXeXeXeXeXeXeXeXeXeXeXeXeXeXeXeXeXeXeXeX",
"eXeXeXeXeXeXeXeXeXeXeXG.K.$.K.K.K.K.6.6.o.:.Y 8 U n H.f.} | | j 9XeXeXeXeXeXeXeXeXeXeXeXeXeXeXeXeXeXeXeXeXeXeXeXeXeXeXeX",
"eXeXeXeXeXeXeXeXeXeXeX,.K.;.K.K.K.J  .) o.d.I Y U p +.K.L | | | j qXeXeXeXeXeXeXeXeXeXeXeXeXeXeXeXeXeXeXeXeXeXeXeXeXeXeX",
"eXeXeXeXeXeXeXeXeXeXeXO.K.O K.K.5. .....^ 1.R U U U a H.4 | | | | k :XeXeXeXeXeXeXeXeXeXeXeXeXeXeXeXeXeXeXeXeXeXeXeXeXeX",
"eXeXeXeXeXeXeXeXeXeXeXO.H.K J.K.2....... .4.4 f U U p X.J.F | | | | _ [ eXeXeXeXeXeXeXeXeXeXeXeXeXeXeXeXeXeXeXeXeXeXeXeX",
"eXeXeXeXeXeXeXeXeXeXeX>.3.{ 5.K.L./ .... .:.2.&Xf U Y P 3.d.b | | | ' ' j $XeXeXeXeXeXeXeXeXeXeXeXeXeXeXeXeXeXeXeXeXeXeX",
"eXeXeXeXeXeXeXeXeXeX8X3.H.{ * K.K.1./  .G H.1.%XeXz Y p [.;.J.$.L | _ [ :XeXeXeXeXeXeXeXeXeXeXeXeXeXeXeXeXeXeXeXeXeXeXeX",
"eXeXeXeXeXeXeXeXeXeXoXJ.J.] L K.K.K.P.3.J.K.J.4XeX5Xz z $XeXb.;.L.<.K ' j 6XeXeXeXeXeXeXeXeXeXeXeXeXeXeXeXeXeXeXeXeXeXeX",
"eXeXeXeXeXeXeXeXeXeX}.J.J.] | $.K.K.K.K.K.J.6.<XeXeXp z z eXeXeXM.$.J.1.K _ ) eXeXeXeXeXeXeXeXeXeXeXeXeXeXeXeXeXeXeXeXeX",
"eXeXeXeXeXeXeXeXeXeX1X6.K.K | E 1.K.K.K.K.;.7XeXeXeXeXeX$XeXeXeXeXeXn.$.V.$.] j wXeXeXeXeXeXeXeXeXeXeXeXeXeXeXeXeXeXeXeX",
"eXeXeXeXeXeXeXeXeXeXeX>.K.%.| x 2X%.J.K.K.2.9XeXeXeXeXeXeXeXeXeXeXeXeXeX[.%.1.6 l [ eXeXeXeXeXeXeXeXeXeXeXeXeXeXeXeXeXeX",
"eXeXeXeXeXeXeXeXeXeXeX*.K.d.{ x eXeX%X*.2.d.m.eXeXeXeXeXeXeXeXeXeXeXeXeXeXeX8Xk.X.< g 7XeXeXeXeXeXeXeXeXeXeXeXeXeXeXeXeX",
"eXeXeXeXeXeXeXeXeXeXeX>X6.K.D { 6XeXeXeXeX8X7XeXeXeXeXeXeXeXeXeXeXeXeXeXeXeXeXeXeX4X_.6 >XeXeXeXeXeXeXeXeXeXeXeXeXeXeXeX",
"eXeXeXeXeXeXeXeXeXeXeXeX,.K.5.{ ! eXeXeXeXeXeXeXeXeXeXeXeXeXeXeXeXeXeXeXeXeXeXeXeXeXeXeXeXeXeXeXeXeXeXeXeXeXeXeXeXeXeXeX",
"eXeXeXeXeXeXeXeXeXeXeXeXeX;.K.5 k eXeXeXeXeXeXeXeXeXeXeXeXeXeXeXeXeXeXeXeXeXeXeXeXeXeXeXeXeXeXeXeXeXeXeXeXeXeXeXeXeXeXeX",
"eXeXeXeXeXeXeXeXeXeXeXeXeX>X3.6.` :XeXeXeXeXeXeXeXeXeXeXeXeXeXeXeXeXeXeXeXeXeXeXeXeXeXeXeXeXeXeXeXeXeXeXeXeXeXeXeXeXeXeX",
"eXeXeXeXeXeXeXeXeXeXeXeXeXeX_.V.b l eXeXeXeXeXeXeXeXeXeXeXeXeXeXeXeXeXeXeXeXeXeXeXeXeXeXeXeXeXeXeXeXeXeXeXeXeXeXeXeXeXeX",
"eXeXeXeXeXeXeXeXeXeXeXeXeXeXeXw.3.k eXeXeXeXeXeXeXeXeXeXeXeXeXeXeXeXeXeXeXeXeXeXeXeXeXeXeXeXeXeXeXeXeXeXeXeXeXeXeXeXeXeX",
"eXeXeXeXeXeXeXeXeXeXeXeXeXeXeXeX+.D |.eXeXeXeXeXeXeXeXeXeXeXeXeXeXeXeXeXeXeXeXeXeXeXeXeXeXeXeXeXeXeXeXeXeXeXeXeXeXeXeXeX",
"eXeXeXeXeXeXeXeXeXeXeXeXeXeXeXeXeX# g eXeXeXeXeXeXeXeXeXeXeXeXeXeXeXeXeXeXeXeXeXeXeXeXeXeXeXeXeXeXeXeXeXeXeXeXeXeXeXeXeX",
"eXeXeXeXeXeXeXeXeXeXeXeXeXeXeXeXeXeX. ;XeXeXeXeXeXeXeXeXeXeXeXeXeXeXeXeXeXeXeXeXeXeXeXeXeXeXeXeXeXeXeXeXeXeXeXeXeXeXeXeX",
"eXeXeXeXeXeXeXeXeXeXeXeXeXeXeXeXeXeXoX. eXeXeXeXeXeXeXeXeXeXeXeXeXeXeXeXeXeXeXeXeXeXeXeXeXeXeXeXeXeXeXeXeXeXeXeXeXeXeXeX"
};
