/* XPM */
static char *result[] = {
/* columns rows colors chars-per-pixel */
"60 60 216 2 ",
"   c #7B345E",
".  c #6D2754",
"X  c #5A156E",
"o  c #530F74",
"O  c #551474",
"+  c #561976",
"@  c #56147A",
"#  c #59167D",
"$  c #561E79",
"%  c #5B1C7B",
"&  c #5A1974",
"*  c #621D78",
"=  c #681C6A",
"-  c #5C2373",
";  c #5B247B",
":  c #5A2C7E",
">  c #562479",
",  c #583677",
"<  c #6C276A",
"1  c #67396A",
"2  c #7A3561",
"3  c #63297D",
"4  c #64247C",
"5  c #763879",
"6  c #693477",
"7  c #745C4B",
"8  c #685458",
"9  c #725A55",
"0  c #684E5A",
"q  c #7C6A58",
"w  c #7F735F",
"e  c #58537C",
"r  c #604178",
"t  c #6F4E6B",
"y  c #566679",
"u  c #B91C13",
"i  c #AA1313",
"p  c #BC2318",
"a  c #8F323A",
"s  c #A42029",
"d  c #C2261C",
"f  c #C8352A",
"g  c #9A5723",
"h  c #BF4232",
"j  c #AA6426",
"k  c #BD7237",
"l  c #B06E33",
"z  c #DA4439",
"x  c #C57A3B",
"c  c #8A3257",
"v  c #A83859",
"b  c #853A6B",
"n  c #901F48",
"m  c #9C564C",
"M  c #954B52",
"N  c #954B52",
"B  c #894C52",
"V  c #AB5651",
"C  c #87715D",
"Z  c #866A50",
"A  c #A86943",
"S  c #BA6D41",
"D  c #8C4D6D",
"F  c #AB586C",
"G  c #887967",
"H  c #957B68",
"J  c #86696B",
"K  c #AA656B",
"L  c #B9746B",
"P  c #B36E70",
"I  c #D45052",
"U  c #E6564A",
"Y  c #E35044",
"T  c #C45475",
"R  c #D25562",
"E  c #C77F53",
"W  c #D38435",
"Q  c #CC8037",
"!  c #B38750",
"~  c #9E846C",
"^  c #948C74",
"/  c #958F6F",
"(  c #A48E74",
")  c #B4AB6C",
"_  c #D28945",
"`  c #E0995D",
"'  c #ECA45D",
"]  c #D7936D",
"[  c #C2A876",
"{  c #EAA469",
"}  c #F3AC67",
"|  c #F7B069",
" . c #CCF66A",
".. c #D0FF6A",
"X. c #5D1C85",
"o. c #5C1B85",
"O. c #631F83",
"+. c #5F2384",
"@. c #5C3281",
"#. c #5E3B84",
"$. c #62228D",
"%. c #642983",
"&. c #643382",
"*. c #6A3584",
"=. c #6C3B85",
"-. c #693A87",
";. c #652593",
":. c #6A2C9C",
">. c #672B96",
",. c #703E85",
"<. c #6E2FA1",
"1. c #6E31A3",
"2. c #7236AA",
"3. c #7539AD",
"4. c #7034A7",
"5. c #773BB1",
"6. c #793DB4",
"7. c #595381",
"8. c #6E438A",
"9. c #6F4B8C",
"0. c #72458A",
"q. c #734A8C",
"w. c #794B89",
"e. c #7A548E",
"r. c #774E93",
"t. c #765291",
"y. c #7A5694",
"u. c #7B5B94",
"i. c #7B5C95",
"p. c #5A6B82",
"a. c #7C6396",
"s. c #6F7496",
"d. c #7D42BB",
"f. c #7A43B4",
"g. c #7652AA",
"h. c #7968B4",
"j. c #746EAB",
"k. c #81588E",
"l. c #845D91",
"z. c #935D83",
"x. c #B15290",
"c. c #83669C",
"v. c #856A9E",
"b. c #886795",
"n. c #92749A",
"m. c #96799C",
"M. c #997D9D",
"N. c #947D84",
"B. c #9C50AA",
"V. c #8346BB",
"C. c #914FBB",
"Z. c #8955B6",
"A. c #896FA1",
"S. c #876FA0",
"D. c #8E79A5",
"F. c #8B73A3",
"G. c #917DA8",
"H. c #8147C1",
"J. c #834AC5",
"K. c #864DCA",
"L. c #8B4EC2",
"P. c #8354C5",
"I. c #5C9D87",
"U. c #659794",
"Y. c #668B97",
"T. c #5CA986",
"R. c #57B580",
"E. c #60A28D",
"W. c #9B829F",
"Q. c #9D9383",
"!. c #A19C82",
"~. c #ABAA8C",
"^. c #B5B798",
"/. c #9583AB",
"(. c #998BAE",
"). c #9B87A5",
"_. c #A28BA3",
"`. c #AE9EAA",
"'. c #A693A7",
"]. c #A196B0",
"[. c #B2A4AB",
"{. c #B7ACB3",
"}. c #BDB5B5",
"|. c #C9A888",
" X c #D9B693",
".X c #CFAE8F",
"XX c #E4BF9A",
"oX c #C3BDBA",
"OX c #DEB3A0",
"+X c #C0968C",
"@X c #BEC0A0",
"#X c #ECC59F",
"$X c #DBC7A3",
"%X c #C7C4BC",
"&X c #CDD1B0",
"*X c #FED6AB",
"=X c #F8D0A6",
"-X c #E8CAA7",
";X c #DFE1B9",
":X c #E1E1B9",
">X c #CDCCC1",
",X c #D1D3C4",
"<X c #DADDCC",
"1X c #D6D8C9",
"2X c #DCE3CC",
"3X c #DDE8C6",
"4X c #DEE3D1",
"5X c #E3E9CC",
"6X c #E5EBC6",
"7X c #E3EAD3",
"8X c #E5EBD7",
"9X c #ECF3DC",
"0X c #EAF1D5",
"qX c #EBF2D5",
"wX c #F1F9E1",
"eX c None",
/* pixels */
"eXeXeXeXeXeXeXeXeXeXeXeXeXeXeXeXeXeXoX. eXeXeXeXeXeXeXeXeXeXeXeXeXeXeXeXeXeXeXeXeXeXeXeXeXeXeXeXeXeXeXeXeXeXeXeXeXeXeXeX",
"eXeXeXeXeXeXeXeXeXeXeXeXeXeXeXeXeXeX. :XeXeXeXeXeXeXeXeXeXeXeXeXeXeXeXeXeXeXeXeXeXeXeXeXeXeXeXeXeXeXeXeXeXeXeXeXeXeXeXeX",
"eXeXeXeXeXeXeXeXeXeXeXeXeXeXeXeXeXO g eXeXeXeXeXeXeXeXeXeXeXeXeXeXeXeXeXeXeXeXeXeXeXeXeXeXeXeXeXeXeXeXeXeXeXeXeXeXeXeXeX",
"eXeXeXeXeXeXeXeXeXeXeXeXeXeXeXeX%.D .XeXeXeXeXeXeXeXeXeXeXeXeXeXeXeXeXeXeXeXeXeXeXeXeXeXeXeXeXeXeXeXeXeXeXeXeXeXeXeXeXeX",
"eXeXeXeXeXeXeXeXeXeXeXeXeXeXeXw.2.k eXeXeXeXeXeXeXeXeXeXeXeXeXeXeXeXeXeXeXeXeXeXeXeXeXeXeXeXeXeXeXeXeXeXeXeXeXeXeXeXeXeX",
"eXeXeXeXeXeXeXeXeXeXeXeXeXeX_.H.5 l eXeXeXeXeXeXeXeXeXeXeXeXeXeXeXeXeXeXeXeXeXeXeXeXeXeXeXeXeXeXeXeXeXeXeXeXeXeXeXeXeXeX",
"eXeXeXeXeXeXeXeXeXeXeXeXeX>X2.6.` :XeXeXeXeXeXeXeXeXeXeXeXeXeXeXeXeXeXeXeXeXeXeXeXeXeXeXeXeXeXeXeXeXeXeXeXeXeXeXeXeXeXeX",
"eXeXeXeXeXeXeXeXeXeXeXeXeX;.J.5 k eXeXeXeXeXeXeXeXeXeXeXeXeXeXeXeXeXeXeXeXeXeXeXeXeXeXeXeXeXeXeXeXeXeXeXeXeXeXeXeXeXeXeX",
"eXeXeXeXeXeXeXeXeXeXeXeX,.K.5.{ ! eXeXeXeXeXeXeXeXeXeXeXeXeXeXeXeXeXeXeXeXeXeXeXeXeXeXeXeXeXeXeXeXeXeXeXeXeXeXeXeXeXeXeX",
"eXeXeXeXeXeXeXeXeXeXeX>Xd.K.D { 6XeXeXeXeX8X7XeXeXeXeXeXeXeXeXeXeXeXeXeXeXeXeXeXeX4X_.1 >XeXeXeXeXeXeXeXeXeXeXeXeXeXeXeX",
"eXeXeXeXeXeXeXeXeXeXeX*.K.6.} x eXeXoX*.2.d.m.eXeXeXeXeXeXeXeXeXeXeXeXeXeXeX8Xk.X.< g 5XeXeXeXeXeXeXeXeXeXeXeXeXeXeXeXeX",
"eXeXeXeXeXeXeXeXeXeXeX>.K.%.| x 2X;.J.K.K.2.9XeXeXeXeXeXeXeXeXeXeXeXeXeX[.%.4.6 l [ eXeXeXeXeXeXeXeXeXeXeXeXeXeXeXeXeXeX",
"eXeXeXeXeXeXeXeXeXeX1Xd.K.K | E 1.K.K.K.K.;.4XeXeXeXeXeX$XeXeXeXeXeXn.$.J.;.] j 9XeXeXeXeXeXeXeXeXeXeXeXeXeXeXeXeXeXeXeX",
"eXeXeXeXeXeXeXeXeXeX{.J.J.] | $.K.K.K.K.K.J.f.1XeXeXd z z eXeXeXm.$.K.1.K x ) eXeXeXeXeXeXeXeXeXeXeXeXeXeXeXeXeXeXeXeXeX",
"eXeXeXeXeXeXeXeXeXeXoXJ.J.] L J.P.L.J.3.J.K.H.4XeX7Xz z $XeXb.;.L.:.K ' j 5XeXeXeXeXeXeXeXeXeXeXeXeXeXeXeXeXeXeXeXeXeXeX",
"eXeXeXeXeXeXeXeXeXeX8X3.J.{ * K.K.4./  .G H.1.%XeXz U p [.;.J.$.L | _ [ :XeXeXeXeXeXeXeXeXeXeXeXeXeXeXeXeXeXeXeXeXeXeXeX",
"eXeXeXeXeXeXeXeXeXeXeX;.3.{ 5.K.K./ .... .<.2.&Xf U Y P 3.d.b | | | ' ' j $XeXeXeXeXeXeXeXeXeXeXeXeXeXeXeXeXeXeXeXeXeXeX",
"eXeXeXeXeXeXeXeXeXeXeXo.H.K J.K.4....... .2.O.f U U d X.J.F | | | | _ [ eXeXeXeXeXeXeXeXeXeXeXeXeXeXeXeXeXeXeXeXeXeXeXeX",
"eXeXeXeXeXeXeXeXeXeXeX%.K.o K.K.5. .....H <.V U U U s J.4 | | | | x :XeXeXeXeXeXeXeXeXeXeXeXeXeXeXeXeXeXeXeXeXeXeXeXeXeX",
"eXeXeXeXeXeXeXeXeXeXeX=.K.;.K.K.K.G  .) o.d.I U U d $.K.P | | | j qXeXeXeXeXeXeXeXeXeXeXeXeXeXeXeXeXeXeXeXeXeXeXeXeXeXeX",
"eXeXeXeXeXeXeXeXeXeXeXM.K.;.K.K.K.J.5.d.+.:.U 7 U n H.6.} | | j wXeXeXeXeXeXeXeXeXeXeXeXeXeXeXeXeXeXeXeXeXeXeXeXeXeXeXeX",
"eXeXeXeXeXeXeXeXeXeXeX,XV.X.K.K.K.K.K.K.V.I I  XB * K.%.| | x 0XeXeXeXeXeXeXeXeXeXeXeXeXeXeXeXeXeXeXeXeXeXeXeXeXeXeXeXeX",
"eXeXeXeXeXeXeXeXeXeXeXeX;.$.K.K.K.K.K.9 H m c % : d.K.5 | | j 6XeXeXeXeXeXeXeXeXeXeXeXeXeXeXeXeXeXeXeXeXeXeX3X&XeXeXeXeX",
"eXeXeXeXeXeXeXeXeXeXeXeX% 2.J.K.K.J.3.1  X.X%.&.$ P.K.F | } } j 0XeXeXeXeXeXeXeXeX%X9XeXeXeXeXeXeXeXeXeXeX~.q ^ ^ &XeXeX",
"eXeXeXeXeXeXeXeXeXeXeXeXl.f.< M X ;.x W l + #.#.+ H.K.$.| | x 0XeXeXeXeXeXeXeXeXoXX B + + }.eXeXeXeXwX&XeXC |.#Xw &XeXeX",
"eXeXeXeXeXeXeXeXeXeXeXeX%XN W . f.m l Z Z @.#.#.$ 2 2 :.} | ! eXeXeXeXeXeXeXeXeX`.X = v @.: }.eXeXwXC ^.^.C #X^ eXeXeXeX",
"eXeXeXeXeXeXeXeXeXeXeXeX2 W A V.4 7 ~.#Xz.@.: @ % O   x O L l eXeXeXeXeXeXeXeXeX`.v U U > #.+ eXeX^..X5X8.D 9 G G ( eXeX",
"eXeXeXeXeXeXeXeXeXeXeXe.m W * j.k W Q B + #.+.H.K.K.6.@ < 4.a 9XeXeXeXeXeXeXeX<Xc T C.K.@ #.: 4XeX^.|.0X@ 5.OX*X*X=Xq 8X",
"eXeXeXeXeXeXeXeXeXeXeX  m S s.6 x & W ; + #.#.;.P.J.K.:.d.K.H.+.7XeXeXeXeXeXeX*.L.K.K.K.K.d.5.w.eX8X.XQ.;.5.6 0 C w ^ ~.",
"eXeXeXeXeXeXeXeXeXeX).- W < Y.B @ , 9 |.6 #.#.> Y.P.P.K.+ K.K.P.y m.eXeXeXeXeX$.L.K.K.K.K.o K.5.oXeX1 y.K.d.l.eXeXeXeXeX",
"eXeXeXeXeXeXeXeXeXeX7.M W 7.p.m 8.~ *X#Xt #.#.#.: j.h.K.6.5.K.P.h.h.=.eXeXeX`.H.K.K.K.K.d.n.;.K.$.8X% K.K.3 eXeXeXeXeXeX",
"eXeXeXeXeXeXeXeXeX<X, x S T.    t.8 0 , #.+.#.#.@.+.j.h.J.o.K.K.K.K.d.wXeXeX%.K.K.K.K.K.;.9Xm.>.K.X.4 K.:.<XeXeXeXeXeXeX",
"eXeXeXeXeXeXeXeXeX'.*.A c T.k - t.9.7.#.r t #.#.#.#.@.+.@ 6.o.H.J.3.*.eXeXeX; R.T.U.K.K.o.eXeX[.$.K.3.K.# eXeXeXeXeXeXeX",
"eXeXeXeXeXeXeXeXeX<X_.X , y W *.t.t.> #.~ *X< , #.#.#.: 2.1.o.o m 2 @ `.eXeX7.K.K.K.K.K.$ eXeXeX,X# 2.J.% eXeXeXeXeXeXeX",
"eXeXeXeXeXeXeXeXeXeX>X5 y - M 9.i.a.$ 0 *X~ r , r + + 5.K.K.J.2 N B $.;.0.3X:.T.T.T.K.K.%.eXeXeXeXeX>X).`.eXeXeXeXeXeXeX",
"eXeXeXeXeXeXeXeXeXeX'.(.y : 8.t.a.a.@ 0 7 r #.8 *X0 $ K.K.x.R 6.o.= :.K.H.$.: h.K.K.K.K.,.eXeXeXeXeXeXeXeXeXeXeXeXeXeXeX",
"eXeXeXeXeXeXeXeXeXeXi.G.> 3 a.9.a.y.-.#.#.#.#.8 ( &.+.T U U L.B.I T K.K.K.K.o.j.E.Y.K.K.=.eXeXeXeXeXeXeXeXeXeXeXeXeXeXeX",
"eXeXeXeXeXeXeXeXeX,X(.i.q.y.a.8.a.9.i.+ #.#.#.#.r > U U U U U U U x.C.R B.K.4.6.K.K.K.K.o _.eXeXeXeXeXeXeXeXeXeXeXeXeXeX",
"eXeXeXeXeXeXeXeX2Xb.(.S.-.r., &.a.&.a.+ , #.#.#.#.= U U f u u d f U U T L.B.# @ K.K.K.K.% p._.eXeXeXeXeXeXeXeXeXeXeXeXeX",
"eXeXeXeXeXeXeXeXeX%.D./.&.*.,.; a.&.a.; @.#.8.#.#.n d ] wXeXeXeX-Xf z U U X #.#.$.K.K.K.$.h.e ,XeXeXeXeXeXeXeXeXeXeXeXeX",
"eXeXeXeXeXeXeXeXeXc.D.q.+.q.t.@ a.9.a.9.u.: #.#.-.+ eXeXeXeXeXeXeXeXD X ; #.*.V I # V.J.4.U.U.O eXeXeXeXeXeXeXeXeXeXeXeX",
"eXeXeXeXeXeXeXeX<XG.c.(.; *.D.c.; i.i.a., 9.#.#.#.: <XeXeXeXeXeXeXeX,X: #.b d u i i n $.6.g.P.d.w.w.eXeXeXeXeXeXeXeXeXeX",
"eXeXeXeXeXeXeXeXoX(.y.(.; q.(.u.b.*.*.a.% a.@.#.#.#.0.eXeXeXeXeXeXeX9X@ w.-XeXeXeX{.# H.H.H.P.P.# > 7XeXeXeXeXeXeXeXeXeX",
"eXeXeXeXeXeXeXeX_.(.0.(.; q.(.w.eXD.S.q.@ t.a.: #.#.@.{.eXeXeXeXeXeXeXeXeXeXeXeXeXeXeX3 3.K.K.K.6.: M.eXeXeXeXeXeXeXeXeX",
"eXeXeXeXeXeXeXeXb.(.0.(.% y.(.i.eX0.(.(.(.&.c.,.0.0.n.W.eXeXeXeXeXeXeXeXeXeXeXeXeXeXeXeX3 J.K.K.K.O =.eXeXeXeXeXeXeXeXeX",
"eXeXeXeXeXeXeXeXy.(.y.(.%.A.(.S.eXeX/.(.(.-.(.(.c.eXeXeXeXeXeXeXeXeXeXeXeXeXeXeXeXeXeXeX>XH.K.K.H.+ n.eXeXeXeXeXeXeXeXeX",
"eXeXeXeXeXeXeXeXw.(.i.(.*./.(.G.eXeXq.(.(.(.&.(./.1XeXeXeXeXeXeXeXeXeXeXeXeXeXeXeXeXeXeXm.K.K.K.o.*.eXeXeXeXeXeXeXeXeXeX",
"eXeXeXeXeXeXeXeX=.(.S.(.r.(.(.(.eXeXeXc.(.(.y.D.(.c.eXeXeXeXeXeXeXeXeXeXeXeXeXeXeXeXeX4Xo.K.K.1.`.;X^ ~.5XeXeXeXeXeXeXeX",
"eXeXeXeXeXeXeXeX=.(.D.(.t./.(.(.eXeXeXeX(.(.(.% (.(.>XeXeXeXeXeXeXeXeXeXeXeXeXeXeXeX1X# K.K.:.k.t .X X( 7 3XeXeXeXeXeXeX",
"eXeXeXeXeXeXeXeX=.(./.(.).c.(.(.u.eXeXeXk.(.(./.-.(./.eXeXeXeXeXeXeXeXeXeXeXeXeXeXb.;.K.H.o.;.5.H ( N.&X6XeXeXeXeXeXeXeX",
"eXeXeXeXeXeXeXeXw.(.(.(.eX,.(.(.0.eXeXeXeX0.(.(.a.c.(.2XeXeXeXeXeXeXeXeXeXeXeXeXeX9Xw.O.<.d.K.K.K.K.V.+X XG eXeXeXeXeXeX",
"eXeXeXeXeXeXeXeXk.(.(./.eX3 y.S.u.eXeXeXeXeX&.D.(.=.t.].eXeXeXeXeXeXeXeXeXeXeXeXeXeXeXeX4Xm.O <.K.K.d.C q -X( eXeXeXeXeX",
"eXeXeXeXeXeX1XoXm.(.(.v.eX_.(.(.(.{.8XeXeXeXeX0.(.A.3X{.5XeXeXeXeXeXeXeXeXeXeXeXeXeXeXeXeXeXeXoX% - J C ~.( ~ eXeXeXeXeX",
"eXeXeXeXeXeXeXeXn.,.G.r.eXeXc.(.(.).eXeXeXeXeX5X0./.W.eXeXeXeXeXeXeXeXeXeXeXeXeXeXeXeXeXeXeXeXeXeX~.( ^ C H &XqXeXeXeXeX",
"eXeXeXeXeXeXeXeX8XD.G.*.w.n.; A.D._.oX`.n._.1XeXeX[.t.eXeXeXeXeXeXeXeXeXeXeXeXeXeXeXeXeXeXeXeXeXeXeX~.G 7XG eXeXeXeXeXeX",
"eXeXeXeXeXeXeXeXeXq.(._.eXeX%XG.(.%XeXeXeXeXeXeXeXeXeX7XeXeXeXeXeXeXeXeXeXeXeXeXeXeXeXeXeXeXeXeXeXeXeX0XeXeXeXeXeXeXeXeX",
"eXeXeXeXeXeXeXeXeXW.(.{.eXeXeX&.(.{.eXeXeXeXeXeXeXeXeXeXeXeXeXeXeXeXeXeXeXeXeXeXeXeXeXeXeXeXeXeXeXeXeXeXeXeXeXeXeXeXeXeX",
"eXeXeXeXeXeXeXeXeXeXA.%XeXeXeX4Xv._.eXeXeXeXeXeXeXeXeXeXeXeXeXeXeXeXeXeXeXeXeXeXeXeXeXeXeXeXeXeXeXeXeXeXeXeXeXeXeXeXeXeX",
"eXeXeXeXeXeXeXeXeXeX2X,XeXeXeXeXm.b.eXeXeXeXeXeXeXeXeXeXeXeXeXeXeXeXeXeXeXeXeXeXeXeXeXeXeXeXeXeXeXeXeXeXeXeXeXeXeXeXeXeX",
"eXeXeXeXeXeXeXeXeXeXeXeXeXeXeXeXeXl.eXeXeXeXeXeXeXeXeXeXeXeXeXeXeXeXeXeXeXeXeXeXeXeXeXeXeXeXeXeXeXeXeXeXeXeXeXeXeXeXeXeX"
};
