/* XPM */
static char *_bc6746f99da4fd6c178f5f4c138390dyQebSB2zXqTzy46Q[] = {
/* columns rows colors chars-per-pixel */
"60 60 131 2 ",
"   c #AE9502",
".  c #B19602",
"X  c #B39904",
"o  c #B99F02",
"O  c #B49B09",
"+  c #BDA302",
"@  c #BEA40A",
"#  c #BDA514",
"$  c #BDA51D",
"%  c #BFA91E",
"&  c #C0A504",
"*  c #C0A609",
"=  c #C1A80A",
"-  c #CEB302",
";  c #D1B601",
":  c #D5BB02",
">  c #D8BC02",
",  c #D7BC08",
"<  c #D8BE09",
"1  c #D2BA16",
"2  c #D4BC1A",
"3  c #C2AA21",
"4  c #DEC301",
"5  c #DEC709",
"6  c #DFC612",
"7  c #DFC71D",
"8  c #E2C602",
"9  c #E4C805",
"0  c #E5C904",
"q  c #E6C804",
"w  c #E4CA04",
"e  c #E5CB05",
"r  c #E6CA04",
"t  c #E6CA05",
"y  c #E7CB05",
"u  c #E4C906",
"i  c #E5C906",
"p  c #E5CA07",
"a  c #E7CB06",
"s  c #E6CA07",
"d  c #E6CC06",
"f  c #E4C903",
"g  c #E3C709",
"h  c #E3C809",
"j  c #E5C808",
"k  c #E4C908",
"l  c #E6C909",
"z  c #E5CA09",
"x  c #E6CB08",
"c  c #E4C90A",
"v  c #E5CA0B",
"b  c #E6CB0A",
"n  c #E7CC0D",
"m  c #E5CA0A",
"M  c #E8CA0A",
"N  c #E2C714",
"B  c #E3C914",
"V  c #E4CB17",
"C  c #E4CC14",
"Z  c #E7CD16",
"A  c #E6CE16",
"S  c #E7CF17",
"D  c #E6CC15",
"F  c #E5CC15",
"G  c #E8CC10",
"H  c #E8CE16",
"J  c #E4CB19",
"K  c #E6CD18",
"L  c #E6CD19",
"P  c #E5CF1A",
"I  c #E3C91C",
"U  c #E3CC1E",
"Y  c #E6CF1D",
"T  c #E6CF1F",
"R  c #E6CD1A",
"E  c #E8CD1A",
"W  c #E8CF1A",
"Q  c #E8D11F",
"!  c #D7C13A",
"~  c #D6C239",
"^  c #D9C33B",
"/  c #E4CE24",
"(  c #E6CF29",
")  c #E1CC33",
"_  c #E4CD32",
"`  c #E4CF34",
"'  c #E5CF34",
"]  c #E6D235",
"[  c #E5D134",
"{  c #E9D234",
"}  c #E8D136",
"|  c #E8D437",
" . c #ECD537",
".. c #EAD336",
"X. c #E9D538",
"o. c #EBD438",
"O. c #E9D63A",
"+. c #ECD539",
"@. c #E9D63C",
"#. c #EBD53A",
"$. c #D8C441",
"%. c #D4C149",
"&. c #D8C54F",
"*. c #D9C64E",
"=. c #DCC951",
"-. c #EBD742",
";. c #ECD644",
":. c #EAD541",
">. c #E9D840",
",. c #E6D348",
"<. c #E7D44A",
"1. c #E8D54A",
"2. c #E9D64B",
"3. c #E6D55F",
"4. c #EBDB61",
"5. c #EDDE61",
"6. c #ECDC62",
"7. c #E9D864",
"8. c #ECDB67",
"9. c #EEDE64",
"0. c #EEDE65",
"q. c #EDDD64",
"w. c #EDDE6B",
"e. c #F0DE64",
"r. c #EDDF72",
"t. c #EDDF72",
"y. c #F0DF73",
"u. c #EFE06B",
"i. c #ECE072",
"p. c #EDE175",
"a. c #EEE073",
/* pixels */
"8 9 8 4 f w 8 f f 8 f f f f f f K 7.-.w f 9 4 u w w 8 w -   @ 4 q f 9 8 4 w f 4 4 8 9 8 w 4 f 8 w 8 8 b 9 f 4 9 8 f f f ",
"9 4 8 f h  .S f 8 8 8 f 8 f 8 q w D b 9 b [ Y 8 8 8 9 4 > X X u C ..D 8 q w 8 4 b 9 4 w w f w 9 8 8 9 f f 8 f w e  .D 4 ",
"4 w 8 4 S 5.X.f w w f f w q f 8 r e f 8 K 0.[ f 8 u 4 u ,   + n H 6.{ e 4 f 9 f 8 8 f 9 4 9 9 4 8 9 f 8 8 w q f H u.^ 9 ",
"w w 4 f y D b 8 f f f 4 8 8 f f f 8 f 9 x B 9 9 9 w 9 f > . + w d D 9 f 4 9 4 8 8 q b ' / 8 4 u g 9 8 8 w w f 4 e C d 9 ",
"8 w 8 f 9 8 8 8 u w 8 8 w 4 w 4 f f 9 f f f 8 8 w 4 4 4 - X + 4 8 > 8 f f 9 4 b q 9 U t.2.8 9 9 f 4 8 9 8 q 4 8 8 8 8 8 ",
"+ + + + + + + + + + + + + + + + + + + + + + + & + + + @ X .   + + + & + + + + + + + @ % # + @ + + + + + + + + + + o + + ",
"  .     . O X O   X   X . X X X . .     .   O       O O . .     . X .   .   . . .       . X X X . . . . X . . . X X . . ",
"> > : > > > > : 4 : , - +   X - > : : > ; , : > : > 4 > ; ; : : : : : > > > : > ; , : ; O X . ; > > > > , , 1 =.~ : > > ",
"8 4 9 f w w 8 8 q 8 8 w ; . + w q f f 8 f 9 f f u 4 w 4 4 b u w 4 4 9 f f f 9 9 8 8 8 4 : . + 9 8 8 f 9 4 f B 8.;.f f y ",
"4 8 f f 8 8 f w q 8 4 4 > X + 4 8 4 8 f f f f f w 4 u 4 d  .D 8 u 8 9 b 4 f 8 f f 4 8 8 > . # <.D f f 9 w 8 9 W b 8 q f ",
"9 8 u 4 e f f w 8 8 9 u :   + u u 8 f 8 f f f f 4 u 4 8 D 5.| w 4 w w 4 4 8 f f 4 9 f w > . $ p.X.f 8 f 8 u w 8 8 f q 8 ",
"f f f w n @.D w f f 9 8 : O + 4 4 w f 9 f 8 f 9 w > u w d D b f u u w 4 f f q 8 4 f w w :   @ ( 9 f 8 9 8 f 4 8 8 w q 8 ",
"f f 9 w U t.<.4 4 8 4 w - X + 4 8 u w 8 4 w 4 f w 9 9 f f f 8 4 9 4 4 u b 4 8 w f 9 4 8 -   @ 4 4 w f 8 4 f w 8 f 9 w 9 ",
"+ & + + @ % # + @ + + + X . X + + + + + + + @ + + & + o + & + + + + @ + + + + + + + + + o .   o & @ + o + + + & & + + + ",
". . . .   . .   . O O X . . X . .   . . .   . X . O . . O   X X . .       O X O   . . . . .   X X . . . O . X   . . .   ",
"> > > 4 > > : : > > > : > ; 1 =.~ : > > : > > > > > - : + . X - : > : , : : > : > > > > > : > < ; ; > < > , : , > : > : ",
"w w 8 8 8 8 q f f f 8 8 8 4 K e.:.4 w 4 e 8 w u 4 w f f , . + 4 4 8 b 8 9 9 f 8 8 9 8 q 8 9 8 > w b f q 4 f f f f f w 8 ",
"8 8 8 d 8 w f f 8 8 4 q f w b C m w f 8 9 9 w 4 9 8 f f -   o 8 c w 8 8 9 8 b [ B q u f 9 4 4 u 9 f 8 8 b  .H f f 8 9 f ",
"w 4 d 4 f f w f 8 8 f q 8 9 w 8 f 8 f 8 f 8 w b 8 8 f > , O + 9 w 8 8 f 8 4 6 0. .9 9 8 4 8 9 f f w f f D 5.+.f 9 f 8 4 ",
"4 9 4 8 9 8 f 9 8 f 8 8 f 8 8 8 f 8 q 8 f 4 e 9 w 4 8 8 : . & f 8 q 8 f 8 9 v B b 8 4 4 f d f 4 8 w 8 9 y K 9 f f 8 8 8 ",
"8 8 8 9 u 4 9 4 f f f f w w w w 4 8 4 q 8 9 u 4 4 q 9 8 ; . o 8 8 q 9 8 8 q 8 f f q u w u 8 8 w 9 8 4 f f f f w 8 8 w w ",
"+ + & + + + + + & + & & + + + + + + * & + + + + + o o + . . . o & + + + + + + + + + & + + & & + + o & & + + + + + + + + ",
"  X . . . . O O O O . . . . .     X . . .   O     . . . . .   . . X . .   . X X . . . .   . . . . . . .         .   . . ",
": , > : , ; , ; 2 =.2 ; + . X - > > : : > > : ; > > > : , : > ; > : : : : > , > : > ; : + . . - > > > > > > 2 =.^ : > : ",
"9 f q 8 4 9 u 4 K 0.-.f :   + 8 f e q 8 f 8 4 u f f q w 8 f 8 f u 4 q 8 w 8 8 9 f 8 8 f : . + w f f 8 8 8 f K q.@.5 8 8 ",
"f q w w f f 4 f 9 G M q :   + f f 8 4 f f 8 f 8 f 4 f 8 8 f f 8 w 8 f w 8 9 b  .H 8 f 8 : . + w 8 f 4 w f 8 9 6 n w f w ",
"9 w 8 8 f q 4 f f f f 8 : X & f 8 f f f q q 8 w f f 9 f 9 8 8 4 f u u 8 9 9 V e.[ f w 8 > . + f f w 8 8 f f 9 d f 4 f u ",
"8 4 m  .D f f f 9 8 f f > . & 4 8 q f 8 4 u w w d ..Q r 8 9 4 8 f 8 8 8 w 4 9 D d f w f > . @ 8 8 8 8 8 f f f f 4 8 w w ",
"4 5 7 p.2.9 9 9 f f 4 4 -   o 4 f 8 8 4 w u 4 w / i.2.4 q u 4 9 8 b 8 q 8 q q 8 f 8 8 8 - . + 4 4 q f f 9 8 f 8 8 u 8 9 ",
"+ + @ 3 # + + + + + + & X X . + & + + + + + + + @ % # + + + @ + @ + o + + + + + o & + + .   . + + & & @ & + + o + + & + ",
".   X X   . .   . . X   O   . . . X O .   . . .   . O X O X   . O   . .   X . . . . . . X X . . . . . .   . . O .   X X ",
": : : : , > : > : : ; > ; : > : > : : : > , 4 > > > > ; o . X - 1 =.$., : : > : > : > > : > > > > > : : > > > > : : 1 %.",
"8 q 8 8 4 4 f u 4 8 w 8 f f 8 8 9 4 f f y f w 8 8 q 8 f :   o 9 7 w.@.M q 8 8 q f 8 8 w 8 f 8 r f 4 f 9 8 8 8 q 8 9 Y u.",
"f f 4 8 f b 4 4 w f 8 w 8 q 4 9 b ` Q d u 4 8 q f f f 8 ;   & g 9 W b q 4 f 8 f f q q f f f f f f f b [ K q u 4 8 8 u Y ",
"f 8 8 9 8 4 4 h 8 4 8 8 w f 9 w V 5.X.f 8 f 8 f f 8 4 8 :   + G 8 4 4 4 8 8 8 8 8 w 4 8 f 8 q q w 8 B u...f 8 w v 4 w 8 ",
"8 8 9 8 w u w 9 4 f w 8 f 8 4 8 b B b 8 w f f q 8 4 4 w > X @ 4 4 8 8 8 4 w f f f q 9  .Q f 8 8 w 8 f C h 8 u 8 8 8 b 8 ",
"8 8 9 8 u 8 8 4 f q 4 b u 4 9 9 9 8 8 q w 8 w f 8 q b 8 - . o 4 9 q 8 4 f 9 f w 8 8 / y.2.8 8 f 4 w w w w h u w 9 f u 8 ",
"+ + & + + o & & + o @ + + + + + + + + & + + + + + & + +       + + + + + + & + + + + * 3 # & + + @ + + & + + + + + & + + ",
". . .     X O . . O X   . . . X . . X . . . . .   . . .   . . . . . .   X . . . . . . . . . . .     X X . .   .   . .   ",
"> > ; > : > : > : : , , + X . - : : : : , : > > : > > > > > > > : ; > > > : : , > > , ; + . . - : > : : : > : : , : > , ",
"8 8 f 8 8 8 b 4 8 8 8 4 : . @ w f f 8 f 8 8 8 f 8 f f w f f 4 8 8 w 8 8 8 9 9 9 f 8 f 8 ; . * 8 f f f 4 f u 9 u f w 8 9 ",
"8 f 8 8 9 9 8 w 8 4 4 u > . + w f f f q 9 ' D e f f 9 8 8 8 8 8 q q 8 8 f f x ..W f q 8 : . + w 8 8 8 9 8 8 v X.W 9 9 9 ",
"w 8 9 8 f 8 w 8 4 u w f > . + 4 8 f 8 8 D e.X.9 f 8 f 8 8 q w 8 9 8 8 q f r V 5.{ e 8 4 : . + f w f f w 4 f D e.[ f 8 9 ",
"w u 4 8 q f w 4 9 9 8 8 >   + e f 8 8 9 b S 5 f f f f 4 q 8 f f q 8 G #.K f f K b f 8 9 , . + 8 w u 8 f b q d S b 8 8 9 ",
"h 8 8 8 9 b 8 8 f 8 w w - . @ w w w f 4 4 8 8 q f 8 8 b q 8 8 f f w I t.,.8 q f 8 8 8 9 - O + 5 4 4 w e 8 8 9 8 8 f 9 4 ",
"o + + + + + + + & + + + X X   + + & + + + + + & & + & + + + + + & + @ % 3 + * + + o + + . . O O + + + @ + + + + + + + @ ",
"  . .   O . . X   O .   O   .     .   . . . X . . . . X . . . . . .     . . . X   . X   .   . .   . O . X O . . . .   . ",
"4 > - , 2 =.^ ; : > : > : ; > > , : , > > > : > > : : : + . O ; : : : > > > > > > > , , 5 > > > : > > : , ; , > > : : , ",
"w > 9 f W 0.-.8 f f f f 8 u 9 4 4 w 9 9 u 4 f f 8 f f 8 : . + 8 8 w 8 q q f f f 4 8 8 8 f f q 8 8 8 9 9 8 w w w 4 f 9 4 ",
"9 u u 8 f G b 8 8 8 f 8 b [ 7 8 b 9 8 4 w f b ..W f 8 f > . + q f 8 w q 4 8 8 f q 9 w 8 8 w 4 8 f 9 9  .K 8 9 8 u w 4 w ",
"9 4 f 9 w 8 8 9 4 w w u V 7.[ f f f 8 f f f D e...9 8 w : . + f q 8 8 8 f f f f 8 f w 8 8 9 8 q 9 w N 5.] 9 q 9 4 w h 8 ",
"d f f w 4 8 f 9 w w w 4 4 D n f f 8 8 f 8 f 9 D d f 4 8 :   & q 8 8 w 8 f 8 9 q 8 8 8 q 9 8 8 f 8 f f D b y f 4 w w w f ",
"4 8 f 8 4 9 8 9 u 4 4 w 9 8 w 8 f w e w f f f 8 8 8 4 w - O + 4 w 4 w u 8 9 8 8 9 f 9 f 8 f f 8 w u 4 u w q 8 8 q w 8 8 ",
"+ & + & + & + + + + + + & + + = + + + + + + + + + + & + O O   + + + + + + + o + + + & + & + + + + + + + + + + & + + o + ",
"O . . . .   . . . . . . . . X .   . . . X . . . . . . . X .       . . . X X   . . . . . . . .     . .   .   O . . . . . ",
"> : : : > > : > > > > : + . . - > > : : : - : > > > : : > : > ; : ; : : > > > > > > : : + . . - 2 *.^ > : , : , : : , : ",
"w 4 8 8 9 w 8 q 8 4 w 8 ,   + 9 u e 8 w f 8 q f f f 8 f 8 8 w 4 4 w 4 d f q 8 9 f w 8 w - X + q K w.@.f f f 8 9 8 8 8 8 ",
"4 w q f 8 w d  .K q f 8 > . + f w 4 f 8 f 8 8 f 4 f 9  .Q f 8 8 w u 9 f f 8 h X.K 8 8 f > . + 8 9 D b d f 8 q 4 8 9 f 8 ",
"q 9 8 8 f f D 0.[ f 8 w > . & 4 q 8 f f 8 f 4 f f f D 0.[ w f e 9 9 w w f f K 6.[ f f f : . + 8 f f f 8 f f f q f d f q ",
"v +.B w 9 f 9 N b f 8 q > . + f 8 8 8 f v ..K 8 8 9 b B 9 8 f f 8 8 f 8 8 w w V 9 f f f :   + u f f f 8 f f 8 f 9 X.D f "
};
