/* XPM */
static char *_4b0148817d4464b991521b9c4011454mJCUnCDO1kOOZRz3[] = {
/* columns rows colors chars-per-pixel */
"60 60 192 2 ",
"   c None",
".  c #010203",
"X  c #0C0000",
"o  c #060805",
"O  c #03070B",
"+  c #030B0C",
"@  c #0B0B0D",
"#  c #0B0C10",
"$  c #0E1215",
"%  c #071418",
"&  c #131918",
"*  c #240B04",
"=  c #1E1F23",
"-  c #192527",
";  c #1A3B39",
":  c #292E2F",
">  c #272E2C",
",  c #27302F",
"<  c #262E31",
"1  c #292E31",
"2  c #293031",
"3  c #273939",
"4  c #393939",
"5  c #4F281A",
"6  c #6E2502",
"7  c #6E2901",
"8  c #642B09",
"9  c #692A09",
"0  c #722601",
"q  c #722902",
"w  c #732C0B",
"e  c #7A2C09",
"r  c #733411",
"t  c #4F392C",
"y  c #643F27",
"u  c #39433B",
"i  c #424335",
"p  c #494037",
"a  c #604323",
"s  c #7E542E",
"d  c #6D4C3B",
"f  c #243C40",
"g  c #2D3F41",
"h  c #18595B",
"j  c #214141",
"k  c #364241",
"l  c #3A4344",
"z  c #196160",
"x  c #646564",
"c  c #7A7468",
"v  c #747973",
"b  c #852A07",
"n  c #893609",
"m  c #81330F",
"M  c #863915",
"N  c #8C3A15",
"B  c #873615",
"V  c #933B13",
"C  c #9C4619",
"Z  c #A84A17",
"A  c #A64B1B",
"S  c #A84C1C",
"D  c #A54B17",
"F  c #824A2F",
"G  c #9C593C",
"H  c #A75B39",
"J  c #AF633E",
"K  c #B3633E",
"L  c #BD663C",
"P  c #B3693D",
"I  c #BD693D",
"U  c #C1643B",
"Y  c #C56A3D",
"T  c #CA6A3E",
"R  c #C86837",
"E  c #D66C3D",
"W  c #D86C3E",
"Q  c #CD703E",
"!  c #D3733E",
"~  c #DE743E",
"^  c #C9662F",
"/  c #E3723B",
"(  c #9C7059",
")  c #8F6554",
"_  c #AD6544",
"`  c #B56643",
"'  c #BA6643",
"]  c #B56942",
"[  c #BA6748",
"{  c #B5694C",
"}  c #BA6A43",
"|  c #AC745E",
" . c #AB7056",
".. c #AD7C64",
"X. c #AA7A6C",
"o. c #B17260",
"O. c #C26742",
"+. c #C56A42",
"@. c #CB6D43",
"#. c #D26E44",
"$. c #D66F45",
"%. c #CC7142",
"&. c #C67248",
"*. c #DC7542",
"=. c #D57641",
"-. c #E97E47",
";. c #EA7F4A",
":. c #E37B49",
">. c #F47F49",
",. c #4A807D",
"<. c #5D807E",
"1. c #FB823F",
"2. c #BB927A",
"3. c #DC824D",
"4. c #DF8050",
"5. c #ED814B",
"6. c #EE8045",
"7. c #F48246",
"8. c #FB8344",
"9. c #F4814A",
"0. c #FB8449",
"q. c #F78A4C",
"w. c #F9894D",
"e. c #F78850",
"r. c #FCAF6B",
"t. c #EEB56E",
"y. c #FEB167",
"u. c #FEB169",
"i. c #F6B575",
"p. c #FEC579",
"a. c #FEC97C",
"s. c #FEC777",
"d. c #607E88",
"f. c #359394",
"g. c #528C90",
"h. c #5F989F",
"j. c #4C908A",
"k. c #628286",
"l. c #64878B",
"z. c #6B9496",
"x. c #65959A",
"c. c #6C949C",
"v. c #6A9999",
"b. c #729297",
"n. c #71949C",
"m. c #6EA997",
"M. c #5C9CA4",
"N. c #579CA3",
"B. c #6C94A1",
"V. c #639EA3",
"C. c #649EA8",
"Z. c #57A2AA",
"A. c #59B9BC",
"S. c #61A1AA",
"D. c #65B6B7",
"F. c #56BFC5",
"G. c #59C2C6",
"H. c #53C5CA",
"J. c #5BCDCD",
"K. c #50C6C6",
"L. c #5DCED3",
"P. c #5BD3D6",
"I. c #64CACE",
"U. c #70C9C9",
"Y. c #5DE1DE",
"T. c #55EFED",
"R. c #5BEDED",
"E. c #5CE3E6",
"W. c #53F2EE",
"Q. c #5CF2E9",
"!. c #54EFF1",
"~. c #4EF6F6",
"^. c #4AFCF5",
"/. c #46FFFE",
"(. c #4CFBFB",
"). c #4AFBF8",
"_. c #54F3F2",
"`. c #5BF5F3",
"'. c #56F9F5",
"]. c #53F6FA",
"[. c #52FAFA",
"{. c #58F9F3",
"}. c #64E8E7",
"|. c #68F0F0",
" X c #B39B8F",
".X c #B69B94",
"XX c #A5A6A5",
"oX c #A6A7A7",
"OX c gray71",
"+X c #CFA28C",
"@X c #CCB5AA",
"#X c #DCDCDC",
/* pixels */
"                                                                      & o o ~.W._.~.~.8 8.6.t.A ' 9                     ",
"                                                                    . E.[.].(.x.x.x.5 0.8.a.K S U 6 6                   ",
"                                                                . O (.M.n.c.z.'.c.d 9.8.a.9.J Z E 0 0.q                 ",
"                                                            O . ~.].L.x.x.c.c.R.v ^ 8.8.a.8.K Z ! 0 >.} 8               ",
"                                                          + ~.R.c.c.D.Z.b.b.. . * ^ 8.a.q 8.K Z E 0 0.} 8 j             ",
"                                                        j.L.J.F.x.B.d.j.& & : : 8 / 8.a.6 0.' Z E 0 8.` 8 j.<.          ",
"                                                      j A.c.c.C.E.& = 1 1 1 1 > V 8.8.a.q 0.+.Z E 0 0.' q a G.-         ",
"                                                    . }.x.c.c.c.O 1 1 1 1 1 1 : V 0.p.P 0 0.+.Z E 6 0.%.q a x.|.o       ",
"                                                    O ^.A.x.B.. 1 2 1 1 1 < 1 6 8.8.p.` 6 0.+.D U 6 >.#.0 / m./..       ",
"                                                  . ~.c.L.M.. 1 < 1 1 1 1 2 > 6 8.>.p.` 0 0.+.A L 0 >.$.0 ~ c x.]..     ",
"                                                  + `.v.n.. 1 1 1 : 1 1 1 < < 9 8.8.p.I q 0.+.Z ' 6 8.$.0 :.c n.`.+     ",
"                                                . (.z.x.l.+ 1 1 1 1 1 1 1 1 5 b 1.w.i.' 0 0.+.D T 0 0.#.0 / ) b.c.(..   ",
"                                              x f.F.P.I.g 1 1 1 1 : 2 1 1 < q 8.1.y.] #.6 0.L Z W 6 8.#.0 9.M U.L.A.f.x ",
"                                              . (.c.M.g.- 1 1 1 1 1 1 1 1 < 7 8.8.y.] #.0 8.K D W 6 8.#.0 >.N v.M.c.(.o ",
"                                              . /.c.c.d.= 1 1 1 1 1 1 1 1 < 7 8.8.y.P #.0 8._ A W 6 >.#.0 >.V X c.c.[.o ",
"                                              . (.c.n.d.= 1 1 1 1 1 1 1 < < 0 8.7.y.` ] 0 >.J A U 0 >.$.0 9.N X c.c.(.o ",
"                                            4 |.x.x.B.@ 1 : 1 2 1 1 1 1 : < 7 8.! 6 6 0 q w.` A U 0 >.' q 5.B X c.x.x.~.",
"                                            4 `.'.[.}.@ 1 1 1 1 1 1 1 1 1 < 6 w.V 7.0.7.6 q q A U 0 1.L q 9.B X Q._.!._.",
"                                            4 `.z.c.B.# 1 1 1 1 1 < 1 1 1 < 6 e.V %.{ 2.6.:.=.C C 6 R H 0 ;.B X n.c.x.T.",
"                                            4 `.c.x.c.# 1 1 1 1 1 1 1 1 1 < q 0.R m e  .' { 2.%.T E $.=.0 V q X c.B.z.~.",
"                                            4 {.b.c.n.# 1 1 1 1 1 1 1 1 < < 6 8.8.C q 0 q 6 _ ]  X` I ' e.w.V 9 b.n.c.!.",
"                                            4 `.^.(.W.+ 1 1 1 1 1 : < 1 < : 6 8.8.y.P 7 6 q q 7 ] ' ] XX` ' :.e '.(.(._.",
"                                            4 {.c.c.c.@ 1 1 1 1 1 1 1 1 1 < 7 1.8.u.] #.q 8.q 0 q q 7 ` } o.X.0 b.c.c.!.",
"                                            4 `.c.v.n.@ 1 1 1 1 1 : 1 1 1 < 7 1.8.u.P #.7 7.K S b q 0 q 7 e ' 0 b.B.c.!.",
"                                            4 {.z.B.c.@ 2 1 1 1 1 1 1 1 1 < 7 1.8.y.Q ' 0 >._ S L 6 0.q q q q X n.c.c._.",
"                                            4 `.P.L.I.# 1 1 1 1 1 1 < 1 1 < 7 8.8.y.Q } 0 >._ A U 0 0.' q -.m X I.L.L._.",
"                                            4 `.Z.V.v.@ 1 1 < 1 1 1 1 1 1 < 6 1.8.y.} p 0 0.K S #.6 >.' q 5.M X V.M.M._.",
"                                            4 `.z.n.c.# 1 1 1 1 1 1 1 1 : < 7 8.8.y.p oXu 8.K S E 6 8.' q 5.M X c.c.c.W.",
"                                            4 `.c.c.c.@ 1 1 1 1 1 1 : 1 < < 7 1.8.y.t oXl 0.` A E 0 8.' 0 >.N X c.c.z.~.",
"                                            4 `.x.c.c.@ < < 1 1 1 1 1 1 2 < 7 1.8.y.u oXl 0.` A E 0 0.[ 0 9.V X B.c.B.~.",
"                                            4 `._.].R.@ < 1 1 1 1 1 1 1 1 < 7 8.8.y.] k 0 0.R S E 6 8.#.0 >.N X `.`._.T.",
"                                            4 `.c.c.c.@ 1 1 < : 1 1 1 1 < < 7 8.8.y.] k 0 >.+.S T 6 8.#.0 >.N X c.c.z.!.",
"                                            4 `.n.c.c.+ 1 1 < 1 1 1 1 1 1 < 7 1.8.y.%.k 0 0.Y S U 6 >.#.0 >.B X n.v.c._.",
"                                            4 `.z.c.c.@ 1 1 1 1 1 1 1 1 1 < 7 8.8.y.%.k q 0.+.S U 6 8.L 0 ;.M X n.B.x._.",
"                                            4 `.~.^.W.@ 1 1 1 1 1 1 1 1 1 < 7 1.8.y.P u q 0.Y Z #.0 0.' 0 >.V X ]./.(._.",
"                                            4 `.c.c.c.@ 1 1 1 1 1 1 1 1 < < 7 1.8.y.P u 0 0.+.A E 0 8.' 0 >.V X c.c.c._.",
"                                            4 `.c.c.c.# 1 1 1 1 < 1 1 1 1 < 7 7.8.y.i XXl 7.+.S W 6 >.U q 9.N X c.c.x._.",
"                                            4 `.z.c.c.@ 1 1 1 1 1 1 1 1 1 < 7 1.>.y.i XXl 0.` S $.6 >.$.0 9.N X B.B.c._.",
"                                            4 `.H.K.G.@ 1 1 1 1 1 1 1 1 1 < 6 1.8.y.s v t 0._ D T 0 8.#.q >.N X G.K.K._.",
"                                            4 {.M.M.C.@ 1 1 1 1 1 1 1 1 1 < 7 8.8.y.] &.0 7.` Z U 0 8.' 0 -.B X S.V.M._.",
"                                            4 `.c.c.n.@ 1 1 1 1 1 1 1 1 < < 7 1.8.y.P #.q 0.Y A U 6 0.' q 5.B X n.c.z.~.",
"                                            4 `.z.v.c.# 1 1 1 1 1 1 1 1 1 < 7 1.8.y.@.#.0 0.+.A L 0 8.` 0 *.q q n.z.x._.",
"                                            4 `.c.x.v.@ 1 1 1 2 : 1 1 1 : < 7 8.8.y.%.` 0 8.+.Z L 6 8.6 0 n 9.0 0 x.x.W.",
"                                            4 `.T._.E.@ 1 1 1 1 1 1 < : < < 7 8.8.y.#.} 6 >.J A b e e ;.7.;.{ ` 0 R.T.!.",
"                                            4 ].c.z.c.# < 1 1 1 1 1 1 , 1 < 7 0.0.u.%.H 7 ~ n n :.4.5...` o. .H y v.B._.",
"                                            4 `.c.c.n.+ 2 1 2 1 1 1 1 1 1 < 6 8.~ r w 3.:.3.} R 2.{ [ o.w e w * B.c.x.W.",
"                                            4 `.z.v.c.@ 1 1 1 1 1 : 1 1 1 < 6 w.V 7.>.L ' ]  XI { q q 0 7 0 q X B.c.c.!.",
"                                            4 `.^.(.R.@ 1 < 1 1 1 1 1 1 1 < 7 e.V =.L XX[ ] ` 6 0 q q q q 5.B X _.(.(._.",
"                                            4 `.c.c.c.@ 2 2 1 1 1 1 2 1 1 < 6 q.V %.' ] q q 7 q 7 q 0.' 0 >.V X c.c.c._.",
"                                            4 `.c.c.c.@ 1 1 1 1 1 1 1 1 1 : 6 8.E q 7 7 q q 7 A E 0 >.#.0 0.N X c.c.c._.",
"                                            4 `.c.B.c.# 1 1 1 < 1 1 1 : , 1 6 8.0.C q 7 7 0.K A E 0 0.#.0 5.M X c.n.x.].",
"                                            OXh f f g o $ $ $ $ $ $ $ $ $ $ 0 8.0.r.%.+.7 0.@.Z T 6 0.@.0 5.M X f 3 3 z ",
"                                              #X#X#X#X#X#X#X#X#X#X#X#X#X#X#Xq 8.8.u.} #.q 0.+.Z L 6 8.' 0 / +X#X#X#X#X#X",
"                                                                          ( q 8.8.y.] #.q 0.+.A U 6 8.' q F             ",
"                                                                            q 8.8.y.] @.q 0.+.Z U 6 0.9                 ",
"                                                                            q 8.8.y.] %.q 0._ Z U 6 q                   ",
"                                                                            q 8.8.u.P } q 0.K S w G                     ",
"                                                                            q 0.8.u.] ` q 0.H )                         ",
"                                                                            q 8.8.u.P [ 0 C @X                          ",
"                                                                            q 0.8.y.] 6                                 "
};
