/* XPM */
static char *_dc2f55a73f04e24d27dbbf460ae2ca8Ar0rGFrDIZkkCj3e[] = {
/* columns rows colors chars-per-pixel */
"60 60 180 2 ",
"   c None",
".  c #010202",
"X  c #0E0000",
"o  c #000807",
"O  c #01060C",
"+  c #010A0C",
"@  c #0A0C0B",
"#  c #06110B",
"$  c #000910",
"%  c #041213",
"&  c #0A1214",
"*  c #0E1816",
"=  c #05151B",
"-  c #141316",
";  c #131719",
":  c #18161A",
">  c #111B1E",
",  c #1C1C1C",
"<  c #181415",
"1  c #1F201B",
"2  c #21211B",
"3  c #0A1D21",
"4  c #032322",
"5  c #1F2225",
"6  c #1F2827",
"7  c #093135",
"8  c #232423",
"9  c #28222A",
"0  c #2A2929",
"q  c #2C2C30",
"w  c #363F3E",
"e  c #393E3B",
"r  c #363B34",
"t  c #641E05",
"y  c #5F270C",
"u  c #5D2B0D",
"i  c #5C2C12",
"p  c #5C3115",
"a  c #583319",
"s  c #6E2401",
"d  c #6D2A03",
"f  c #63270A",
"g  c #642B0D",
"h  c #6D2B09",
"j  c #622206",
"k  c #712601",
"l  c #712901",
"z  c #702C09",
"x  c #632D12",
"c  c #413A35",
"v  c #423F38",
"b  c #3B413D",
"n  c #373F42",
"m  c #3A3F42",
"M  c #3C4240",
"N  c #324242",
"B  c #AE623E",
"V  c #B3633D",
"C  c #BA653E",
"Z  c #BC693E",
"A  c #C1683D",
"S  c #C1663A",
"D  c #D26D3F",
"F  c #AE6846",
"G  c #AF6B4C",
"H  c #AE6542",
"J  c #B66643",
"K  c #BA6643",
"L  c #B56945",
"P  c #BA6844",
"I  c #B66649",
"U  c #B96649",
"Y  c #B36A4B",
"T  c #BB6A49",
"R  c #AE6C51",
"E  c #B26F54",
"W  c #C26741",
"Q  c #C16942",
"!  c #CF6E44",
"~  c #CD6F49",
"^  c #D26E44",
"/  c #D16F49",
"(  c #CD7045",
")  c #CD714A",
"_  c #D17046",
"`  c #D17049",
"'  c #EF7E46",
"]  c #EA834B",
"[  c #F68445",
"{  c #FB8446",
"}  c #F5844B",
"|  c #FB8549",
" . c #F68849",
".. c #F88849",
"X. c #ED8550",
"o. c #EE8A58",
"O. c #F48551",
"+. c #F08851",
"@. c #F98351",
"#. c #57969D",
"$. c #5E969C",
"%. c #5E9A9E",
"&. c #699597",
"*. c #63959C",
"=. c #6C949B",
"-. c #62999E",
";. c #68979B",
":. c #7C9597",
">. c #72949A",
",. c #719496",
"<. c #59A19E",
"1. c #4F9DA1",
"2. c #5696A0",
"3. c #549CA3",
"4. c #5C9CA3",
"5. c #5A9EA9",
"6. c #6395A2",
"7. c #6D94A1",
"8. c #629BA4",
"9. c #659EA9",
"0. c #55A1A6",
"q. c #5AA3A5",
"w. c #55A5AC",
"e. c #5CA3AB",
"r. c #54A8A8",
"t. c #60A5AB",
"y. c #56C7CD",
"u. c #52CACB",
"i. c #58C5C2",
"p. c #4CD3CD",
"a. c #53D2CD",
"s. c #5DD0CE",
"d. c #4DD3D3",
"f. c #46D2D3",
"g. c #51D2D3",
"h. c #58D4D6",
"j. c #54DCDA",
"k. c #5ADCDB",
"l. c #53D5D8",
"z. c #66D8D8",
"x. c #63D5D8",
"c. c #4DE2DC",
"v. c #5AE4DF",
"b. c #53E6E5",
"n. c #5EE4E5",
"m. c #54E9E7",
"M. c #59EAE7",
"N. c #59E7E9",
"B. c #56EEEE",
"V. c #57E9E9",
"C. c #5CEEEC",
"Z. c #55E6E9",
"A. c #58F1EF",
"S. c #56EFF1",
"D. c #5DEEF1",
"F. c #4EF6F6",
"G. c #4DFCF6",
"H. c #4FF7F9",
"J. c #4EFAF9",
"K. c #4CFAFA",
"L. c #54F5F3",
"P. c #5AF5F5",
"I. c #54F9F5",
"U. c #5AF8F7",
"Y. c #54F6F9",
"T. c #59F6F9",
"R. c #52F9FA",
"E. c #59F9F9",
"W. c #67E8E3",
"Q. c #63EBEB",
"!. c #61E3E3",
"~. c #70E4E1",
"^. c #B99F8E",
"/. c #B7A08E",
"(. c #AEA39D",
"). c #B7A196",
"_. c #BAA192",
"`. c #B0A29F",
"'. c #A5A6A8",
"]. c #A7A8A8",
/* pixels */
"                            & < < j.b.b.b.b.Z.b.b.- - -                                                                 ",
"                        8 8 d.a.d.K.t.e.t.e.t.q.F.f.p.p.8 8                                                             ",
"                    8 8 h.g.e.e.t.e.C.*.=.=.&.n.q.q.q.q.p.l.8 8                                                         ",
"                9 , x.k.Y.0.=.=.&.&.K.;.=.=.=.K.*.=.=.=.5.K.j.j.5 2                                                     ",
"              0 i.u.w.w.r.!.&.*.=.=.7 > > > > 7 >.=.;.=.n.w.w.w.y.u.0                                                   ",
"            @ ~.G.3.=.=.7.4.Q.+ $ O p x x x g g $ + O Q.1.7.;.=.2.R.W.@                                                 ",
"          < h.w.q.Q.*.=.&.= 4 i f f l l l d d k x g g 4 & &.=.>.Q.w.e.k.:                                               ",
"        ; k.e.&.=.8.A.= & u f d d l ] J J L J H d k k g g & & C.5.=.=.4.b.;                                             ",
"      , z.q.7.6.=.7.4 x g l l J ! k { K U K K T s } ^ k k g f 3 >.=.;.=.4.c.,                                           ",
"      + D.m.;.=.7.> y l l V B K ^ s { K T K K K k | ^ A V k k f > =.=.=.Z.I..                                           ",
"    < x.3.8.V.*.% g l ] ( U K K / k { C K K U P s | C / K ( / k g # =.S.4.6.v.*                                         ",
"    . N.2.=.8.O x k z | D K K ~ ^ s { K P P K P k { K ^ ~ ! ! k s h . 4.=.&.J..                                         ",
"  @ W.5.*.=.&.. l T d | ^ ( J ! Z s { K U ) U P k { K K / ^ ^ s ] s . &.=.=.4.n.+                                       ",
"  . P.-.=.&.& g l T s | W ` K ! K k { K ) ^ Z U k { K K ^ ! K s { s g & =.&.=.K..                                       ",
"2 s.w.n.V.&.. k V U k ..C ^ J ! J k { K ^ ^ K U k { K K ^ ^ K k { J d . &.N.N.q.h.8                                     ",
". P.*.4.q.= u k U U k ..V / ( ! K k { K ^ ^ P K l { K K K ^ T k { P k u = 0.q.&.J.o                                     ",
". L.$.=.7.. l T U U s ..K K ^ Z K k { K ^ ^ K K l | C P K ! P k { P T l . =.=.=.J..                                     ",
". L.6.=.;.. d U U K s ..C J ^ V J s { C ^ ^ K K k | K P P ^ ) s { K K l o >.=.=.R..                                     ",
"k.3.&.=.& u s U J P s | C J / K J s { K / Z ( J k { K U J ^ ^ s { K K s f @ &.=.9.c.:                                   ",
"Y.L.L.L.+ d ' J P P s | C K T K K s | ^ ^ C / P l { K K J ^ ^ k { K U J d . S.S.S.K..                                   ",
"P.e.9.8.. h | J U P s | C K K K K s [ ^ K K / K k | J K J ^ ^ s | W K K d . 9.8.9.H..                                   ",
"P.2.7.=.. z | J P P s  .K K P K K s { ^ K J ^ C s { K J K K C s ' W K K k . >.>.=.H..                                   ",
"Y.$.7.;.i s k k k k d k s s s s s s s s s d s k l k s k s s k s k k s s l g ,.=.;.K..                                   ",
"I.$.&.a o.| ' @.} ' [ } } } ..[ } } } } } } } ] } } } } } } } } ' } } } ..} x =.;.J..                                   ",
"T.C.L.i { S K A ^.K W K A Q ).J Q K W W Z _.T W Z W K W _.U A Z K W ).K Q A k D.D.K..                                   ",
"E.3.8.x ..K U U Y J L J U K G J K K K K K Y I K K K K K Y L P U J J Y K K L k 8.%.J..                                   ",
"R.$.=.:.t s s s s s s s s s s s s s k s s t s s s s s s s s s s s s s s s k :.>.=.K..                                   ",
"E.6.7.=.. d d d d k s d k l d l k s l l l l l l s l k l d l l k l l k l l X =.=.;.K..                                   ",
"I.$.=.=.. z ..K J T l +.D Z J P U d } / K K T _ k ..P P U P L l } K ( K l . =.>.=.K..                                   ",
"U.L.Y.R.$ d { J P U s | D ` K K K s { ^ K K K ^ k { J L P U K l { K ^ K d . P.P.E.K..                                   ",
"P.4.8.8.. h | K J U k  .J ( J K J k { D / K J ^ l { C J T K U d | ` ^ ! l . 8.-.8.K..                                   ",
"U.$.=.7.. k | C v I d ..C ( K K K k | S _ K ! ^ k { J P K J K k { D C ^ l . =.&.=.K..                                   ",
"U.$.&.=.. h | c ].e h | K ( ( P K k | K ! K ^ C l { J U ` K U k { D J _ k . =.=.=.K..                                   ",
"I.-.7.=.. h { M '.N h } C K ( P K k { K ^ / ^ K k { K J ^ K K l { D K ^ l . =.=.=.J..                                   ",
"L.L.P.P.+ h ' R m E d | K J ^ ! K k [ K C ^ ! P k { C L D T U s { D K ( l . D.P.T.K..                                   ",
"U.3.8.-.. k | K M U s ..C K Z / A k ' K J / ^ K k { K J ^ P U l { ^ ~ D k . 8.2.-.J..                                   ",
"P.*.=.=.o h | K b U s ..C J K ! K s { C U ^ _ K k { K J ^ K U l { ^ / K k . 7.=.=.K..                                   ",
"U.$.=.=.. d | J b I k ..C K U ! K k { K U ^ ^ K k { K L ^ K U s { W ^ K k . =.=.=.K..                                   ",
"U.$.&.&.. h { J b T k ..C P P ^ ) k { C U _ ^ T k { K J ! K L s { K / K k . &.&.=.J..                                   ",
"I.I.R.K.$ h { U M L s ..C U U Z / l { C P ( ^ K d { K / D ` U k { K / / k . R.R.J.K..                                   ",
"Y.2.*.-.. h | r ].b d } J K K U ^ k { K K ! ^ K k { J ^ ^ _ U k { K ^ / k . 6.&.$.K..                                   ",
"L.-.=.=.o d { b '.b h ..C K K U ^ k | W J / / K l ' K ! D D U s { K / K k . &.=.=.J..                                   ",
"P.-.=.=.o h | G w R d ..Z K K T ^ k { K K T Z L l { K ! Z ^ K l { K ! J k . =.=.=.R..                                   ",
"L.-.=.=.. d | C F J k | Z K K K ^ k ' C K U K J k { ! ^ K ^ U s { K K K k . =.&.=.J..                                   ",
"I.Y.P.L.O h { V K U s ..C J P P / s | K U U K K k { ^ W K ^ K s { Z K K k . L.Y.E.K..                                   ",
"I.3.$.*.. h { J P U s | C P K J ^ k { K P U K K k { ! K J ! ~ k [ K U J s . -.$.-.K..                                   ",
"P.$.7.&.. h { J T P k } C K K ( K k [ K P K K K k { ^ / K L ^ k { K U P d . =.=.*.J..                                   ",
"Y.$.=.=.f s s s k s s s s s k s s s k s s k s s k k k t s s s s k s s k l d >.;.=.K..                                   ",
"Y.-.&.x ] | {  .{ [ ' [ {  .[ { [ [ [ [ [ [ } | ' | | ' { [ { [ [ { [ { [ [ h =.=.K..                                   ",
"P.L.F.p ..Z J K (.I K Z K K (.L L C K K Z ).J K K K K W (.K K K K K (.K C Z s L.K.K..                                   ",
"R.2.*.g ..K K J L J I K K K G V K K K I K F J J K J K J L K I K J J I J U U l 6.7.J..                                   ",
"P.$.=.>.j s k s s d d s s s k s s k s s k k k s s k s k k k k k k k s s k k >.=.&.J..                                   ",
"T.-.=.&.. z k k s d d k l l l k l l k k k d l k l l l l l k l k k d d d l X =.=.=.K..                                   ",
"Y.4.=.&.. d } D ` K k O.K U ) T Q l @.K U ) U J k | K ( U / K k ..P P U k . =.=.=.K..                                   ",
"Y.R.F.G.+ h { K / K s | K J ! K T s { K ! ! ` C k { J ^ T ^ U d { K L J s . L.H.H.K..                                   ",
"T.#.*.*.o d { K ~ J s | Z K / J K k { K ! K ! U k { K K / ^ U s { K P J k . &.*.*.J..                                   ",
"T.$.=.&.. h | K / ^ k | Z ! K J K k { K ! K ^ K s { J J / K J k { C P J k . =.=.&.J..                                   ",
"T.-.=.=.. h | J K ^ s ..K ! C J I k | ! ^ K ! ! l | J J K J K s { K P U k . =.=.=.R..                                   ",
"E.6.=.=.. z } J L K s } ! L K J K k ' ^ K K K / k { Z P U K J k | C J U l . 7.=.=.K..                                   ",
". . . . . . z d l k X h s d l l k X l k k k d k X d k d l l k . k l l d . . . . . .                                     "
};
