/* XPM */
static char *result[] = {
/* columns rows colors chars-per-pixel */
"60 60 216 2 ",
"   c #7B345E",
".  c #6D2754",
"X  c #5A156E",
"o  c #530F74",
"O  c #551474",
"+  c #561976",
"@  c #56147A",
"#  c #59167D",
"$  c #561E79",
"%  c #5B1C7B",
"&  c #5A1974",
"*  c #621D78",
"=  c #681C6A",
"-  c #5C2373",
";  c #5B247B",
":  c #5A2C7E",
">  c #562479",
",  c #583677",
"<  c #6C276A",
"1  c #67396A",
"2  c #7A3561",
"3  c #63297D",
"4  c #64247C",
"5  c #763879",
"6  c #693477",
"7  c #745C4B",
"8  c #685458",
"9  c #725A55",
"0  c #684E5A",
"q  c #7C6A58",
"w  c #7F735F",
"e  c #58537C",
"r  c #604178",
"t  c #6F4E6B",
"y  c #566679",
"u  c #B91C13",
"i  c #AA1313",
"p  c #BC2318",
"a  c #8F323A",
"s  c #A42029",
"d  c #C2261C",
"f  c #C8352A",
"g  c #9A5723",
"h  c #BF4232",
"j  c #AA6426",
"k  c #BD7237",
"l  c #B06E33",
"z  c #DA4439",
"x  c #C57A3B",
"c  c #8A3257",
"v  c #A83859",
"b  c #853A6B",
"n  c #901F48",
"m  c #9C564C",
"M  c #954B52",
"N  c #954B52",
"B  c #894C52",
"V  c #AB5651",
"C  c #87715D",
"Z  c #866A50",
"A  c #A86943",
"S  c #BA6D41",
"D  c #8C4D6D",
"F  c #AB586C",
"G  c #887967",
"H  c #957B68",
"J  c #86696B",
"K  c #AA656B",
"L  c #B9746B",
"P  c #B36E70",
"I  c #D45052",
"U  c #E6564A",
"Y  c #E35044",
"T  c #C45475",
"R  c #D25562",
"E  c #C77F53",
"W  c #D38435",
"Q  c #CC8037",
"!  c #B38750",
"~  c #9E846C",
"^  c #948C74",
"/  c #958F6F",
"(  c #A48E74",
")  c #B4AB6C",
"_  c #D28945",
"`  c #E0995D",
"'  c #ECA45D",
"]  c #D7936D",
"[  c #C2A876",
"{  c #EAA469",
"}  c #F3AC67",
"|  c #F7B069",
" . c #CCF66A",
".. c #D0FF6A",
"X. c #5D1C85",
"o. c #5C1B85",
"O. c #631F83",
"+. c #5F2384",
"@. c #5C3281",
"#. c #5E3B84",
"$. c #62228D",
"%. c #642983",
"&. c #643382",
"*. c #6A3584",
"=. c #6C3B85",
"-. c #693A87",
";. c #652593",
":. c #6A2C9C",
">. c #672B96",
",. c #703E85",
"<. c #6E2FA1",
"1. c #6E31A3",
"2. c #7236AA",
"3. c #7539AD",
"4. c #7034A7",
"5. c #773BB1",
"6. c #793DB4",
"7. c #595381",
"8. c #6E438A",
"9. c #6F4B8C",
"0. c #72458A",
"q. c #734A8C",
"w. c #794B89",
"e. c #7A548E",
"r. c #774E93",
"t. c #765291",
"y. c #7A5694",
"u. c #7B5B94",
"i. c #7B5C95",
"p. c #5A6B82",
"a. c #7C6396",
"s. c #6F7496",
"d. c #7D42BB",
"f. c #7A43B4",
"g. c #7652AA",
"h. c #7968B4",
"j. c #746EAB",
"k. c #81588E",
"l. c #845D91",
"z. c #935D83",
"x. c #B15290",
"c. c #83669C",
"v. c #856A9E",
"b. c #886795",
"n. c #92749A",
"m. c #96799C",
"M. c #997D9D",
"N. c #947D84",
"B. c #9C50AA",
"V. c #8346BB",
"C. c #914FBB",
"Z. c #8955B6",
"A. c #896FA1",
"S. c #876FA0",
"D. c #8E79A5",
"F. c #8B73A3",
"G. c #917DA8",
"H. c #8147C1",
"J. c #834AC5",
"K. c #864DCA",
"L. c #8B4EC2",
"P. c #8354C5",
"I. c #5C9D87",
"U. c #659794",
"Y. c #668B97",
"T. c #5CA986",
"R. c #57B580",
"E. c #60A28D",
"W. c #9B829F",
"Q. c #9D9383",
"!. c #A19C82",
"~. c #ABAA8C",
"^. c #B5B798",
"/. c #9583AB",
"(. c #998BAE",
"). c #9B87A5",
"_. c #A28BA3",
"`. c #AE9EAA",
"'. c #A693A7",
"]. c #A196B0",
"[. c #B2A4AB",
"{. c #B7ACB3",
"}. c #BDB5B5",
"|. c #C9A888",
" X c #D9B693",
".X c #CFAE8F",
"XX c #E4BF9A",
"oX c #C3BDBA",
"OX c #DEB3A0",
"+X c #C0968C",
"@X c #BEC0A0",
"#X c #ECC59F",
"$X c #DBC7A3",
"%X c #C7C4BC",
"&X c #CDD1B0",
"*X c #FED6AB",
"=X c #F8D0A6",
"-X c #E8CAA7",
";X c #DFE1B9",
":X c #E1E1B9",
">X c #CDCCC1",
",X c #D1D3C4",
"<X c #DADDCC",
"1X c #D6D8C9",
"2X c #DCE3CC",
"3X c #DDE8C6",
"4X c #DEE3D1",
"5X c #E3E9CC",
"6X c #E5EBC6",
"7X c #E3EAD3",
"8X c #E5EBD7",
"9X c #ECF3DC",
"0X c #EAF1D5",
"qX c #EBF2D5",
"wX c #F1F9E1",
"eX c None",
/* pixels */
"eXeXeXeXeXeXeXeXeXeXeXeXeXeXeXeXeXeXeXeXeXeXeXeXeXeXeXeXeXeXeXeXeXeXeXeXeXeXeXeXeXeXeXeXeXeXeXeXeXeXeXeXeXeXeXeXeXeXeXeX",
"eXeXeXeXeXeXeXeXeXeXeXeXeXeXeXeXeXeXeXeXeXeXeXeXeXeXeXeXeXeXeXeXeXeXeXeXeXeXeXeXeXeXeXeXeXeXeXeXeXeXeXeXeXeXeXeXeXeXeXeX",
"eXeXeXeXeXeXeXeXeXeXeXeXeXeXeXeXeXeXeXeXeXeXeXeXeXeXeXeXeXeXeXeXeXeXeXeXeXeXeXeXeXeXeXeXeXeXeXeXeXeXeXeXeXeXeXeXeXeXeXeX",
"eXeXeXeXeXeXeXeXeXeXeXeXeXeXeXeXeXeXeXeXeXeXeXeXeXeXeXeXeXeXeXeXeXeXeXeXeXeXeXeXeXeXeXeXeXeXeXeXeXeXeXeXeXeXeXeXeXeXeXeX",
"eXeXeXeXeXeXeXeXeXeXeXeXeXeXeXeXeXeXeXeXeXeXeXeXeXeXeXeXeXeXeXeXeXeXeXeXeXeXeXeXeXeXeXeXeXeXeXeXeXeXeXeXeXeXeXeXeXeXeXeX",
"eXeXeXeXeXeXeXeXeXeXeXeXeXeXeXeXeXeXeXeXeXeXeXeXeXeXeXeXeXeXeXeXeXeXeXeXeXeXeXeXeXeXeXeXeXeXeXeXeXeXeXeXeXeXeXeXeXeXeXeX",
"eXeXeXeXeXeXeXeXeXeXeXeXeXeXeXeXeXeXeXeXeXeXeXeXeXeXeXeXeXeXeXeXeXeXeXeXeXeXeXeXeXeXeXeXeXeXeXeXeXeXeXeX,XeXeXeXeXeXeXeX",
"eXeXeXeXeXeXeXeXeXeXeXeXeXeXeXeXeXeXeXeXeXeXeXeXeXeXeXeXeXeXeXeXeXeXeXeXeXeXeXeXeXeXeXeXeXeXeXeXeXeXeXeX%XeXeXeXeXeXeXeX",
"eXeXeXeXeXeXeXeXeXeXeXeXeXeXeXeXeXeXeXeXeXeXeXeXeXeXeXeXeXeXeXeXeXeXeXeXeXeX3XeXeX4XoX_.b.y.q.-.=.=.w.l.m.n.8XeXeXeXeXeX",
"eXeXeXeXeXeXeXeXeXeXeXeXeXeXeXeXeXeXeXeXeXeXeXeXeXeXeXeXeXeXeX<X'.<XeXeXeX1Xl.%.c.G.(.(.(.(.(.(.(.(.(.(.(.0.D.q.G.eXeXeX",
"eXeXeXeXeXeXeXeXeXeXeXeX1X{.oX8XeXeXeXeXeXeXeXeXeXeXeXeXeX).e , =._.%X'.u.(.(.D.D.c.y.0.0.y.l.S.F./.(.(.(.G.G.(.(.F.5XeX",
"eXeXeXeXeXeXeXeXeX>X*.>.d.J.H.3.>.X.4 ,.G.,XeXeXeXeXeXk.  - M x V X t /./.l.S.G.q.(.(.(.(.(.(.(.(.(.(./.c.q.-._.{.oX,XeX",
"eXeXeXeXeXeXeXeX,.6.K.K.K.J.L.H.3.H.K.K.K.V.>.% k.>X2 m M W W x c , y y $ r.-.&.%.% ; ; ; %.-.q.t.).eXeXeXeXw.eXeXeXeXeX",
"eXeXeXeXeXeX>X;.K.K.V.%.K ] ] { { K o ;.$.X.$.2.6.N W W S < 7.I.T.y - : %.y.r.-.q.&.q.q.y.A./.(./.c.=.3 _.eXn.eXeXeXeXeX",
"eXeXeXeXeX_.3.K.6.D { | | | L * 6.J.K.K.K.K.K.J.= W A * s.Y.p.2 k W M 8.a.a.&.-.y.D.(.(.(.(.(.(.(.(.(.u.(.c.; %XeXeXeXeX",
"eXeXeXeX0.V.6.5 { { x x E $.J.K.K.K.K.K.K.K.K.K.M < g.j.6 N m 2 : 6 9.t.9.=.&.; O b.y.r.y.S./.(.(.(.(.c.(.(.A.G.*.<XeXeX",
"eXeXeX+.3.D ` l ! 6XeX<X1.K.K.K.J.4.5.K.K.K.K.K.o f.3 k x $ =.t.t.i.i.a.a.a.a.a.a.; b.eXeXeXeXeXeXl.0.i./.(.D.(.(.S.m.eX",
"eXeX@ D k l :XeXeXeXeX%.K.K.K.4./ .. .J K.K.K.J.;.m 7 Q X , ~ 8 8.i.a.i.t.8.&.@.9.a.*.D.0.eXeXeXeXeXeXeX{.)._.%X{._.b.l.",
"oX. g .XeXeXeXeXeXeX%XJ.K.K.K./ ...... .6.K.K.3.x l |.Q Q 9 *X0 #.: # + r i.a.a.a.i.-.S.(.G.q.eXeXeXeXeX8XeXoXeXeXeXeXeX",
". &XeXeXeXeXeXeXeXeX*.K.K.K.3. .......) V.K.9 1 W Z #XB - |.#Xr #.-.8 8 #.+ $ > 9.a.a.q.(.(.(.c.eXeXeXeXeXeX`.eXeXeXeXeX",
"eXeXeXeXeXeXeXeXeXeX2.K.K.K.H.G  . .G o.o.V.H  Xl Z z.+ + 5 t #.t ~ *X9 #.#.#.@.u.: $ + (.(.(.(./.l.eXeXeXeXn.eXeXeXeXeX",
"eXeXeXeXeXeXeXeXeX9X6.2.;.J.K.H.1.2.<.d.:.I m .XO : #.#.#.#.#.> t *XH r #.#.#.#.: 9.a.9.%.-.(.(.(.(.0.eXeXeX_.eXeXeXeXeX",
"eXeXeXeXeXeXeXeXeX7Xm.9X7X6.J.1.2.%.I I Y I c : #.#.: : #.#.#.#.#.- r #.#.#.#.#.8.#.@.a.v.(.&.y.(.(.(.&.eXeX1XeXeXeXeXeX",
"eXeXeXeXeXeXeXeXeXeXeXeXeX1X4X>X&Xf U U 9  X% &.#.#.# H.;.$ #.#.#.&., 8 8 #.#.#.#.#.#., 8.(.(.F.$ /.(.D.0.5XeXeXeXeXeXeX",
"eXeXeXeXeXeXeXeXeXeXeXeXeXeXeXeXf U U U U 7 @.$ @ $ # K.K.Y., @.#.#.5 *X( , #.#.@.7.#.#.0.b./.(.(.-.l.(.(.8.eXeXeXeXeXeX",
"eXeXeXeXeXeXeXeXeXeXeXeXeXeX5Xh U U U d n o.6.K.H.  + K.K.P.h.+.#.#.$ 0 #.; < n @ : #.-.0.eX1Xc.(.(.c.=.F./.[.eXeXeXeXeX",
"eXeXeXeXeXeXeXeXeXeXeXeXeXd z U Y p s $.J.K.K.K.K.2   6.K.P.j.j.@.#.@ + $.U U d eX<X0.: n.eXeXeX>X/.(.r.3X).r.eXeXeXeXeX",
"eXeXeXeXeXeXeXeXeXeXeXeXeXz Y u P O.J.K.6.$.2 K $.:.x + :.K.K.h.; : 5.K.T U Y ] eXeXeX{.W.eXeXeXeXeX2X].{.eXeX7XeXeXeXeX",
"eXeXeXeXeXeXeXeXeXeXeXeX$Xh $X[.2.J.; L } | | | | { X - d.# 6.K.@ 4.K.K.U U f 9XeXeXeXeXeXeXeXeXeXeXeXeX6XeXeXeXeXeXeXeX",
"eXeXeXeXeXeXeXeXeXeXeXeXeXeXeX$.d.F | | | | | | | | L 4.K.K.6.@ 6.<.K.x.U U u eXeXeXeXeXeXeXeXeXeXeXeXeXeXeXeXeXeXeXeXeX",
"eXeXeXeXeXeXeXeXeXeXeXeXeXeXb.J.D | | | | k j | k ! l a H.K.K.K.o.o.K.R L.U u eXeXeXeXeXeXeXeXeXeXeXeXeXeXeXeXeXeXeXeXeX",
"eXeXeXeXeXeXeXeXeXeXeXeXeXeX;.$.} | | | j 0X6Xj qXeXeX9X%.K.P.K.H.X   6.B.U d eXeXeXeXeXeXeXeXeXeXeXeXeXeXeXeXeXeXeXeXeX",
"eXeXeXeXeXeXeXeXeXeXeXeXeXM.L.L | | | j 9XeXeX0XeXeXeXeX7Xp.h.K.J.m N * I U z $XeXeXeXeXeXeXeXeXeXeXeXeXeXeXeXeXeXeXeXeX",
"eXeXeXeXeXeXeXeXeXeXeXeXeX;.:.| | | k 0XeXeXeXeXeXeXeXeXeXM.h.J.3.  c * T x.U d eXeXeXeXeXeXeXeXeXeXeXeXeXeXeXeXeXeXeXeX",
"eXeXeXeXeXeXeXeXeXeXeXeXn.K.K _ } _ :XeXeXeXeXeXeXeXeXeXeXeX*.d.*.O %.<.K.C.U z D ,X9XeXeXeXeXeXeXeXeXeXeXeXeXeXeXeXeXeX",
"eXeXeXeXeXeXeXeXeXeXeXeX$.<.' [ ' [ eXeXeXeXeXeXeXeXeXeXeXeXeX9XeX`.>.K.L.R T U = @.o eXeXeXeXeXeXeXeXeXeXeXeXeXeXeXeXeX",
"eXeXeXeXeXeXeXeXeXeXeX[.H.K j ;Xj eXeXeXeXeXeXeXeXeXeXeXeXeXeXeXeXeX0.H.K.B.L.I ; #.w.eXeXeXeXeXeXeXeXeXeXeXeXeXeXeXeXeX",
"eXeXeXeXeXeXeXeXeXeXeX4 ;.W 5XeX$XeXeXeXeXeXeXeXeXeXeXeXeXeXeXeXeXeX2X$.K.K.B.& #.2 -XeXeXeXeXeXeXeXeXeXeXeXeXeXeXeXeXeX",
"eXeXeXeXeXeXeXeXeXeX5X4.] [ eXeXeXeXeXeXeXeXeXeXeXeXeXeXeXeX`.3 ; 7.>.: X.2.$ #.-.p eXeXeXeXeXeXeXeXeXeXeXeXeXeXeXeXeXeX",
"eXeXeXeXeXeXeXeXeXeXk.4 j eXeXeXeXeXeXeXeXeXeXeXeXeXeX<X=.$.V.K.R.K.T.h.j.f.+ @.V p eXeXeXeXeXeXeXeXeXeXeXeXeXeXeXeXeXeX",
"eXeXeXeXeXeXeXeXeXeXX.l 9XeXeXeXeXeXeXeXeXeXeXeXoX`.`.c L.K.K.K.E.K.T.K.E.K.K.+.I i eXeXeXeXeXeXeXeXeXeXeXeXeXeXeXeXeXeX",
"eXeXeXeXeXeXeXeXeX4X< [ eXeXeXeXeXeXeXeXeXeXeX>XX * v T K.K.K.K.U.K.T.K.Y.K.K.K.o.i {.eXeXeXeXeXeXb.9XeXeXeXeXeXeXeXeXeX",
"eXeXeXeXeXeXeXeXeX_.g eXeXeXeXeXeXeXeXeXeXeXeX8Xc < U C.K.K.K.K.K.K.K.K.K.K.K.K.J.n o eXeXeXeXeX1X>.w.eXeXeXeXeXeXeXeXeX",
"eXeXeXeXeXeXeXeXeX6 5XeXeXeXeXeXeXeXeXeXeXeXeXeXX v U K.K.K.K.K.K.K.K.K.K.K.K.K.K.;.d.4 eXeXeX5X# K.o.eXeXeXeXeXeXeXeXeX",
"eXeXeXeXeXeXeXeXeX>XeXeXeXeXeXeXeXeXeXeXeXeXeXeX& @.> @ K.K.6.>.X.; 3 =.=.o @ $.2.6.d.3.3 >Xm.X.K.d.<.4XeXeXeXeXeXeXeXeX",
"eXeXeXeXeXeXeXeXeXeXeXeXeXeXeXeXeXeXeXeXeXeXeXeXoX; #.@.V.o n.9XeXeXeXeXeX_.p.h.U.g.J.K.J.J.K.K.K.X.d.m.eXeXeXeXeXeXeXeX",
"eXeXeXeXeXeXeXeXeXeXeXeXeXeXeXeXeXeXeXeXeXeXeXeXeX}.+ @.6.K.;.m.eXeXeXeXeXeX_.7.U.h.K.K.K.K.K.K.:.;.K.+ eXeXeXeXeXeXeXeX",
"eXeXeXeXeXeXeXeXeXeXeXeXeXeXeXeXeXeXeXeXeXeXeXeXeXeXeX2Xw.5.K.:.{.eXeXeXeXeXeX,X@ d.K.K.K.K.K.<.l.5.K.:.oXeXeXeXeXeXeXeX",
"eXeXeXeXeXeXeXeXeXeXeXeXeXeXeXeXeXeXeXeXeXeXeXeXeXeXeXeXeX}.$.K.$.,XeXeXeXeXeXeXeXw.o.6.K.H.o.`.t ~ K.K.o eXeXeXeXeXeXeX",
"eXeXeXeXeXeXeXeXeXeXeXeXeXeXeXeXeXeXeXeXeXeXeXeXeXwX^.@X0XeX8XX.K.@ eXeXeXeXeXeXeXw.; : + + =.;X|.~ L.K.* ^.eXeXeXeXeXeX",
"eXeXeXeXeXeXeXeXeXeXeXeXeXeXeXeXeXeXeXeXeXeXeXeXwXC .X|..X1 ; ; 3.2.>XeXeXeXeXeXeXeX5XM.=.n.eX^  XQ.d.d.J ( ~.eXeXeXeXeX",
"eXeXeXeXeXeXeXeXeXeXeXeXeXeXeXeXeXeXeXeXeXeXeXeX@X^.5X7XQ.y.K.K.K.J.G.eXeXeXeXeXeXeXeXeXeXeXeX~.( &X~.J C ^ G qXeXeXeXeX",
"eXeXeXeXeXeXeXeXeXeXeXeXeXeXeXeXeXeXeXeXeXeXeXeXeX^.=.@ >.K.K.:.# * [.eXeXeXeXeXeXeXeXeXeXeXeX5X7 6X.Xq |.G 7XeXeXeXeXeX",
"eXeXeXeXeXeXeXeXeXeXeXeXeXeXeXeXeXeXeXeXeXeXeX~.C C D d.5.f.3 <XeXeXeXeXeXeXeXeXeXeXeXeXeXeXeXeX3XeXG -X( G G eXeXeXeXeX",
"eXeXeXeXeXeXeXeXeXeXeXeXeXeXeXeXeXeXeXeXeXeX3Xq |.=X9 OX6 l.eXeXeXeXeXeXeXeXeXeXeXeXeXeXeXeXeXeXeXeXeX( G &XeXeXeXeXeXeX",
"eXeXeXeXeXeXeXeXeXeXeXeXeXeXeXeXeXeXeXeXeXeX&X^ -XH G *X0 eXeXeXeXeXeXeXeXeXeXeXeXeXeXeXeXeXeXeXeXeXeXeXeX9XeXeXeXeXeXeX",
"eXeXeXeXeXeXeXeXeXeXeXeXeXeXeXeXeXeXeXeXeXeXeX^ w eXG *Xq eXeXeXeXeXeXeXeXeXeXeXeXeXeXeXeXeXeXeXeXeXeXeXeXeXeXeXeXeXeXeX",
"eXeXeXeXeXeXeXeXeXeXeXeXeXeXeXeXeXeXeXeXeXeXeX&X&XeX!.=Xw eXeXeXeXeXeXeXeXeXeXeXeXeXeXeXeXeXeXeXeXeXeXeXeXeXeXeXeXeXeXeX",
"eXeXeXeXeXeXeXeXeXeXeXeXeXeXeXeXeXeXeXeXeXeXeXeXeXeXeXq ^ eXeXeXeXeXeXeXeXeXeXeXeXeXeXeXeXeXeXeXeXeXeXeXeXeXeXeXeXeXeXeX",
"eXeXeXeXeXeXeXeXeXeXeXeXeXeXeXeXeXeXeXeXeXeXeXeXeXeXeX0X~.eXeXeXeXeXeXeXeXeXeXeXeXeXeXeXeXeXeXeXeXeXeXeXeXeXeXeXeXeXeXeX"
};
