/* XPM */
static char *fe5b8521054f4d6cd60a7a7831229a9dmdSye5HOKmtbdST0[] = {
/* columns rows colors chars-per-pixel */
"60 60 249 2 ",
"   c None",
".  c #293009",
"X  c #301C3C",
"o  c #362638",
"O  c #322731",
"+  c #58180E",
"@  c #6D1507",
"#  c #703313",
"$  c #48153D",
"%  c #521723",
"&  c #760731",
"*  c #563535",
"=  c #6D2930",
"-  c #4E2718",
";  c #544832",
":  c #715134",
">  c #2A194A",
",  c #391C4B",
"<  c #390B59",
"1  c #2E1855",
"2  c #3A1757",
"3  c #2A2949",
"4  c #362447",
"5  c #392358",
"6  c #39324A",
"7  c #3D0D66",
"8  c #3B1766",
"9  c #3C0A78",
"0  c #33147A",
"q  c #382466",
"w  c #481549",
"e  c #550E58",
"r  c #471A5A",
"t  c #571357",
"y  c #4C0E53",
"u  c #73144E",
"i  c #432247",
"p  c #462659",
"a  c #523756",
"s  c #6B2750",
"d  c #430B6B",
"f  c #480A66",
"g  c #481767",
"h  c #521669",
"j  c #470B7C",
"k  c #580877",
"l  c #491575",
"z  c #561B77",
"x  c #550C65",
"c  c #66106F",
"v  c #4B2869",
"b  c #542475",
"n  c #583A77",
"m  c #552D6B",
"M  c #693969",
"N  c #662878",
"B  c #653A7C",
"V  c #683778",
"C  c #6F3874",
"Z  c #5A4E4F",
"A  c #675B4A",
"S  c #665B52",
"D  c #744A54",
"F  c #707154",
"G  c #594477",
"H  c #554A6C",
"J  c #684869",
"K  c #674775",
"L  c #70526D",
"P  c #716A73",
"I  c #912608",
"U  c #B73A29",
"Y  c #951E28",
"T  c #CF3533",
"R  c #935033",
"E  c #AE752E",
"W  c #E25838",
"Q  c #B13968",
"!  c #942D50",
"~  c #924E57",
"^  c #BB4F59",
"/  c #8A6C59",
"(  c #B77D50",
")  c #895C78",
"_  c #8D4F6A",
"`  c #966B6A",
"'  c #8F7571",
"]  c #B36A6E",
"[  c #B94977",
"{  c #D55A47",
"}  c #FE494B",
"|  c #EC5846",
" . c #EB514E",
".. c #D37055",
"X. c #CE5972",
"o. c #D56E76",
"O. c #97866C",
"+. c #A79372",
"@. c #CB8B54",
"#. c #EAAA55",
"$. c #F4B35D",
"%. c #F3B85C",
"&. c #E4A14A",
"*. c #C78871",
"=. c #FBAA6B",
"-. c #FFA977",
";. c #F3B66B",
":. c #D7A263",
">. c #D7FC6C",
",. c #480684",
"<. c #550989",
"1. c #4C1684",
"2. c #570F91",
"3. c #5A2686",
"4. c #5C3884",
"5. c #5A2595",
"6. c #532D95",
"7. c #663788",
"8. c #6A3794",
"9. c #6E3291",
"0. c #6935A6",
"q. c #6A2BA6",
"w. c #62219B",
"e. c #594785",
"r. c #6A4586",
"t. c #74488A",
"y. c #695386",
"u. c #785889",
"i. c #7A5898",
"p. c #724899",
"a. c #4F6F9E",
"s. c #776887",
"d. c #786598",
"f. c #706690",
"g. c #7948A7",
"h. c #7A58A6",
"j. c #7B4AB9",
"k. c #7752BB",
"l. c #694CAC",
"z. c #7B66A3",
"x. c #7F79A7",
"c. c #5E40A4",
"v. c #7D4DCA",
"b. c #7A4CC5",
"n. c #7B56C6",
"m. c #7B4AD5",
"M. c #7E52D9",
"N. c #7E47E0",
"B. c #823C9C",
"V. c #8A489A",
"C. c #964B99",
"Z. c #875899",
"A. c #985399",
"S. c #8D4C88",
"D. c #B05584",
"F. c #846898",
"G. c #8B6C8D",
"H. c #B47386",
"J. c #8C4DA7",
"K. c #8556A7",
"L. c #9756A8",
"P. c #8648BA",
"I. c #924EBD",
"U. c #8554B6",
"Y. c #964CB2",
"T. c #A650AE",
"R. c #8A63A7",
"E. c #9868AD",
"W. c #957BA8",
"Q. c #8E74B9",
"!. c #9A7BB6",
"~. c #8E6EB0",
"^. c #AF70B3",
"/. c #C65685",
"(. c #D45381",
"). c #C27E8B",
"_. c #893CC9",
"`. c #8543C3",
"'. c #8B4EC1",
"]. c #844BCB",
"[. c #8D4ACB",
"{. c #8747C5",
"}. c #9749C8",
"|. c #8352CD",
" X c #8655C4",
".X c #8B4AD6",
"XX c #8856D5",
"oX c #944DCF",
"OX c #9668C7",
"+X c #A879C5",
"@X c #A777DB",
"#X c #894DE5",
"$X c #7D839F",
"%X c #7A9AC9",
"&X c #988A9A",
"*X c #948491",
"=X c #BC8787",
"-X c #AD918F",
";X c #AFA794",
":X c #9C8DA5",
">X c #9988A9",
",X c #9B93A5",
"<X c #9C8BB2",
"1X c #9E87BA",
"2X c #9985B6",
"3X c #9793BA",
"4X c #8D90A6",
"5X c #A28BAC",
"6X c #A584BA",
"7X c #A487B8",
"8X c #A691BF",
"9X c #B6A8BA",
"0X c #C28283",
"qX c #D6968F",
"wX c #D1AE8B",
"eX c #E5AF85",
"rX c #F2AF97",
"tX c #CCB0A6",
"yX c #F2AEB2",
"uX c #E2898B",
"iX c #F5C990",
"pX c #D9D9BC",
"aX c #EFDAB7",
"sX c #ECE7B8",
"dX c #CFDFA1",
"fX c #9A85C6",
"gX c #9D93C5",
"hX c #A687C4",
"jX c #AD8FCD",
"kX c #CA8CCD",
"lX c #CCADC6",
"zX c #E3ACD2",
"xX c #C697F3",
"cX c #D5ADF0",
"vX c #E99DF4",
"bX c #DCD0D6",
"nX c #E8DAC8",
"mX c #F5D3D9",
"MX c #F6CACB",
"NX c #FEFADA",
"BX c #F2E9CC",
"VX c #F0D4FB",
"CX c #FFE8E7",
"ZX c #FFFAE4",
"AX c #FFF3E5",
"SX c #FEE4FF",
"DX c #FFE7F7",
"FX c #FFF4FE",
"GX c #DBDAD6",
/* pixels */
"                                                                                                                        ",
"                                                                                                                        ",
"                                                                                                                        ",
"                                                                                                                        ",
"                                                                                                                        ",
"                                                                                                                        ",
"                                                                                                                        ",
"                                                                                                                        ",
"                                                                                      >X2 1 1.d 5 > 1 jX<X              ",
"                                                              tX          y.X 4X,X,X>X>X+XhX@X@X2X2X7X<XK 8XH           ",
"                                                          w / wXVX>X  G <X7X2X7X6X6Xr w 2 r g jX1XhX7XgX1X2X>X:X        ",
"                  6 4 u.Z.F.u.G $ $ $ kX            -X` $ M +.+.> , 8X<Xp 8X7Xp 6XW.hX+X!.hXjXhX1XW.1X6Xp 6 VX          ",
"              ~.`.oXJ.Y._ S.) ) Z.V.I.Y.P.U.9 0.K % ..@ 0X0X&X6 q y.~.v E.h h h l l l g < v H G bXFXFXFXFXX             ",
"            2 i.{.`.x B.zXzXzXlXcXM 7 k d d 0.U.= =X@...% = *X&Xd.5 v 2 E.V f f k d 7 8.hXfX1X2X>XZ X lXFXSX            ",
"          b J.L.@ rX$.$.yXyX<._.v..Xv.b.XX]._.2.0X0X8 OXO.O.w ^.-X] t G.U.p.l 5.+X+XW.7X5X5X5X<X2X<Xd.W.3X5 G.          ",
"      bXh.K.f vXrXqX&.&.+ ~ .X_..Xv.n.n.`..X#X<.R ~ ~.7.; O.s $ = ` G.C 3.z 9 z 8.y K G.>X5X<X5X<X<X<XgX<X>X4X4         ",
"    t A.+ rX*.: qX*.` r XXv.I.k.P P t.i.k.n.I.j J.h @.@.n 2 s.s.d.R.s.s.i.z.h.U.h h V u.        6 6 &X,X,X:X:X<X:X      ",
"  4 t kX: AXNX      R.u.v.|.U.6.nXBXVXi.n.n.j.,.N i.@.+ B r.J P F.d.s.s.~.v 8 i.L.h <X3                         bX      ",
"- S '               ].v.}._.. dX>.>.nX. K.K.~ ).@.iX..*.D MXL Z C y r V p.L.K.R.f.d.y.gX!.,                             ",
"mX                9X].P.}.}.dXsX>.>.GXS K.t.~ 0XE iX~ + / MXJ J C K t.V h h r K.f.f.> gXhXhX&XbX                        ",
"                  r [.[.M.n.5 VXnXpXj ,.~ ~ mXD W.) r r y 7.7.4.: aXt.m G n 8 R.K p z +XjXW.4X3X4                       ",
"                    [.,.l.n.i.R.F F [.0._ D.mX% D D B 7.7.8.4.2 aX:.B r.n n 7.4.S.Z.J.g > gX3X4X5X,                     ",
"                        > f.A.e & Q ..X.^ o.m B 4.4.6.5.9.N 4.r.l p.H Z G e.n r.0.w.K.!.3XH u.^.7X2Xv                   ",
"                          5XSXSX! X.{ U zX@ C V 4.8 U.0.r 9.7.4.7.b J H e.G 7.4.8.0.B 2 fXx.6X, 7X7X1X5                 ",
"                            CXuX} } ..{ C.x 5.j t t N.#XOX5.b 7.9.g nX;X7.7.C M 7.7.8.f G.&XgX1Xn ~.,X<XX               ",
"                          ..o...}  .I ..x L.P.P.V.t #Xm.{.U.t.7.9.h A ; 7.g m w 8.7.8.d K   n gX!.y.4 <X4X              ",
"                          W { ..! u <.[.P.P.V.L.% ).P.U.m.v.j.6.6.0 <.k | | = s   ; H           5X:XL G.                ",
"                          W I rXe D._.}.w.j kXx ~ ).9 l M.M. X9 0.l.T.T.W W !                                           ",
"                          ! L b ) w E ;.$.#.$.$.eX# L.Z.,.{.}.j 3.I.Q /. . .                                            ",
"                            d g.$ zX;.;.#.$.$.$.rXeXz Z.XX{.<.`.<.}.X./. .T                                             ",
"                            T.u =.=.=.;.tX` ;.eX' / D _ b.].P.5.e S.^.C.| I                                             ",
"                          O C.vX=.=.-.@.    ( NX      s ].].I.P.s ^.c C.| U                                             ",
"                        SXK.@ -.#.;.tX                  1.h.XXm.# *.& X.X.X.CX                                          ",
"                        < K.-.-.#.%.                    SXU.m.XXR o.Y D.^ X.=                                           ",
"                        Z.w eXeXiXBX                      S u.5 h 3.,..XQ X.[ Y                                         ",
"                      o Z.cXR ..R                               n < }.[.X.(.(.Y v                                       ",
"                      Z.- : ] '                                   ,Xn.k.I.U.E.N J w                                     ",
"                    R.Z.tXNX;X                                  G 4.0 n.Y.I.t 7.M G.                                    ",
"                    r v : ZX                                1 5 8 8 1 2 }.k M C ] DX                                    ",
"                    t.Z.NX                            Z 1 i.z.2Xh.fXd.!.}.k C L = DX                                    ",
"                  o o G.                          N y A.].].z.Q.P 4Xa.%X.X.Xe ^.= CX                                    ",
"                                              O 7 r ^.A.[.n.l.+XP 4Xa.%X.X_.C.x = yX                                    ",
"                                            SXy & H.P.P.j. Xv.v.M.m.M.b.].{.oX{.9.k             2                       ",
"                                            SXy s [ }.'.n.k.XX].#X#Xv.v. X X`.XXY.Y.o         o h.2                     ",
"                                              , 7.7.k P.j. Xp , 5 5 i X 3 3 q e.[.[.}.,.U.cX0 n.j.U.                    ",
"                                                z 9.9.g.1.xXg.r.          $Xf.gX}.P.oX`.h.z.n.k.1.U.G.                  ",
"                                                  O V u.`.q.b DX            < Q.I.oXb.n. XU.[._.9 [.5                   ",
"                                                      K j.{.i.xX              q '.P. X|.j.{._.q.{.'.y.                  ",
"                                                        7.5 P.3.                K.8 j.U.K.f VXM jXZ.h.l                 ",
"                                                        J b l j.4                 v 8.9 v l DXcXZ.V.h.8 lX              ",
"                                                  nXpXaXJ i ,.w.h.cX                lXp *XG.;XaXCXL ) L O.tX            ",
"                                                ZXZXZXNXL ) ].].h.8                         NXpXFXmXL L S S             ",
"                                                &X, 1.5.b. Xp.g 5                             F ZXnX; tXZ S             ",
"                                              S L H {.j.XX,.                                    NXA BXZXS               ",
"                                            F F nX: MX` O                                           ;X;X                ",
"                                            BXsX: BXmXD                                                                 ",
"                                              S ;XnXnXF                                                                 ",
"                                                  tXnXA                                                                 ",
"                                                    S S                                                                 ",
"                                                      ;X                                                                "
};
