/* XPM */
static char *_137b9a97f0e4f54cec535fa516ace91Cxl9aK3Nr5keKmde[] = {
/* columns rows colors chars-per-pixel */
"60 60 210 2 ",
"   c None",
".  c #050605",
"X  c #090605",
"o  c #050904",
"O  c #090904",
"+  c #06050B",
"@  c #0A060B",
"#  c #060A0B",
"$  c #0A0A0B",
"%  c #150608",
"&  c #0A1002",
"*  c #091B0B",
"=  c #0B0612",
"-  c #0C0C12",
";  c #0E0C18",
":  c #120B13",
">  c #190E17",
",  c #150C1C",
"<  c #151315",
"1  c #14121B",
"2  c #1B1417",
"3  c #361516",
"4  c #0D200C",
"5  c #1E2317",
"6  c #232815",
"7  c #1C1A25",
"8  c #191526",
"9  c #251D2A",
"0  c #261928",
"q  c #331C29",
"w  c #221F30",
"e  c #232224",
"r  c #282629",
"t  c #252231",
"y  c #2D263D",
"u  c #2E293A",
"i  c #2B2738",
"p  c #33263D",
"a  c #332B3D",
"s  c #372437",
"d  c #3A393F",
"f  c #373C26",
"g  c #451E3A",
"h  c #51302B",
"j  c #423C3E",
"k  c #4A2A2B",
"l  c #3D422E",
"z  c #40413B",
"x  c #6B443F",
"c  c #6D7A35",
"v  c #717B34",
"b  c #2E2541",
"n  c #2F2B44",
"m  c #322643",
"M  c #332943",
"N  c #352B4A",
"B  c #3D2A44",
"V  c #3B334B",
"C  c #3A3648",
"Z  c #382E51",
"A  c #3B3855",
"S  c #442B45",
"D  c #4A2747",
"F  c #5A294B",
"G  c #582A46",
"H  c #46394A",
"J  c #50324A",
"K  c #5F2F55",
"L  c #403555",
"P  c #433C53",
"I  c #423A5C",
"U  c #4A3F5D",
"Y  c #453759",
"T  c #63274A",
"R  c #663258",
"E  c #433A61",
"W  c #4D3E64",
"Q  c #4E3E68",
"!  c #513E6A",
"~  c #563D64",
"^  c #513D72",
"/  c #633C64",
"(  c #424243",
")  c #43404C",
"_  c #4C4C4A",
"`  c #4D405A",
"'  c #444258",
"]  c #574E5F",
"[  c #5A5A5A",
"{  c #595759",
"}  c #52554F",
"|  c #60445D",
" . c #6A5A55",
".. c #546F50",
"X. c #5F6644",
"o. c #707A5F",
"O. c #464263",
"+. c #4D4365",
"@. c #4E436B",
"#. c #4A476B",
"$. c #514266",
"%. c #51426C",
"&. c #534C6D",
"*. c #594369",
"=. c #5D5766",
"-. c #4E4571",
";. c #524671",
":. c #554B76",
">. c #554C7A",
",. c #5B4E7B",
"<. c #57517B",
"1. c #645879",
"2. c #676564",
"3. c #736A79",
"4. c #757479",
"5. c #7B7A7B",
"6. c #797676",
"7. c #706F6F",
"8. c #866A5C",
"9. c #817D7C",
"0. c #7A9C4C",
"q. c #718349",
"w. c #8E9A6C",
"e. c #96B26E",
"r. c #B3BB72",
"t. c #95C474",
"y. c #B4C57B",
"u. c #B6CB7E",
"i. c #5B5383",
"p. c #5C5986",
"a. c #5D5B8B",
"s. c #575485",
"d. c #5A4D82",
"f. c #625B8D",
"g. c #645E94",
"h. c #646294",
"j. c #646599",
"k. c #6A659E",
"l. c #75718A",
"z. c #6B6BA3",
"x. c #6A6AA4",
"c. c #827F86",
"v. c #868685",
"b. c #989897",
"n. c #889085",
"m. c #A09C9B",
"M. c #9CA280",
"N. c #8DA49A",
"B. c #B0A19C",
"V. c #B1B18E",
"C. c #95BEAC",
"Z. c #ACACAC",
"A. c #ACB5AE",
"S. c #AEACB1",
"D. c #B4B1B4",
"F. c #C4B689",
"G. c #BFCE88",
"H. c #ADD28D",
"J. c #B5C192",
"K. c #A5EA95",
"L. c #A9EC96",
"P. c #A5EC9B",
"I. c #AAEB9A",
"U. c #AFE59A",
"Y. c #B0E690",
"T. c #A9F198",
"R. c #84C8B1",
"E. c #B7C6BF",
"W. c #9DF0B8",
"Q. c #B7EEA7",
"!. c #A8E7A1",
"~. c #C5CB8C",
"^. c #C3D58C",
"/. c #D3CD91",
"(. c #D2DE9E",
"). c #CFE092",
"_. c #C4C0BF",
"`. c #E3DCA8",
"'. c #E4EFAA",
"]. c #EAF6A5",
"[. c #E9EDB5",
"{. c #EAF1BB",
"}. c #F6F8BE",
"|. c #F5F6B8",
" X c #F3FBA5",
".X c #8FDBC1",
"XX c #BEC4C1",
"oX c #B9C7C2",
"OX c #A9D9C6",
"+X c #9AF3CA",
"@X c #9AF5D1",
"#X c #9CF2D9",
"$X c #9AEFC6",
"%X c #B2EDCF",
"&X c #A3F6CC",
"*X c #A2F4D6",
"=X c #A2F7D9",
"-X c #CACBCB",
";X c #C5C5C4",
":X c #D7D8D7",
">X c #FAF8CC",
",X c #F4F5C6",
"<X c #F8FAD4",
"1X c #F8F7DB",
"2X c #D0F5ED",
"3X c #EAE7E8",
"4X c #F7F5ED",
"5X c #F9F8E8",
"6X c #FDFEFF",
"7X c #F8F7F5",
/* pixels */
"                                                                                                                        ",
"                                                                                                                        ",
"                                                                                                                        ",
"                                                                                                                        ",
"                                                                                                                        ",
"                                                                                                                        ",
"                                                                                                                        ",
"                                            XX:X                                                                        ",
"                                          ;XN.b.A.-X                                                                    ",
"                                          D.R.Q.z n.b.;X                                                                ",
"                                            [ +XL.r z 6.;X                                                              ",
"                                            v.=XL.P.o *X[ E.                                                            ",
"                                            oXOXL.L.U.. @X[ oX                                                          ",
"                                              { $XP.T.Y.o &X[                                                           ",
"                                              v.=XI.T.L.0.@ Q.[                                                         ",
"                                              oXOX!.L.I.I.v * H.                                                        ",
"                                                [ @XT.P.L.t.& P.                                                        ",
"                                                m.#XP.P.I.K.c 4 o.                                                      ",
"                                                  _ +XT.L.P.q.O w.B.                                                    ",
"                                  -X6X            5.@XW.T.P.T.v f v.            5.                                      ",
"                                  b.S._.:X        =.< 2X&XT.U.w.X j 9.        1.Q                                       ",
"                                  S.{ :X{ 3XS.  5.] ^ m X 2XW.O k  .j [     b Z @.                                      ",
"                                    2.| o U ( { { e Q Q -.V . B.3 h h _ } X.3 t Q                                       ",
"                                    D.{ H P m m ; 2.0 A Y W @.i > 3X@ } X : $ a M Y                                     ",
"                                        3.$ @.M b b o + + ; t y M > X 8.X 2 N M # M                                     ",
"                                      l.C ; %.+.y M $ ~.^.^.^.J.O 0 g X $ $ m 7 P Z                                     ",
"                                    6.( ) M U +.b M i r. X|.|.,X|./.@ g @ % O O -.o .                                   ",
"                                  ..` M M $ . ! @.i V e. X>X5X1X>X`.V.g X  .% O <.8 X @ s                               ",
"                                  ~ N N M t 7 -.%.L M o G.,X5X5X1X{.F.& $ 9 # 1 E O.. g $                               ",
"                                  ;.%.:.Z Z + 7 Q @.b ) ).'.<X5X5X,XV.$ 0 p $ p m E o > +.                              ",
"                                  @.;.<.,.I a . Q ! @.M $ ].,X<X7X>X~.1 $ m y u + -.- P Q                               ",
"                                  . :.i.i.p.I o +.W @.$.A + ].(.,X}.y.y $ @ M X + - :.@.                                ",
"                                  b &.f.f.p.p.E o %.@.+.W B 2 X.u.y.z a 1 I 8 . -X+.>.t                                 ",
"                                  +.o s.f.h.j.p.O.: Q Q ! W S J = 6 $ : e X , &.3.                                      ",
"                                  l.A # g.k.k.j.s.O.7 ;.! ! / F G D p X 5.- # r                                         ",
"                                  =.:.U C x.z.z.x.s.Q = Q W W ~ G X D @ $ e # e                                         ",
"                                  [ :.,.#.C z.x.z.j.i.A + ` ! S @ T K + _.9 . .                                         ",
"                                    :.i.a.h.<.x.x.j.a.d.V u @ @ G T R @ 4X6 o #                                         ",
"                                  4.- <.h.h.x.z.j.h.i.>.+ V ~ G % G F @ 7Xe + +                                         ",
"                                  [ r <.s.a.g.j.h.a.,.@ %.@.*./ F , S = :X, = +                                         ",
"                                  [ 9 + :.s.s.a.s.<.+ @.+.Q $.S H : . $ # 2 + 7 r                                       ",
"                                    [ 1.1 X y &.i t Q $.$.P 2.$ V.r.% o @ ; $ 5.P   2                                   ",
"                                      S.@ $ X = @.@.Y m V $ [.<X4X~.0 O > a X + - ;.%.                                  ",
"                                        ( P y m m y M M o '.5X7X,XO q q X s o       @                                   ",
"                                            X 0 m b m & G.G.'.e.X [ (                                                   ",
"                                            R.%X6X. i B V %.3.l.                                                        ",
"                                          j #X6.$ o + . # r                                                             ",
"                                            P.L.I.e.O ..q.                                                              ",
"                                          +XK.L.5 o                                                                     ",
"                                        *XL.6 #                                                                         ",
"                                                                                                                        ",
"                                                                                                                        ",
"                                                                                                                        ",
"                                                                                                                        ",
"                                                                                                                        ",
"                                                                                                                        ",
"                                                                                                                        ",
"                                                                                                                        ",
"                                                                                                                        ",
"                                                                                                                        "
};
