/* XPM */
static char *_09aaf9c8dbc48baef2705c6e1c819f1uCpSdMkjVXIroxse[] = {
/* columns rows colors chars-per-pixel */
"60 60 85 1 ",
"  c None",
". c black",
"X c #030201",
"o c #000402",
"O c #050400",
"+ c #0E0000",
"@ c #080502",
"# c #010A05",
"$ c #020D06",
"% c #020D07",
"& c #020E07",
"* c #0B0A00",
"= c #0B0803",
"- c #130000",
"; c #100E01",
": c #100B04",
"> c #160F05",
", c #02130A",
"< c #031B0E",
"1 c #161202",
"2 c #161401",
"3 c #161402",
"4 c #1B1503",
"5 c #201C01",
"6 c #2D1F0A",
"7 c #052715",
"8 c #06361D",
"9 c #073A1F",
"0 c #2F2902",
"q c #2E2903",
"w c #30210B",
"e c #35240C",
"r c #38260D",
"t c #083F22",
"y c #432E0F",
"u c #413902",
"i c #463D03",
"p c #493E04",
"a c #513713",
"s c #084324",
"d c #09502A",
"f c #0C6134",
"g c #0D6E3A",
"h c #0D723C",
"j c #0E773F",
"k c #4C4303",
"l c #514703",
"z c #504009",
"x c #5F5304",
"c c #5F4116",
"v c #605404",
"b c #705F07",
"n c #644417",
"m c #674618",
"M c #734F1A",
"N c #0F7B41",
"B c #AB0000",
"V c #EB0000",
"C c red",
"Z c #895D1F",
"A c #847305",
"S c #897705",
"D c #8F7D05",
"F c #8C6020",
"G c #916321",
"H c #946522",
"J c #108A49",
"K c #129650",
"L c #139E54",
"P c #13A357",
"I c #13A457",
"U c #14A759",
"Y c #15AD5C",
"T c #15B15E",
"R c #948106",
"E c #A69106",
"W c #B59E07",
"Q c #B69F07",
"! c #BFA607",
"~ c #BFA707",
"^ c #C5AC07",
"/ c #CAB008",
"( c #D0B608",
") c #D4BA08",
"_ c #D5BA08",
/* pixels */
"                                                            ",
"                            .                               ",
"                            ..                              ",
"                            ..                              ",
"                            ..                              ",
"                            ..                              ",
"                            ..                 ..           ",
"                            ...               ;^.           ",
"                            *D.               ;_.           ",
"                           .;_.              3kD.           ",
"          .               .O5_.             .i^.            ",
"          ...             .i__.             .i^.            ",
"           ...            .i___;           .D_^.            ",
"            ..            .i___;          ..DR;             ",
"             ..           .i___;          .A!D.             ",
"             .00          .i___;.         i/Ev.             ",
"             .AS;        ..i___5O.       ;__i..             ",
"             ..i^..   .....i____i.......;___i.              ",
"              .i__....=HHHwi____iwHHHHwi____i.              ",
"              .i__^^^A.=HHwi____iwHHHHwi__;;                ",
"              .3l____!A.wFwi____iwHHHHwi__...               ",
"               .;_____/i.ZazDDDDqwHHHHwi__.u3.              ",
"                ;^______.ZHm=====rHHHHwu^^.^i.              ",
"                ..______.ZHHHHHHHHHHHHw....^i.              ",
"    .         ....______.ZHHHHHHHHHHHHHHHH.^i.              ",
"    ....      .6ZZ;;R___.ZHHHH===========*^_i.              ",
"      .Aq.....yMHHmO0iii.ZawwwDDDDDDDDDDDD_l1               ",
"      .Aviii..ymmHHewwwwwcziii_RDDDDDDDDDDD*                ",
"      ..D___;;;;4ZZHHHHZZ4R(^^^;#&%&..+--...                ",
"       .D_______^..ZHHZ..^_D....NTYT..BCV..                 ",
"        .i________.ZHm;___i.&TTTTTTTT&.....                 ",
"        .O;;____^;.Zrp^_;;O8ITTTTTTTTIPg..                  ",
"         ...p/__^.nebE/i.gjJTTTTTTTTTTf7.                   ",
"         .Xw.A!_^.npE!A.tITTTTTTTTTTTTt..                   ",
"        ..1H=.A^W..^/A.&TTTTTTTTTTTTTI8.                    ",
"        .wHHH=.....^i.$TTTTTTTTTTTTTT&                      ",
"        .wHHHHHHHH.^i9TTTTTTTTT&NYTTT&                      ",
"        .wHH===rHH.^i9TTT<NTTTT&NTTTT&                      ",
"        .:wwDDqwHH.^i9TTT&NTTTT&jTTTT&                      ",
"        ..Oi__iwHH.^i9TTT$jYTTT&jYTTT&                      ",
"       ..O5___iwHH.^i9TTT&gITTT<hITTT&                      ",
"      ...i____iwHH.^i9TTT&.9TTTT9tTTT$                      ",
"    ..________iwHH.^i9TTTT99TTTTTj&T..                      ",
"  ..;^_______5OwHH.^i9TTTTt.<TTTTj.&.                       ",
"  ..OiiiiiiiiOyMHH.^i8TTTTJd$TTTTLg..                       ",
"   .........wwMHHH.^itTTTTTJtNjYTTP..                       ",
"          ..ZZGHHZ;^i9TTTTTTI$.KPPK.                        ",
"           ...mHZ.__i9TTTTTTTT......                        ",
"           ._;..;__;.9TTTTTTTTTTTj.                         ",
"           .;Q^^^__;gUTTTTTTTTTTs#.                         ",
"            .uE_/iiXjTTTTTTTTTTs,.                          ",
"            ..vDA.t8JTTTTTTTTTj#..                          ",
"             $$#..PUYTTTTTTYUP.$$#.                         ",
"            .IYN....jTTTTTTj...PYN..                        ",
"            .PTTTTT&.......tTTTTTTP.                        ",
"            .&NTTTT$      ..<TTTTN$.                        ",
"             .7fTT9        .o999t7.                         ",
"             ..7jj.         .......                         ",
"              .....                                         ",
"                                                            "
};
