/* XPM */
static char *_d6d952af2314e64854c6b0e043833f5Js9P7TExwFtAWNDw[] = {
/* columns rows colors chars-per-pixel */
"60 60 218 2 ",
"   c None",
".  c #060605",
"X  c #090605",
"o  c #050904",
"O  c #090904",
"+  c #06050A",
"@  c #0A050B",
"#  c #050A0A",
"$  c #0A0A0B",
"%  c #11070F",
"&  c #160808",
"*  c #0A1002",
"=  c #0D170C",
"-  c #0A0613",
";  c #0C0B13",
":  c #0C0816",
">  c #120B13",
",  c #1A0D17",
"<  c #120E19",
"1  c #12061E",
"2  c #141313",
"3  c #15121C",
"4  c gray11",
"5  c #1A1412",
"6  c #1D150E",
"7  c #270D19",
"8  c #3E1D18",
"9  c #0E210D",
"0  c #1F221D",
"q  c #192417",
"w  c #1D220B",
"e  c #252916",
"r  c #1C1924",
"t  c #1B1627",
"y  c #241422",
"u  c #261C2A",
"i  c #341C29",
"p  c #251C31",
"a  c #232323",
"s  c #25222C",
"d  c #2B2A2B",
"f  c #262232",
"g  c #292634",
"h  c #2E2B37",
"j  c #2D263D",
"k  c #2E2A3B",
"l  c #25213C",
"z  c #33263E",
"x  c #332B3D",
"c  c #352436",
"v  c #353535",
"b  c #3C3C3C",
"n  c #33313F",
"m  c #283422",
"M  c #461D38",
"N  c #562D26",
"B  c #51302B",
"V  c #43213B",
"C  c #4A2F26",
"Z  c #3D422E",
"A  c #3D5D38",
"S  c #46522E",
"D  c #6E7A35",
"F  c #727C35",
"G  c #2E2541",
"H  c #2E2A43",
"J  c #332644",
"K  c #332A43",
"L  c #352B4A",
"P  c #3A2945",
"I  c #3B334B",
"U  c #3C3B4C",
"Y  c #37314A",
"T  c #382F51",
"R  c #3B3855",
"E  c #491F43",
"W  c #442B45",
"Q  c #492B47",
"!  c #4C274B",
"~  c #452542",
"^  c #572C47",
"/  c #5A294B",
"(  c #572846",
")  c #443E47",
"_  c #483249",
"`  c #50324A",
"'  c #5C2D5A",
"]  c #433B53",
"[  c #433659",
"{  c #433B5B",
"}  c #453955",
"|  c #563155",
" . c #63264A",
".. c #663258",
"X. c #443A62",
"o. c #4C3E63",
"O. c #4E3E69",
"+. c #523F69",
"@. c #563D65",
"#. c #513D72",
"$. c #633C64",
"%. c #733B75",
"&. c #335C4C",
"*. c #4C4346",
"=. c #454548",
"-. c #504C4E",
";. c #4E504A",
":. c #464259",
">. c #4A4654",
",. c #4F5356",
"<. c #5C5C5C",
"1. c #575558",
"2. c #5E5946",
"3. c #6E5D51",
"4. c #5F6644",
"5. c #6F7D42",
"6. c #464263",
"7. c #4E4266",
"8. c #4E426B",
"9. c #4D496A",
"0. c #47406A",
"q. c #514366",
"w. c #51426B",
"e. c #534C6D",
"r. c #5A456A",
"t. c #4E4671",
"y. c #524671",
"u. c #544B76",
"i. c #554D7A",
"p. c #5A4E7A",
"a. c #5A527B",
"s. c #55527A",
"d. c #5D5766",
"f. c #646362",
"g. c #6C6D6A",
"h. c #7C7C7C",
"j. c #797778",
"k. c #74766E",
"l. c #866A5C",
"z. c #7E9F50",
"x. c #748E49",
"c. c #6B867D",
"v. c #90BC67",
"b. c #9BA775",
"n. c #B3BB72",
"m. c #95C474",
"M. c #B4C57C",
"N. c #B6CB7E",
"B. c #5B5383",
"V. c #5D5A8A",
"C. c #595785",
"Z. c #5A4D82",
"A. c #625B8D",
"S. c #645E94",
"D. c #646194",
"F. c #656599",
"G. c #6A659E",
"H. c #6B6BA3",
"J. c #6A6AA4",
"K. c #76AB94",
"L. c #989797",
"P. c #8B8B89",
"I. c #9CA280",
"U. c #B0A19C",
"Y. c #B1B08F",
"T. c #A6A7A5",
"R. c #BBBBBA",
"E. c #C4B689",
"W. c #A2CC80",
"Q. c #BFCE88",
"!. c #B5C192",
"~. c #A5EB96",
"^. c #AAEC96",
"/. c #A5EC9B",
"(. c #ABEC9B",
"). c #AFE49C",
"_. c #B0E690",
"`. c #A9F196",
"'. c #90D1B3",
"]. c #8BCAB5",
"[. c #9DF0B8",
"{. c #ABE9A2",
"}. c #C5CB8C",
"|. c #C3D48B",
" X c #D2DE9E",
".X c #D3CD93",
"XX c #CFE092",
"oX c #E3DCA8",
"OX c #E4EEAA",
"+X c #EAF6A5",
"@X c #E9EDB5",
"#X c #EAF1BB",
"$X c #F5F8BE",
"%X c #F6F6B8",
"&X c #F3FBA5",
"*X c #8FDBC1",
"=X c #8FF3CD",
"-X c #9BF3C9",
";X c #97F3CC",
":X c #94F3D2",
">X c #9BF4D1",
",X c #9AF6D5",
"<X c #9AEFC6",
"1X c #B2EDCF",
"2X c #A4F3CB",
"3X c #C4C3C3",
"4X c gray80",
"5X c #D5D5D4",
"6X c #DCDBDC",
"7X c #F6F6C8",
"8X c #F8FAD4",
"9X c #F8F7DC",
"0X c #C2EEE1",
"qX c #DDFCF6",
"wX c #F7F4EC",
"eX c #F9F8E8",
"rX c #F8F7F6",
"tX c #EFE9E9",
/* pixels */
"                                                                                                                        ",
"                                                                                                                        ",
"                                                                                                                        ",
"                                                                                                                        ",
"                                                                                                                        ",
"                                                                                                                        ",
"                                                                                                                        ",
"                                                                                                                        ",
"                                                                                                                        ",
"                                                                                                                        ",
"                                                                                                                        ",
"                                                                                                                        ",
"                                                                                                                        ",
"                                                                                                                        ",
"                                                                                                                        ",
"                                                                                                                        ",
"                                        $ =.        k.X . o X .                                                         ",
"                                      $ d >.3Xo - e.L K $ 8.8.L $           f.                                          ",
"                                    @ @ a @ i.u.u.[ . e.i.y.w.L J X       2 .                                           ",
"                    5X            L.+.+ a.B.B.s.:.# B.C.B.s.u.L K ; r   @ Q R.                                          ",
"                  * :X# 5X    D.$ . 3 y.B.A.V.9.Y S.D.A.Z.p.T K K g . } g . .                                           ",
"                  d `.;X>X@ c.6Xj ; X B.V.D.D.U G.G.D.V.C.{ T s $ K < $ } L 4X                                          ",
"                  o e ~./.,X].@ G . l C.F.G.s.J.H.H.F.C.{ K + r X { +.8.J >                     d # K.&.                ",
"                  # # ^.^.k.1Xu K - e.V.F.H.J.J.H.F.V.X.o . t y.7.7.8.K z X               0 # ].;X2X{.=.                ",
"                  4X2Xq ^.X rXK K 8.j B.D.G.J.H.H.V.X.o 7.7.O.8.7.G G K ; s ,       -.# '.:X<X(.`.~.#                   ",
"                    X o v.@ $ G j w.f s.C.D.F.F.C.6.< y.7.O.O.[ j K j j g.. p : v q :X>X{.(.(.(./.@ m                   ",
"                    T.(.O . g K J { O.. p.B.V.B.0.r O.O.8.O.H j I h X . p O.#.4 >X;X(.`.^.`.`.(.o O                     ",
"                      # A . P * K J 8.8.$ u.Z.X.- 9.O.o.8.K =.. b.M.Q.. R O.z 0X[./.(.(.(.^._.o -X#                     ",
"                        S o L Q.. U q.o.w.@ L $ 8.w.+.o.R @ XXQ.+X&X|.@ [ 8.o 2X`.(.(.^.(.x.o =X$                       ",
"                        o O 7.Q.OX. ] O.O._ k :.O.@.o.I $ &XOX$X8X%X|.< o.I qX~./.(.~.m.D @ ;XO                         ",
"                          T.d.@X9X#Xf.q.r.@.X @.@.@.~ 2 +X7X8XeXeX%X|.f w.$ *X).~.x.D * = `.X                           ",
"                            1.b.rX8X$ Q $.! @ P $.( _ 4. X8XeXwX9X$X!.x k U.X z.D O 9 (.W.X                             ",
"                            3 $ %XwXY._ / > ( @ / ( % N.7XrXeX9X7X%X$ K 2 8 C X w F e $ -                               ",
"                            $ *.O }.n.> 7 (  . .X Q e M.%X7X7X@XoX.Xu , tXB N - a                                       ",
"                              $ i u @ . W ! ..' Q P @ Z M.}.Y.E.Y.@ M . . B o 5                                         ",
"                              5 i O . $ + @ @ @ @ @ ; x x 3 = $ M M . l.,.;.@                                           ",
"                              X X , @ . 6XrXwX3X@ h.s 3 $ $ y o X X $ $ . 2..                                           ",
"                            T.r.c x < 4 ; e u a a $ . { @ J z p 3.& & 3 < 2.j <.                                        ",
"                            o @ o X # - - + $ o o + 1 3 K j $ $ & X K L . 7 K :                                         ",
"                            ;.a.L + j.r $ . $ X @ ; { . O h z 3 $ X r x K s T q.5X                                      ",
"                            <.h.I ; &.> 5XL.L.5X5X=.>.4X+ - H X.s.t.] # K O.8.7.v                                       ",
"                          =.P.@ 3 w.O.- <.        >.$ 9.- 9.X.6.t . Y L [ 7.7.w.r                                       ",
"                        2 , | E @ +.5 <.          X :.i.y.; . + . . o $ 2 a =.g.                                        ",
"                    0 %.~ y X t 7.f .             o $ f w.] , ~ @ $ T.s e b ,.                                          ",
"                    . < } o.L s X @               R.6 k j o.6.$ c ' + @ d <.f.                                          ",
"                      4X3X                          b $ $ g I X.7.+ O % ! @ Z d.                                        ",
"                                                            4Xa . $ X # $ o X v                                         ",
"                                                                                                                        ",
"                                                                                                                        ",
"                                                                                                                        ",
"                                                                                                                        ",
"                                                                                                                        ",
"                                                                                                                        ",
"                                                                                                                        ",
"                                                                                                                        ",
"                                                                                                                        ",
"                                                                                                                        ",
"                                                                                                                        ",
"                                                                                                                        ",
"                                                                                                                        "
};
