/* XPM */
static char *_3e70c486953458cda24b055dfaa72d6mttZ0oEyOT1dgBuX[] = {
/* columns rows colors chars-per-pixel */
"60 60 213 2 ",
"   c None",
".  c #050605",
"X  c #080605",
"o  c #050904",
"O  c #090904",
"+  c #06050A",
"@  c #0A060B",
"#  c #060A0B",
"$  c #0A0A0A",
"%  c #150608",
"&  c #0A1002",
"*  c #091B0B",
"=  c #090612",
"-  c #0C0C12",
";  c #0E0B18",
":  c #120B13",
">  c #190E17",
",  c #110A19",
"<  c #151315",
"1  c #15131B",
"2  c #1B1310",
"3  c #270D19",
"4  c #3F1C18",
"5  c #0D200C",
"6  c #1E2317",
"7  c #232815",
"8  c #1C1A25",
"9  c #191525",
"0  c #251E2A",
"q  c #261928",
"w  c #331C29",
"e  c #232324",
"r  c #282629",
"t  c #252131",
"y  c #2D263D",
"u  c #2E293C",
"i  c #2A2736",
"p  c #33263D",
"a  c #332B3D",
"s  c #372436",
"d  c #3D3E3D",
"f  c #33313F",
"g  c #373C26",
"h  c #451E3A",
"j  c #51302B",
"k  c #482F30",
"l  c #3D422E",
"z  c #39433B",
"x  c #40413B",
"c  c #6B443F",
"v  c #6D7A35",
"b  c #727C35",
"n  c #2E2743",
"m  c #322643",
"M  c #332A43",
"N  c #362B4A",
"B  c #3D2A44",
"V  c #3C334B",
"C  c #39344A",
"Z  c #382E51",
"A  c #3B3855",
"S  c #491F43",
"D  c #442B45",
"F  c #4A2747",
"G  c #5A294B",
"H  c #582A46",
"J  c #453A49",
"K  c #50324A",
"L  c #5F2F55",
"P  c #403555",
"I  c #433C53",
"U  c #423A5C",
"Y  c #483C5A",
"T  c #63274A",
"R  c #663258",
"E  c #443B61",
"W  c #4D3E63",
"Q  c #4E3F68",
"!  c #513E6A",
"~  c #563D64",
"^  c #513D72",
"/  c #633C64",
"(  c #424243",
")  c #43404B",
"_  c #4C4C4A",
"`  c #4D405A",
"'  c #444156",
"]  c #5B4A5D",
"[  c #5A5A5A",
"{  c #595859",
"}  c #52554F",
"|  c #6A5A54",
" . c #546F50",
".. c #5F6644",
"X. c #6F795E",
"o. c #464263",
"O. c #4D4265",
"+. c #4E426B",
"@. c #4A476B",
"#. c #514266",
"$. c #51426C",
"%. c #534C6D",
"&. c #594369",
"*. c #5D5A64",
"=. c #4E4570",
"-. c #524671",
";. c #544A75",
":. c #554C7A",
">. c #5A4E7B",
",. c #5A527B",
"<. c #55527A",
"1. c #69597A",
"2. c #6A4968",
"3. c #646164",
"4. c #6A6865",
"5. c #6F6D75",
"6. c #757574",
"7. c #75747A",
"8. c #7B7879",
"9. c #726D70",
"0. c #866A5C",
"q. c #817D7C",
"w. c #7E9F50",
"e. c #748E48",
"r. c #7E807F",
"t. c #8E9A6C",
"y. c #96B26E",
"u. c #B3BB72",
"i. c #94C574",
"p. c #B4C57B",
"a. c #B6CB7E",
"s. c #5B5383",
"d. c #5D5A8A",
"f. c #595785",
"g. c #5A4D82",
"h. c #625B8D",
"j. c #645E94",
"k. c #646294",
"l. c #656599",
"z. c #6A659E",
"x. c #75718A",
"c. c #6B6BA3",
"v. c #6A6AA4",
"b. c #827F86",
"n. c #868686",
"m. c #979697",
"M. c #889085",
"N. c #A09C9D",
"B. c #9CA280",
"V. c #96A49B",
"C. c #B0A19C",
"Z. c #B8B688",
"A. c #98B6AA",
"S. c #ACACAC",
"D. c #ADABB2",
"F. c #B3B2B4",
"G. c #B5B7B8",
"H. c #ADB3AF",
"J. c #C4B689",
"K. c #BFCE88",
"L. c #B5C192",
"P. c #ADD28D",
"I. c #A5EA95",
"U. c #A9EC95",
"Y. c #A5EC9B",
"T. c #AAEC9A",
"R. c #AFE59A",
"E. c #B0E690",
"W. c #A8F197",
"Q. c #84C8B1",
"!. c #B2C5BF",
"~. c #9DF0B8",
"^. c #B7EEA7",
"/. c #A8E7A1",
"(. c #C5CB8C",
"). c #C3D48C",
"_. c #D2DE9E",
"`. c #D3CD91",
"'. c #CFE092",
"]. c #C3C1BF",
"[. c #E3DCA8",
"{. c #E4EFAA",
"}. c #EAF6A5",
"|. c #E9EDB5",
" X c #EAF1BB",
".X c #F6F8BD",
"XX c #F5F6B8",
"oX c #F3FBA5",
"OX c #C0BEC3",
"+X c #8FDBC1",
"@X c #BEC3C2",
"#X c #B5C6C0",
"$X c #A9D9C6",
"%X c #9AF3CA",
"&X c #9AF4D3",
"*X c #9AEFC6",
"=X c #B2EDCF",
"-X c #A4F5D6",
";X c #A4F5CA",
":X c #C5C9C7",
">X c #D0D7CF",
",X c #D2D3D2",
"<X c #DBDADB",
"1X c #C9D2CF",
"2X c #F6F6C8",
"3X c #F8F8D9",
"4X c #C2EEE1",
"5X c #DDFCF6",
"6X c #E3E3E2",
"7X c #EFECEC",
"8X c #F7F5ED",
"9X c #F9F8E8",
"0X c #F8F7F7",
/* pixels */
"                                                                                                                        ",
"                                                                                                                        ",
"                                                                                                                        ",
"                                                                                                                        ",
"                                                                                                                        ",
"                                                                                                                        ",
"                                                                                                                        ",
"                                                                                                                        ",
"                                                                                                                        ",
"                                                                                                                        ",
"                                                                                                                        ",
"                                                                                                                        ",
"                                                                                                                        ",
"                                                                                                                        ",
"                                                                                                                        ",
"                                                              S.G.                                                      ",
"                                                      F.6.[ [ { [ H.S.G.:XS.m.                                          ",
"                                          S.          [ ` +.+.X n O.x.*.[ ,X7.[ *.S.                                    ",
"                                        F.{ 3.F.    6.` N %.-.;.%.. A ;.;.;.= r 0 { OX                                  ",
"                                        ].,X] [ N.b.) m N -.<.s.s.s.# ' >.s.s.>.+ 1.S.8X6X          m.                  ",
"                                        ,X[ X I 5.d ) n M Z s.s.d.k.j.C %.d.h.s.;.; . ( G.,X1X  z -X[                   ",
"                  H.@X                    6XY I $ ; N X 0 Z U s.d.l.z.z.C k.k.d.s.$ = I 6XA.J -X%XU.9.                  ",
"              :XV.Q.[ n.!.:X1X            D.) m =.$.Y O 9 + a A d.l.c.v.c.<.z.k.s.y . n X Q.&XY.U.7 [                   ",
"                N.^.%X-X$X{ n.#X:X,X        [ a m O.Q Q =.t X O o.d.l.v.v.v.c.k.d.%.= n q =X9.R.W.#                     ",
"                  d U.U.Y.*X-X$X[ N.G.G.G.7.{ ; m n m Q ! Q Q O.# o.s.c.c.v.z.k.s.i +.m N 0XO U.6 -X6X                  ",
"                  M.e T.T.Y.T./.&X&X_ 7.*.] 0 4.y y m y P Q +.Q $., o.f.l.l.k.d.<.t $.y n X $ y.o l 1X                  ",
"                  m.x o T.U.T.W.W.Y.%X&X6 ^ Q q O + i V M n Q +.Q Q 8 o.s.d.s.:.+ Q I m n i . O ^.1X                    ",
"                    6.  . E.U.T.W.Y.T.~.4Xm ! A + K.p.y.O I a +.W Q =.= A g.:.- +.Q M N & N .  .[ >X                    ",
"                      [   O e.T.Y.Y.U.T.;XO =.U X ).oXoXK.'.# A #.$.$.+.+ C @ $.O.O.P o p.V + X.N.                      ",
"                        [   $ v i.Y.Y.T.W.5XV W ; )..X2X.X{.oX@ B Y ~ Q ` u V $.Q I X {.).O.r 6.                        ",
"                          [ ^.* & v e.U.R.+X$ +.t ).XX9X9X2X2X}.> F ~ W ~ @ #.&.#.4.|.3X|.5.:X                          ",
"                            [ P.T.5 O b w.O C.u u L.2X3X8X8X3X'...K G / B @ H / D O 3X0XB.8.                            ",
"                              7.[ X.t.g $ j 4 < m O XX2X3X9X0X2XK.$ H G @ H = G K Z.8X X@ 3.                            ",
"                                        C c j 7X> 0 `.[.|.2X2X.Xp.7 D X T T H 3 ; u.(.O |                               ",
"                                        t.d j # . h + Z.J.Z.K.p.l @ B F L R H D # @ q w (                               ",
"                                          *.) } 0.@ h h $ - , p a - X + + @ + = # . O w 3.                              ",
"                                          d ..O X + % O O q @ - 1 r 8.- :X7X0X<X$ @ : . J                               ",
"                                          A | : 1 @ % | 0 p m @ U X # e e e e < < 1 s p 1.                              ",
"                                            3 X N M o % $ $ a a 1 , = O . O . # @ $ O O - [                             ",
"                                          Z t M M 8 X + 1 p i       t r X X + @ 8   + N ,.                              ",
"                                          +.O.M # A =.,.E n +                   r ' - V t.                              ",
"                                                  Z . 9 o.E -.                  (   -.1 =                               ",
"                                                      . O o - ;.                  2   @ F 2.                            ",
"                                                      + S > I $.t                         @                             ",
"                                                      s $ O.                                    t                       ",
"                                                                                                                        ",
"                                                                                                                        ",
"                                                                                                                        ",
"                                                                                                                        ",
"                                                                                                                        ",
"                                                                                                                        ",
"                                                                                                                        ",
"                                                                                                                        ",
"                                                                                                                        ",
"                                                                                                                        ",
"                                                                                                                        ",
"                                                                                                                        ",
"                                                                                                                        ",
"                                                                                                                        ",
"                                                                                                                        "
};
