/* XPM */
static char *d28bb4ef3b744fd9f9b33616dae413eeFuYbFzbuIivHCwW9[] = {
/* columns rows colors chars-per-pixel */
"60 60 209 2 ",
"   c None",
".  c #050605",
"X  c #080605",
"o  c #050903",
"O  c #090904",
"+  c #06060A",
"@  c #0A050B",
"#  c #060A0B",
"$  c #0A0A0B",
"%  c #150608",
"&  c #0A1405",
"*  c #0A0612",
"=  c #0C0C13",
"-  c #0B0A15",
";  c #140C14",
":  c #120F1A",
">  c #130816",
",  c #141414",
"<  c #15131A",
"1  c #210C1D",
"2  c #28121F",
"3  c #3F1C18",
"4  c #1C2512",
"5  c #232816",
"6  c #191522",
"7  c #1B1727",
"8  c #251E2A",
"9  c #2B1C2C",
"0  c #221724",
"q  c #331C29",
"w  c #232323",
"e  c #272527",
"r  c #252131",
"t  c #2E2B37",
"y  c #2D263D",
"u  c #2E293A",
"i  c #272438",
"p  c #32263D",
"a  c #332B3C",
"s  c #372436",
"d  c #39383F",
"f  c #451E3A",
"g  c #51302B",
"h  c #422237",
"j  c #413D3F",
"k  c #4A2F26",
"l  c #3D422E",
"z  c #3B423A",
"x  c #40413B",
"c  c #6D7A35",
"v  c #727C35",
"b  c #2D2642",
"n  c #312643",
"m  c #332A43",
"M  c #362C4A",
"N  c #3D2A44",
"B  c #3B324B",
"V  c #3B394D",
"C  c #373147",
"Z  c #352E50",
"A  c #3C3855",
"S  c #491F43",
"D  c #442B44",
"F  c #4A2747",
"G  c #572C47",
"H  c #5A294B",
"J  c #592845",
"K  c #50324A",
"L  c #5F2F55",
"P  c #413355",
"I  c #433C53",
"U  c #433A5C",
"Y  c #483B5B",
"T  c #593D5B",
"R  c #4A334D",
"E  c #65264A",
"W  c #663258",
"Q  c #4D3E63",
"!  c #4E3E69",
"~  c #433A61",
"^  c #513E6A",
"/  c #573D65",
"(  c #663C64",
")  c #414241",
"_  c #48444C",
"`  c #484158",
"'  c #4F5257",
"]  c #5A5A5A",
"[  c #565A58",
"{  c #5E5848",
"}  c #6A5A54",
"|  c #5A6B49",
" . c #6F795E",
".. c #454263",
"X. c #4D4366",
"o. c #4D426C",
"O. c #4B476A",
"+. c #514266",
"@. c #51426C",
"#. c #534C6D",
"$. c #594369",
"%. c #5A5569",
"&. c #4E4570",
"*. c #524671",
"=. c #544B76",
"-. c #554C7A",
";. c #594C79",
":. c #5A527A",
">. c #51537C",
",. c #69597A",
"<. c #6A4968",
"1. c #656166",
"2. c #686461",
"3. c #6F6D74",
"4. c #7A7B7A",
"5. c #797676",
"6. c #736D77",
"7. c #866A5C",
"8. c #7E9F50",
"9. c #748E48",
"0. c #7E807F",
"q. c #90BC67",
"w. c #9BA775",
"e. c #B3BB72",
"r. c #94C574",
"t. c #B4C57B",
"y. c #B6CB7E",
"u. c #5B5383",
"i. c #5C5986",
"p. c #5D5A8A",
"a. c #575485",
"s. c #5A4D82",
"d. c #625B8D",
"f. c #625D91",
"g. c #655B98",
"h. c #646294",
"j. c #65669A",
"k. c #6A659E",
"l. c #6B6BA3",
"z. c #6A6AA5",
"x. c #898B86",
"c. c #929293",
"v. c #9A9899",
"b. c #9CA280",
"n. c #9EA39C",
"m. c #8BA59A",
"M. c #B0A19C",
"N. c #B8B587",
"B. c #95BEAC",
"V. c #9BAEA8",
"C. c #A9AAA8",
"Z. c #AFB4AD",
"A. c #B1AFB0",
"S. c #AFB1B0",
"D. c #C4B689",
"F. c #BFCE88",
"G. c #B5C093",
"H. c #AFE78E",
"J. c #A5EA95",
"K. c #A9EC96",
"L. c #ACE69B",
"P. c #A4EC9B",
"I. c #AAEC9A",
"U. c #A5F197",
"Y. c #ABF196",
"T. c #84C8B1",
"R. c #9DF0B8",
"E. c #B7EEAA",
"W. c #A8E7A1",
"Q. c #C4CB8C",
"!. c #C3D58A",
"~. c #D3CD91",
"^. c #C4D390",
"/. c #D2DE9E",
"(. c #D0E193",
"). c #C3C1BF",
"_. c #E3DCA8",
"`. c #E5EFA7",
"'. c #ECFAA5",
"]. c #E9EDB5",
"[. c #EAF1BB",
"{. c #F5F8BD",
"}. c #F5F6B8",
"|. c #F3FBA5",
" X c #8FDBC1",
".X c #AFCFC4",
"XX c #9BF2CA",
"oX c #9DF3D7",
"OX c #B2EDCF",
"+X c #A5F5D6",
"@X c #A5F6CB",
"#X c #CBCBCA",
"$X c #C4C2C3",
"%X c #C9D2CF",
"&X c #DCDDDC",
"*X c gray84",
"=X c #CDD9D5",
"-X c #F6F6C8",
";X c #F8FAD4",
":X c #F9F9DE",
">X c #F7F6DA",
",X c #C2EEE1",
"<X c #DDFCF6",
"1X c #E4E4E3",
"2X c #EFE9E9",
"3X c #F7F5ED",
"4X c #F9F8E8",
"5X c #FFFFFF",
"6X c #F8F7F5",
/* pixels */
"                                                                                                                        ",
"                                                                                                                        ",
"                                                                                                                        ",
"                                                                                                                        ",
"                                                                                                                        ",
"                                                                                                                        ",
"                                                                                                                        ",
"                                                                          5X5X5X5X5X                                    ",
"                                                                      &X$XS.Z.Z.#X&X                                    ",
"                                                                    %X1X] ] 3.] c.*X                                    ",
"                                                                  #Xz OX# 5 K.oX1X&X                                    ",
"                                                              n.[ E.o 4 P.K.XXz =X                                      ",
"                                T                           5. .| o r.L.I.P.+X1X                                        ",
"                                2 _                       ).e . . + . o 5.+Xj                                           ",
"                                # <.C.c.x.] #X      0.1.h.6.X.B N t + 5XOXT.V.                                          ",
"                                7 F - 7.:.= ,.z 1.) } % w.`.!.y.O n b n 0 @ 1X                                          ",
"                                  * < B M . s X q q O -X3X>X`.o n n b m m y I I                                         ",
"                                  ^ *.= + O a ; o q Q.3X>X].# V p Y @.o.* o = + Z.                                      ",
"                                      A 4.$ : @ o @ e.N.$ 2.I X.o.! r i #.i + : ,.[                                     ",
"                                          @ < . $ . ; R D +.! X.o.+ :.u.p.u.u.=.+ 8                                     ",
"                                          $ , &X* D 1 H ( $.o.@.+ ;.p.f.h.j.h.:.;.e                                     ",
"                                          + w 6X+ H J @ G / B @ -.i.h.l.k.j.h.d.u.@                                     ",
"                                          o w 6X@ W E J @ O t Z a.p.j.l.l.>.h.p.u.=.                                    ",
"                                          . w ).+ L E @ D / ` $ A i.j.l.z.l.V O.-.;.[                                   ",
"                                          # w $ + F X H ( Q ! ! * o.a.l.z.z.k.C ` ;.1.                                  ",
"                                          # = 4.X n D G H T ^ ^ *.7 ..a.j.l.k.g.$ P                                     ",
"                                $ %.) 6.%.> O w = @ 5 % K F Q ^ Q ^ = ..i.j.j.f.u.o                                     ",
"                                r -.O.$X+ 6 U < p x t.y.| < N ! X.@.@.O ~ i.i.d.u.#.                                    ",
"                                @.=.- # O m @ * u t.{.-X/.`.@ R o.o.o.X.o U i.u.u.=.                                    ",
"                                I = *.+ t p n $ : !.-X6X;X{.'.+ p o.o.Q . t U u.-.*.                                    ",
"                              O.; o ~ b p $ p 0 * N.-X3X4X;X`.(._ b o.o.7 * M Z =.@.                                    ",
"                              $ f @ ..Y < + 9 & $ D.].:X4X4X{.F.. p P @.@.7 r m M                                       ",
"                              s @ + 7 :.. % } O h N._.-X:X4X;X'.w.B t X.+.X $ b                                         ",
"                                    + &.. . % @ f % ~.[.{.{.}.|.t.t n b o.` m _                                         ",
"                                    M I 7 b $ $ @ f 9 X N.^.!.^.Q.X b y X.@.:                                           ",
"                                      $ d M < $ 7.X ; n p r = @ # o y n n o.                                            ",
"                                      m m $ = . '   2X, a @.Q U A 8                                                     ",
"                                      +.r   { { _   g 3 M.$ B @.^                                                       ",
"                                      o.              k O  X<Xo n                                                       ",
"                                                        8.L.U.@X,X                                                      ",
"                                                        v J.I.I.R.                                                      ",
"                                                          9.J.I.I.XX                                                    ",
"                                                          c J.I.I.P.                                                    ",
"                                                          & r.J.I.I.                                                    ",
"                                                          & c J.I.Y.W.                                                  ",
"                                                            * 8.K.I.I.+X                                                ",
"                                                          ]   o H.Y.P.XX]                                               ",
"                                                            ] oX. L.I.I..X.X                                            ",
"                                                              ] +Xo P.Y.+Xx.                                            ",
"                                                                5.d e Y.XX[                                             ",
"                                                                  c.x.x E.T.                                            ",
"                                                                      Z.v.m.                                            ",
"                                                                                                                        ",
"                                                                                                                        ",
"                                                                                                                        ",
"                                                                                                                        ",
"                                                                                                                        ",
"                                                                                                                        ",
"                                                                                                                        ",
"                                                                                                                        "
};
