/* XPM */
static char *_f8046391ea643bad454fbd066132ade60toRumr9DYERXZV[] = {
/* columns rows colors chars-per-pixel */
"60 60 84 1 ",
"  c None",
". c black",
"X c #030201",
"o c #000402",
"O c #050400",
"+ c #0E0000",
"@ c #080502",
"# c #010A05",
"$ c #020D06",
"% c #020D07",
"& c #020E07",
"* c #0B0A00",
"= c #0B0803",
"- c #130000",
"; c #100E01",
": c #100B04",
"> c #160F05",
", c #02130A",
"< c #031B0E",
"1 c #161202",
"2 c #161401",
"3 c #1B1503",
"4 c #201C01",
"5 c #2D1F0A",
"6 c #052715",
"7 c #06361D",
"8 c #073A1F",
"9 c #2F2902",
"0 c #2E2903",
"q c #30210B",
"w c #35240C",
"e c #38260D",
"r c #083F22",
"t c #432E0F",
"y c #413902",
"u c #463D03",
"i c #493E04",
"p c #513713",
"a c #084324",
"s c #09502A",
"d c #0C6134",
"f c #0D6E3A",
"g c #0D723C",
"h c #0E773F",
"j c #4C4303",
"k c #514703",
"l c #504009",
"z c #5F5304",
"x c #5F4116",
"c c #605404",
"v c #705F07",
"b c #644417",
"n c #674618",
"m c #734F1A",
"M c #0F7B41",
"N c #AB0000",
"B c #EB0000",
"V c red",
"C c #895D1F",
"Z c #847305",
"A c #897705",
"S c #8F7D05",
"D c #8C6020",
"F c #916321",
"G c #946522",
"H c #108A49",
"J c #129650",
"K c #139E54",
"L c #13A357",
"P c #13A457",
"I c #14A759",
"U c #15AD5C",
"Y c #15B15E",
"T c #948106",
"R c #A69106",
"E c #B59E07",
"W c #B69F07",
"Q c #BFA607",
"! c #BFA707",
"~ c #C5AC07",
"^ c #CAB008",
"/ c #D0B608",
"( c #D4BA08",
") c #D5BA08",
/* pixels */
"                                                            ",
"                               .                            ",
"                              ..                            ",
"                              ..                            ",
"                              ..                            ",
"                              ..                            ",
"           ..                 ..                            ",
"           .~;               ...                            ",
"           .);               .S*                            ",
"           .Sj1              .);.                           ",
"            .~u.             .)4O.               .          ",
"            .~u.             .))u.             ...          ",
"            .~)S.           ;)))u.            ...           ",
"             ;TS..          ;)))u.            ..            ",
"             .S!Z.          ;)))u.           ..             ",
"             .cR^u         .;)))u.          00.             ",
"             ..u));       .O4)))u..        ;AZ.             ",
"              .u)));.......u))))u.....   ..~u..             ",
"              .u))))uqGGGGqu))))uqGGG=....))u.              ",
"                ;;))uqGGGGqu))))uqGG=.Z~~~))u.              ",
"               ...))uqGGGGqu))))uqDq.Z~))))k2.              ",
"              .2y.))uqGGGGq0SSSSlpC.u^/))));.               ",
"              .u~.~~yqGGGGe===*=nGC.))))))~;                ",
"              .u~....qGGGGGGGGGGGGC.))))))..                ",
"              .u~.GGGGGGGGGGGGGGGGC.))))))....         .    ",
"              .u)~=====*======GGGGC.)))T;;CC5.      ....    ",
"               1k)SSSSSSSSSSSSqqqpC.uuu0=bGGmt.....0Z.      ",
"                *SSSSSSSSSSST)uuiibqqqqqeFGnnt..iuuzZ.      ",
"                ...--+..%%%#;~~~/T3CCGGGGCC3;;;;)))S..      ",
"                 ..BVN..YYYM....S)~..CGGC..~)))))))S.       ",
"                 .....%YYYYYYYY&.u)))*nGC.))))))))u.        ",
"                  ..fLPYYYYYYYUI8O*1)~ieC.;~))));;O.        ",
"                   .6dYYYYYYYYYYHhg.u^Rvwb.~))^u...         ",
"                   ..8YYYYYYYYYYYYI8.Z!Rib.~)!Z.qX.         ",
"                    .8LYYYYYYYYYYYYY%.Z^~..W~Z.*G1..        ",
"                      %YYYYYYYYYYYYYY%.u~.....=GGGq.        ",
"                      &YYYYh%YYYYYYYYY8u~.GGGGGGGGq.        ",
"                      %YYYYh%YYYYM<YYY8u~.GGe===GGq.        ",
"                      %YYYYh%YYYYh%YYY8u~.GGq0SSqq:.        ",
"                      %YYYYh&YYYYh%YYY8u~.GGqu))uO..        ",
"                      %YYYIg<YYYIf%YYY8u~.GGqu)))4O..       ",
"                      %YYY88YYYY8.%YYY8u~.GGqu))))u...      ",
"                      ..Y%hYYYYY88YYYY8u~.GGqu))))))))..    ",
"                       .%.hYYYY<o8YYYY8u~.GGqO4)))))))~;..  ",
"                       ..fKYYYY%sHYYYY8u~.GGmtOuuuuuuuuO..  ",
"                       ..PYYUhhaHYYYYY8u~.GGGmqq.........   ",
"                        .JLLJ.%PYYYYYYru~;CGGFCC..          ",
"                        ......YYYYYYYY7u)).CGn...           ",
"                         .hYYYYYYYYYYY8.;));..*(.           ",
"                         .#aYYYYYYYYYYIf;))~~~Q;.           ",
"                          .,aYYYYYYYYYYhOuu^)Ry.            ",
"                          ..#hYYYYYYYYYH88.ZSc..            ",
"                         .#%%.LPUYYYYYYUPP..#%%             ",
"                        ..hYL...hYYYYYYh....hYL.            ",
"                        .LYYYYYY8.......%YYYYYL.            ",
"                        .%MYYYY<o.      %YYYYM%.            ",
"                         .6r888o.        8YYd6.             ",
"                         .......         .hh6..             ",
"                                         .....              ",
"                                                            "
};
