/* XPM */
static char *_fbf6283dec04b9bb3a7ab16fef420a3e6Xour396K3Glxq2[] = {
/* columns rows colors chars-per-pixel */
"60 60 256 2 ",
"   c None",
".  c #0F170F",
"X  c #1B2610",
"o  c #041E3A",
"O  c #0B1A25",
"+  c #0C222A",
"@  c #17252B",
"#  c #072339",
"$  c #142937",
"%  c #183432",
"&  c #2D3133",
"*  c #2F1A19",
"=  c #431D0F",
"-  c #593006",
";  c #6D320B",
":  c #6B2D25",
">  c #364216",
",  c #304930",
"<  c #347232",
"1  c #0E4916",
"2  c #654606",
"3  c #7A5412",
"4  c #50502C",
"5  c #707333",
"6  c #625827",
"7  c #0F0D5A",
"8  c #022544",
"9  c #02264A",
"0  c #012C4D",
"q  c #072A46",
"w  c #032C51",
"e  c #02345C",
"r  c #043154",
"t  c #11334E",
"y  c #273749",
"u  c #373450",
"i  c #161875",
"p  c #0F1268",
"a  c #023462",
"s  c #023A69",
"d  c #112C73",
"f  c #383768",
"g  c #252B7B",
"h  c #3A3B79",
"j  c #2C2E70",
"k  c #200F55",
"l  c #4C3655",
"z  c #473B6A",
"x  c #712F5B",
"c  c #194459",
"v  c #1C424A",
"b  c #2A4C54",
"n  c #02447B",
"m  c #064475",
"M  c #154A6D",
"N  c #2F4E71",
"B  c #326B70",
"V  c #34794F",
"C  c #4D4B4D",
"Z  c #6E7051",
"A  c #534C73",
"S  c #6E5570",
"D  c #576F78",
"F  c #736A6E",
"G  c #7B5250",
"H  c #8A390E",
"J  c #BD1D2A",
"K  c #D92C33",
"L  c #895904",
"P  c #895816",
"I  c #8F540D",
"U  c #936C0E",
"Y  c #A97718",
"T  c #AB730E",
"R  c #8B502A",
"E  c #916A2F",
"W  c #AC7228",
"Q  c #A75C18",
"!  c #91386B",
"~  c #A22E5F",
"^  c #B25056",
"/  c #91754C",
"(  c #B37042",
")  c #8D7272",
"_  c #924664",
"`  c #CC724D",
"'  c #D65763",
"]  c #CB5C3A",
"[  c #758338",
"{  c #2F8544",
"}  c #768F48",
"|  c #618C72",
" . c #B88216",
".. c #B48609",
"X. c #978837",
"o. c #B68A2C",
"O. c #9E801E",
"+. c #C89114",
"@. c #E8B71C",
"#. c #C79028",
"$. c #D6B134",
"%. c #E8B526",
"&. c #EEC937",
"*. c #E4C32D",
"=. c #908255",
"-. c #AD9349",
";. c #8B8A71",
":. c #B1926F",
">. c #BCA57C",
",. c #B5AB6C",
"<. c #B9A457",
"1. c #D18B4E",
"2. c #E38C52",
"3. c #D4AE51",
"4. c #E5BF45",
"5. c #D6B867",
"6. c #C9A77A",
"7. c #D1B173",
"8. c #E3BE6E",
"9. c #C59B6A",
"0. c #8ECE78",
"q. c #FDDB47",
"w. c #FBD859",
"e. c #EACB55",
"r. c #F6E252",
"t. c #CCC475",
"y. c #F9D966",
"u. c #E8C578",
"i. c #F0D171",
"p. c #F0E377",
"a. c #1D2788",
"s. c #272789",
"d. c #34398A",
"f. c #343696",
"g. c #2D318D",
"h. c #3533A5",
"j. c #1D1C8E",
"k. c #48398F",
"l. c #433EB9",
"z. c #024A88",
"x. c #055489",
"c. c #004C93",
"v. c #035698",
"b. c #14548D",
"n. c #39448C",
"m. c #176994",
"M. c #346483",
"N. c #2B6B8E",
"B. c #035AA2",
"V. c #3944A3",
"C. c #0366AD",
"Z. c #0476BA",
"A. c #066EB0",
"S. c #3973A3",
"D. c #454788",
"F. c #484898",
"G. c #575390",
"H. c #675693",
"J. c #537689",
"K. c #736C8C",
"L. c #4948A6",
"P. c #564CAA",
"I. c #5A57B8",
"U. c #5050AF",
"Y. c #6558AE",
"T. c #6868A8",
"R. c #7777A8",
"E. c #7A69BA",
"W. c #716BAD",
"Q. c #3436C7",
"!. c #0774C6",
"~. c #524CC6",
"^. c #7067CA",
"/. c #615EC9",
"(. c #887A8A",
"). c #8D7690",
"_. c #8B74B2",
"`. c #885C99",
"'. c #8971CD",
"]. c #D97889",
"[. c #308492",
"{. c #2C8DBA",
"}. c #0788BF",
"|. c #558B97",
" X c #6D8B93",
".X c #548FAC",
"XX c #6D9AB0",
"oX c #6DA4B3",
"OX c #57AFA7",
"+X c #65C8A5",
"@X c #4E9EC5",
"#X c #63ADC9",
"$X c #49C3D4",
"%X c #908C93",
"&X c #AE928C",
"*X c #B3A994",
"=X c #9488AE",
"-X c #B698B6",
";X c #AE8DB1",
":X c #99AAB3",
">X c #BBA6B6",
",X c #B2ADB3",
"<X c #C89893",
"1X c #D0B092",
"2X c #D09AAA",
"3X c #D9BBA5",
"4X c #CDAFB2",
"5X c #ECBAB3",
"6X c #E6AA9A",
"7X c #8DDB8A",
"8X c #B3D191",
"9X c #8BE38C",
"0X c #A7EC91",
"qX c #D2CE8D",
"wX c #ECD58F",
"eX c #FCE991",
"rX c #D7C7AF",
"tX c #E5C7B7",
"yX c #EAD4BA",
"uX c #F4DCB8",
"iX c #EED4A9",
"pX c #D0ECAB",
"aX c #F8E8A9",
"sX c #F2EDB9",
"dX c #9584D2",
"fX c #B093CA",
"gX c #B7B0D0",
"hX c #A5ABD6",
"jX c #CDB6D7",
"kX c #CFB2CB",
"lX c #EFB6CC",
"zX c #D5AADD",
"xX c #A6D5D0",
"cX c #DBC8D9",
"vX c #D0D0D1",
"bX c #E9C8CB",
"nX c #ECD9C5",
"mX c #F2DBC8",
"MX c #E6C9D9",
"NX c #EAD7D7",
"BX c #F6D6D9",
"VX c #F4C8CE",
"CX c #F4E2CC",
"ZX c #F7E7C6",
"AX c #FCF8C7",
"SX c #EAE5D5",
"DX c #FDEDDB",
"FX c #F6E7D9",
"GX c #FCF7D8",
"HX c #E8F0C8",
"JX c #ECD6E3",
"KX c #F9EAE5",
"LX c #FDF3E5",
"PX c #FCF9E6",
"IX c #EAEDEC",
"UX c #D6E8E3",
/* pixels */
"                                                        GXaXt.GX                                                        ",
"                                                    DX4.&.wX:.F %X                                                      ",
"                                              wXi.GX3.&X:.S F.z D.F                                                     ",
"                      SXIX        NXSXHXrX*XsXe.@.3.K.N n.f Y.Y.G.G.S F vX                                              ",
"                    3X` 2X<X].&XS A S K.D A p.&.O.&XG.z h z H.'.'.W.-X).(.(.                                            ",
"                    6XK J ~ x ).=X XA d.D.D.*X&.*.$.5.<.) -XkX-XfX'.kX=X=X-X%X                                          ",
"                    4XK J `.W.W.H.n.d.s.d.N %XqXw.w.y.w.e.4.6.kXlXcXMXMXkX4X>X                                          ",
"                    <XK ~ k.I.l.V.V.f.s.F.R.=X).) 9.3.4.w.w.w.8.lXVXVXMXVXVX4X                                          ",
"                    2X^ ! ~.h.Q.h.n.f.h Y.XX XT.F.n.D.A G 7.e.w.5XMXBXBXBXBXVXCX                                        ",
"                    5X_ ! ~.Q.j.V.L.j D.R.R.W.G.A C & & y u S 5.iXBXBXKXBXBXiX8.y.aX                                    ",
"                      S x k.U.I.N F u N R.A G.S Z ZXHXZXmX| y -X3XBXKXLXDXLX8.y.r.q.r.                                  ",
"                      ) S x g.j wX&.3.K.L.z C / GXKXGXq n.d & %XBXKXLXPXPXLXwX1X;...                                    ",
"                        K.W.f.s.p.$.* l _.fXu DXGXGX@ {.{.{.v C BXKXLXPXPXPXMX_.H.=.                                    ",
"                        ].kXlX2X1.q.q.i.wXi.8.-.wXPX|.$X$X[.[., FXLXPXPXPXLXK., C                                       ",
"                      FXlX' lX].3 7.) 6.6.8.8.i.w.1Xb xXIX# [.F LXPXPXPXPX*X XsX4                                       ",
"                      lX<XlXlXlXW R & ) <X7.8.3.qX4XNXvXb q b 4XDXPXPXIXGXN :X:XZX                                      ",
"                      DXVX' ' lXW q.q.q.q.y.u.u.8.BXBXKXFXSXSXZXGXLX^ 2X,XoX|.xXHX                                      ",
"                        VX6XBXJX&XHX/ C A fXkXMXNXJXJXKXFXLXDXDXPXPXtX' vXPXy +XpX                                      ",
"                          BXIXBXkXUXgXn.V.Y.hXkXMXMXJXBXBXDXDX3XZXDXZXIXSX%XB B ;.                                      ",
"                          bXJXJXvX%XvX%Xn.h.F.T.gXcXjXMXNXFXLXDX' ; 6X:.GXPXPXmXu.sX                                    ",
"                          JXcXcXcX-XK.l j g g.V.'.zXkXjXcXMXBXSXK K ^ GXLXDXZXZXi.r.PX                                  ",
"                            kXjXjXjX_.D.F.F.s.s.k._.'.dXfXjXjXMXBX5XlXBXNXnXyXtX*.*.sX                                  ",
"                            R.dXdXhX_.P.P.g p p >.9.) `.=X;XfX-X-X-X4X4X*X1X3X-.@.*.GX                                  ",
"                            %XK.E.dXE.P.L.g g.f.k 9.w.y.7._ `._.).).).) ) F F $.*.eX                                    ",
"                              K.G.T.T.I.L.V.n.i s.s.k wXe.8X3.W S F ,XIX    >.t.&.p.                                    ",
"                              gXA n.L.I.L.i g.j.f.h.V.k t.0X$.3./ %X            $.                                      ",
"                              :XIXU.^.U.^.U.s.j.f.V.n.g.l l z S hX                                                      ",
"                              gX=XL.I.I.I.i f.i s.d.g L.n.j D.(.).                                                      ",
"                              =XE.g./.I.^.'.h.j.p g 7 h.g 7 N R.(.                                                      ",
"                              T.U.V.U./.^.'.l.i p s.i j.i j z %X&X                                                      ",
"                              D.U.h.g.~.^.'.dX7 7 p 7 j j A _.2X4X*X                                                    ",
"                              h U.I.f.f.Y.^._.E.E.Y.G.f u =X-X2X5XtXnX                                                  ",
"                              hXL./.P.k.j k.Y.H.H.z l z S _.2XkXbXVXCXZXwXwXsXsXAXAXAXsX                                ",
"                                D.I.I.~.k.z l z l x S S S F cXbXbXbXmX:.7.wXwXwX7.-.<.5.7.                              ",
"                                UXk./.E.H.;X4XmXFXBX*Xl S S cXlXkXMXtXiXiXaXiXaXaXaXaXeXAX                              ",
"                                kXvXKXFXBXDXCXFXmXmXuXyX3X) >X. . & < 5 pXAX;.sXaXaXwXaXAX                              ",
"                              DXuXZXZXZXCXCXCXZXuXmXyXyXrX*XX < < < 5 =.qXpXHX8X1XiXwXwXsX                              ",
"                            iX1XsXZXmXmXmXmXmXyXvX:X X%X*XZ | 1 < > . X X pXsXpX4 R R W 9.GX                            ",
"                          1X5 uXuXnXnXnXuXtX` x ) %X%X#XXX+ { 1 } ( ` 1.t.pXsXpX[ L -.5.o.Q X.                          ",
"                          >.6.yXyXyXtX5XR H H Q #.#.o. X.XD { } ` 2.,.0.0.0XpXpX2 U 2 U U +.$.3.                        ",
"                        CX6.1XrX3X6X/ H H ` $.= * 3 Z .X#X{ } ` 3.t.0.0.7X7X7X> 6 3 - U U U r.sX                        ",
"                        >.>.>.<X<X; H  .+.; 3 $.2 =  X.XJ.4 ( 2.qX9X9X+X0.0.[ 3 L U O.U Y 3 U &.GX                      ",
"                      :.:.:.>.; ; Q +.+.%.T P ; - & .X.XJ.& 7.8X9X9X7X0.} X.3 - $.$.p.AXsX1X-.X.                        ",
"                      :.:.&X- H +.T +.T  .; - P W A.@XoXXXF | +X+X+X[.D L Y %.@.@...*.r.AXqX                            ",
"                      *X:.E L T T T Y ; R Q Y ; B }.#XoXoX Xb | b c N.B 5 > X.AXZXwX3.$.                                ",
"                      DX .Y L L Y  .Y  ... .U +.A.Z.@X#X=X|.M M % c B |.B S.b *X                                        ",
"                    aX$.U L I I Q T o.W .. .+.X.M A.A.XXXXG.b.m.M c B .XN | |.                                          ",
"                  7.#.L 2 P L L U T #.U Q  .-.b n x.v.S..XM.b.B.M N.b.N.N.N.|.oX                                        ",
"                  o.W 2 =.*XW I I T W O.I 3.t m z.z.c.c.S.b.B.B.M m.m.{.Z.C.m.UX                                        ",
"                  E 4     ( E U I 3 2 2 6 b M m z.c.c.c.c.B.C.B.x.x.m.A.Z.!.!.}.$X                                      ",
"                            5 3 3 3 4 & y c c m s c.c.c.z.v.C.B.v.A.m.C.Z.Z.Z.C.{.v                                     ",
"                            . X X % t $ v c c e d m m m s c.c.B.x.m.x.C.C.v.v.c.s s $                                   ",
"                          . @ @ @ % % % y c r a s M s s s z.B.B.n z.x.z.c.c.z.m r r q O                                 ",
"                        @ O @ @ & & & % # r r m d t t e a z.c.v.n n c.x.a.m a 0 8 q 0 0                                 ",
"                        O @ @ @ + + O # t t r e w w 9 w e s s z.n n x.z.n s a w 8 # # q                                 ",
"                          %X& % + + $ q # 8 q q 9 9 9 9 w w e a e e s n n s s e 0 9 q D                                 ",
"                              + @ @ @ o + # o 8 o o 8 8 8 9 9 w 0 0 e m m m s s e r 0 #                                 ",
"                                O @ + + # o o o 8 8 8 9 9 9 9 0 0 0 0 0 e s e e r 0 #                                   ",
"                                    IXUXvXvXD o # 9 8 9 8 8 0 w r r 0 q t # $ J.vX                                      ",
"                                                  :XG.y y t t b J.:X                                                    "
};
