/* XPM */
static char *_6c2488c94334af7cfc069c96c9f8445j9zQG6dcXv1Ae4XK[] = {
/* columns rows colors chars-per-pixel */
"60 60 232 2 ",
"   c #575761",
".  c #585860",
"X  c #595961",
"o  c #585862",
"O  c #595963",
"+  c #5A5A62",
"@  c #5B5B63",
"#  c #595965",
"$  c #5A5A64",
"%  c #5B5B65",
"&  c #5B5B67",
"*  c #595C65",
"=  c #5B5E65",
"-  c #5C5C64",
";  c #5C5C66",
":  c #5D5D67",
">  c #5E5E66",
",  c #5C5C68",
"<  c #5E5E68",
"1  c #5F5F69",
"2  c #5E5E6A",
"3  c #60606A",
"4  c #61616B",
"5  c #62626C",
"6  c #63636D",
"7  c #646470",
"8  c #656571",
"9  c #666672",
"0  c #696973",
"q  c #6D6D77",
"w  c #6D6D79",
"e  c #6D6C7A",
"r  c #6E6D7B",
"t  c #6E6E7A",
"y  c #6F6F7B",
"u  c #6F6E7C",
"i  c #72717F",
"p  c #73737F",
"a  c #737280",
"s  c #7F7F8B",
"d  c #7F7E8C",
"f  c #807F8D",
"g  c #81808E",
"h  c #82818F",
"j  c #838290",
"k  c #838292",
"l  c #848391",
"z  c #848393",
"x  c #858492",
"c  c #868593",
"v  c #868692",
"b  c #858494",
"n  c #868595",
"m  c #878694",
"M  c #858496",
"N  c #868597",
"B  c #858796",
"V  c #878696",
"C  c #888795",
"Z  c #888596",
"A  c #888797",
"S  c #898995",
"D  c #898896",
"F  c #8A8997",
"G  c #8A8A96",
"H  c #878698",
"J  c #888799",
"K  c #898898",
"L  c #8A8999",
"P  c #898B98",
"I  c #8B8A98",
"U  c #89889A",
"Y  c #8A899B",
"T  c #8B8A9A",
"R  c #8C8B99",
"E  c #8C8B9B",
"W  c #8C8C98",
"Q  c #8D8C9A",
"!  c #8E8D9B",
"~  c #8B8A9C",
"^  c #8C8B9D",
"/  c #8D8C9C",
"(  c #8E8D9D",
")  c #8D8F9E",
"_  c #9291A1",
"`  c #9493A3",
"'  c #9695A3",
"]  c #9392A4",
"[  c #9493A5",
"{  c #9594A4",
"}  c #9695A5",
"|  c #9594A6",
" . c #9695A7",
".. c #9796A6",
"X. c #9897A7",
"o. c #9694A9",
"O. c #9796A8",
"+. c #9697A9",
"@. c #9998A8",
"#. c #9A99A9",
"$. c #9A99AB",
"%. c #9B9AAA",
"&. c #9E9DAD",
"*. c #A0A1B3",
"=. c #A1A2B4",
"-. c #A3A2B4",
";. c #A2A3B5",
":. c #A1A2B6",
">. c #A2A3B7",
",. c #A3A6B5",
"<. c #A3A4B6",
"1. c #A4A5B7",
"2. c #A5A7B6",
"3. c #A6A8B7",
"4. c #A3A4B8",
"5. c #A3A4B9",
"6. c #A4A5B9",
"7. c #A5A6B8",
"8. c #A6A7B9",
"9. c #A4A5BA",
"0. c #A5A6BA",
"q. c #A5A6BB",
"w. c #A6A7BB",
"e. c #A6A7BC",
"r. c #A7A9B8",
"t. c #A7A8BA",
"y. c #A7A8BC",
"u. c #A7A8BD",
"i. c #A8AAB9",
"p. c #A8A9BB",
"a. c #A9ABBA",
"s. c #A8A9BD",
"d. c #A9AABC",
"f. c #AAABBD",
"g. c #A8A9BE",
"h. c #A9AABE",
"j. c #A9AABF",
"k. c #AAABBF",
"l. c #ABADBC",
"z. c #ABACBE",
"x. c #ACADBF",
"c. c #AAABC0",
"v. c #ABACC0",
"b. c #ACADC1",
"n. c #ADAEC0",
"m. c #B1B2C4",
"M. c #B1B2C6",
"N. c #B2B3C7",
"B. c #B3B4C6",
"V. c #B3B4C8",
"C. c #B4B5C9",
"Z. c #B7B8CC",
"A. c #B8B9CB",
"S. c #B8B9CD",
"D. c #B9BACE",
"F. c #BABBCF",
"G. c #BBBCCE",
"H. c #BCBDCF",
"J. c #BBBCD0",
"K. c #BBBCD1",
"L. c #BCBDD1",
"P. c #BEBFD1",
"I. c #BCBDD2",
"U. c #BDBED2",
"Y. c #BDBED3",
"T. c #BEBFD3",
"R. c #BCBCD4",
"E. c #BEBFD4",
"W. c #BEBED6",
"Q. c #BFBFD7",
"!. c #C0BED3",
"~. c #BFC0D2",
"^. c #BFC0D4",
"/. c #BFC0D5",
"(. c #BFC1D6",
"). c #C0C1D3",
"_. c #C0C1D5",
"`. c #C1C2D4",
"'. c #C2C3D5",
"]. c #C0C1D6",
"[. c #C1C2D6",
"{. c #C1C2D7",
"}. c #C2C3D7",
"|. c #C1C4D7",
" X c #C0C0D8",
".X c #C1C1D9",
"XX c #C2C3D8",
"oX c #C2C2DA",
"OX c #C3C4D8",
"+X c #C3C4D9",
"@X c #C4C5DA",
"#X c #C5C6DB",
"$X c #C5C5DD",
"%X c #C6C7DC",
"&X c #C7C7DF",
"*X c #C7C8DD",
"=X c #C8C9DE",
"-X c #C9CADF",
";X c #C8C8E0",
":X c #C9C9E1",
">X c #CACBE0",
",X c #CACAE2",
"<X c #CBCBE3",
"1X c #CBCCE1",
"2X c #CCCDE2",
"3X c #CDCEE3",
"4X c #CCCCE4",
"5X c #CDCDE5",
"6X c #CECFE4",
"7X c #CECEE6",
"8X c #CFCFE7",
"9X c #CFD0E5",
"0X c #D1D2E7",
"qX c #D0D0E8",
"wX c #D1D1E9",
"eX c #D2D2EA",
"rX c #D3D3EB",
"tX c #D3D4E9",
"yX c #D5D6EB",
"uX c #D4D4EC",
"iX c #D5D5ED",
"pX c #D6D6EE",
"aX c #D7D7EF",
"sX c #D7D8ED",
"dX c #D9DAEF",
"fX c #D6D6F0",
"gX c #D7D7F1",
"hX c #D8D8F0",
"jX c #D9D9F1",
"kX c #DADBF0",
"lX c #D8D8F2",
"zX c #DADAF2",
/* pixels */
"uXuXuXhXhXhXhXhXfXuXhXaXuXuXaXaXuXuXhXhXhXhXaXhXuXhXuXuXaXuXuXhXuXhXeXuXhXuXuXuXuXhXhXhXhXuXhXeXuXhXhXuXhXhXuXhXhXhXaXuX",
"uXuXhXhXhXhXuXhXhXhXhXhXhXuXrXhXuXhXuXuXhXuXhXuXaXuXuXuXeXuXhXhXeXuXhXhX4XuXuXhXhXuXuXhXeXhXhXuXhXhXhXeXuXhXuXhXhXuXqX4X",
"1XeXuXuXhXuXuXhXdXrXhXhXhXuXhXhXhXaXuXhXuXhXuXuXeXhXuXeXhXhXaXuXhXhXhXeXeXhXuXuXuXuXuXhXhXuXuXhXzXhXuXhXfXhXhXhXeXuX<X<.",
"Y.$XhXhXhXuXhXhXhXhXhXhXuXuXhXuXuXuXaXuXuXhXhXeXuXuXuXuXhXhXuXuXuXuXhXhXhXuXuXhXhXuXhXuXeXuXhXhXhXuXhXhXhXuXuXeXuXeX#.T ",
"XX+X-XeXuXhXhXhXfXuXhXuXhXhXhXhXhXhXeXhXhXhXrXaXhXuXhXhXhXuXaXuXuXuXhXuXuXuXhXhXeXhXhXeXuXhXhXuXuXlXlXhXuXhXuXuX6X8.T C ",
"^.^.}.@XuXhXhXuXhXuXeXuXhXhXuXhXuXaXhXuXuXhXhXaXrXhXhXhXuXuXeXhXhXhXhXeXhXhXhXuXuXuXuXhXhXhXeXuXhXsXlXtXuXuXuXuX@.J z C ",
"XXXX^.+X2XuXhXhXuXhXhXhXeXuXhXuXhXuXhXuXhXhXeXeXuXhXhXuXuXhXaXhXuXuXhXhXhXuXhXhXhXhXhXhXhXuXhXhXhXuXuXlXsXlX2X8.J C C T ",
"I.W.}.}.%X$XuXuXhXrXuXuXhXhXuXeXuXzXeXhXuXuXuXhXhXuXuXrXuXhXhXhXeXhXuXhXuXhXuXeXuXhXuXuXuXuXuXhXuXdXsXlXsXqXo.T T J C J ",
"^.XX+XXX(.XX,XuXeXlXfXlXsXlXeXdXhXuXzXhXhXuXuXhXuXuXuXuXhXhXuXuXhXhXfXfXhXuXuXhXuXtXuXhXhXhXuXdXuXhXuXuX-X8.n F T T C T ",
"+X+XXX^.^.+X(.#XuXuXuXsXlXuXuXuXuXuXhXhXhXhXhXhXeXuXhXuXuXuXuXhXuXhXzXfXuXuXuXuXuXhXhXhXsXhXhXhXhXfXfX9XX.T J J T b b b ",
"XX^.Y.XX+X^.^.^.*XuXhXhXlXdXuXuXfXhXhXuXhXuXaXuXeXhXhXhXuXuXhXaXhXrXhXuXhXuXuXuXhXuXhXuXfXuXuXhXuXhX2X8.^ F J C J C J C ",
"J.Q.}.XX(.^.^.+X^.$XqXhXuXuXuXhXuXhXhXuXuXeXuXyXhXhXuXuXuXeXhXuXrXuXuXhXhXeXhXhXuXhXfXeXhXhXlXsXuXeX%.T x J C T C z T J ",
"W.^.+X^.^.}.XXXX^.+X1XtXtXuXhXhXuXhXuXuXaXuXeXeXuXhXhXaXhXhXhXuXuXuXhXhXuXuXhXuXhXhXuXhXkXuXdXuX9X<.C n J J C J C T C J ",
"}.}.^.W.^.Y.XX^.^.}.^.$XeXlXuXlXuXhXuXaXaXeXuXhXuXhXhXdXeXhX9XdXuXhXuXhXhXhXhXeXhXhXuXhXuXuXlXtX@.C C C C T ^ C T J n T ",
"^.+X^.^.^.+XI.}.^.^.^.}.@XyX9X;X,X2X,X2X-X-X4X<X,X2X,X@X2X-X-X2X-X*X1X,X4X4X,X,X,X-X9X1X,X1X$X8.b n J J T T C J J T T C ",
"}.^.^.+X+X}.+X}.}.}.XXW.+X+Xh.z.h.h.8.h.x.h.b.8.p.x.r.x.h.h.h.h.8.h.z.h.z.h.h.h.c.c.y.8.z.c.) n C T T C n C J C C J C J ",
"XX+X^.^.W.^.}.XX^.(.}.^.^.^.h.r.8.h.e.e.h.h.h.8.h.h.h.8.h.>.h.;.h.h.h.y.y.h.h.h.h.p.8.h.b.4.C C Y T T j T T n F T C F F ",
"^.^.^.^.XX(.XXQ.XX^.I.^.+X^.8.z.8.h.8.h.h.8.z.y.h.z.h.e.8.;.h.h.h.8.h.8.y.e.h.8.h.t.h.y.;.8.( F F n n T F n C F n J C n ",
"+XXXXX^.XX^.(.^.XX^.^.+XXXI.y.h.8.h.h.r.1.z.h.e.h.8.<.8.8.h.z.1.e.b.h.8.8.e.e.x.h.h.t.>.p.h.T T n F n T n F n T T n n F ",
"Y.XX}.W.XX^.^.XXXX^.}.^.^.+Xh.y.h.c.e.r.z.8.h.h.*.p.h.z.h.p.h.h.h.8.;.t.h.h.h.h.h.;.8.h.h.h.J n n T H n T C J F n F C J ",
"^.XXY.}.}.^.+X}.Q.XX(.XX+XI.y.c.e.h.8.h.h.e.8.e.8.h.e.h.h.8.1.8.h.8.8.c.e.h.h.8.>.e.h.h.p.8.T T T n T n Q n C n n J n Q ",
"XXZ.^.XX^.^.^.^.(.^.}.XX^.^.y.r.h.h.h.8.8.8.h.e.e.h.h.5.h.r.h.h.8.h.h.h.h.h.8.8.h.h.h.8.8.h.J C n T F T n x C T F C T ( ",
"}.Y.XX}.^.XXXXXX^.XXW.^.^.+X5.z.y.c.h.h.c.8.y.>.h.h.h.h.8.e.z.y.h.e.8.8.e.8.h.h.e.h.8.h.z.e.J C T T T C J n C C C n T T ",
"^.W.}.}.}.^.W.XXW.XX^.XX^.^.z.y.h.8.;.h.e.8.h.8.h.r.8.;.h.h.h.e.h.e.h.c.h.h.h.h.h.h.h.p.8.8.^ T x n n n C n T F J T n n ",
"}.Q.^.+XXXY.}.Y.W.^.+X+XW.}.c.z.h.e.h.e.8.e.e.h.y.8.h.h.y.h.h.;.e.h.c.h.8.h.h.8.e.y.h.8.y.h.T J n n T n T T n J n T n C ",
"^.W.}.^.I.Y.^.}.XX^.^.^.^.+Xz.c.8.y.e.8.h.h.h.8.h.h.h.8.h.h.8.e.e.h.e.h.h.h.e.e.h.e.h.h.c.r.T n n T C F n T x H n C T C ",
"XX+XXXI.XXXX+X}.}.^.^.^.+X^.y.y.h.h.r.h.h.h.8.h.h.8.h.c.h.y.e.h.8.8.h.h.h.r.8.h.e.h.h.h.h.>.T n T F x F x F T x F T n C ",
"W.^.^.W.XX+X^.^.^.W.XXXX^.}.y.h.h.p.p.8.h.h.e.r.h.h.h.8.1.h.z.h.8.h.h.8.y.8.h.h.p.p.y.c.y.h.T n x T T n T n n T T n C n ",
"(.}.Y.^.(.XXXXW.XXXXXX+XW.^.h.h.h.8.h.8.h.h.h.h.h.8.h.8.h.h.h.h.h.h.8.y.8.h.h.e.h.h.h.h.8.8.C n n T T n n C T n T n H n ",
"XX+XXX}.XXXX}.Y.^.}.^.^.^.}.h.h.1.h.y.h.p.1.h.h.h.h.p.1.h.h.h.8.h.;.h.h.e.h.e.8.h.y.h.8.p.<.T T C F n T n n T H T n T n ",
"XXI.+X}.W.}.^.^.+XY.}.W.}.}.8.8.h.h.e.h.p.h.h.8.h.>.h.p.p.h.h.h.h.h.h.e.e.p.h.h.h.8.h.1.r.h.T F T F n n n T n T n z T z ",
"}.}.+X^.W.^.^.^.^.}.F.}.+X^.h.x.8.8.p.h.h.h.8.a.h.h.h.p.p.h.;.y.p.p.h.e.8.h.e.8.h.h.h.8.h.h.F T F z T n T n n T T F n F ",
"I.}.^.I.^.XX}.W.^.F.W.}.I.^.h.h.h.h.p.h.p.h.h.c.z.;.8.h.h.1.1.h.h.p.z.p.e.t.h.h.8.h.8.h.8.h.F b J F T T C n x F F T T T ",
"}.I.^.^.XX^.Y.}.^.XXXXXX^.}.y.y.h.b.h.h.h.8.h.8.h.h.e.e.8.8.h.h.h.p.r.1.h.h.y.h.h.e.p.h.h.h.C T T n C J T J ^ T n T x x ",
"^.XX+XI.I.^.^.}.XX^.(.I.}.}.<.z.h.h.1.8.h.h.h.h.y.8.8.8.h.b.h.h.p.1.h.h.h.h.y.8.h.h.h.e.h.h.C n n C n C z n T C Q n F x ",
"XXXXF.Y.}.^.Y.^.W.^.}.}.^.^.z.z.h.8.h.p.h.h.h.8.8.8.8.e.b.8.8.8.;.p.h.h.h.h.y.e.p.h.8.h.h.h.J J T J T n C T n J C C z F ",
"XXXX^.XX^.W.+X^.Y.}.}.W.^.+Xy.y.8.h.y.p.h.8.;.h.p.h.x.a.r.8.p.1.h.8.t.h.h.c.8.h.h.h.p.h.h.8.n T J F C T C b T J F x T x ",
"W.XX}.Y.Y.}.^.G.}.}.Z.(.}.}.z.y.h.h.h.p.h.<.h.x.h.h.p.8.e.h.y.h.>.h.c.y.h.e.8.h.h.h.8.h.h.8.T T C C T C n T T n n T F n ",
"XXY.G.}.}.^.W.}.^.I.XXXXXX^.8.y.h.y.8.8.8.h.c.1.h.1.8.e.h.h.h.y.e.p.h.y.h.p.h.h.h.t.h.8.h.h.J C T T T n J J C T Q C T J ",
"Y.^.XX}.^.}.}.^.^.}.XXXX^.^.h.y.h.8.e.e.h.e.h.t.1.e.h.y.c.e.h.e.e.h.h.r.e.h.y.h.h.p.8.e.p.<.n T T J C J C T T n n x C T ",
"(.XX}.(.^.XXW.^.+X}.^.Y.}.XXh.5.h.h.h.h.8.h.h.t.h.h.y.y.h.r.h.y.c.8.<.8.c.h.h.y.8.e.h.8.h.c.^ T C J n n C T F n v T J T ",
"^.XX^.XXI.^.^.XXW.^.^.}.XX}.h.y.h.8.h.8.h.e.h.h.c.h.c.8.r.8.z.y.e.8.h.x.y.h.8.h.h.8.e.h.8.c.T n j F T n T n n n Q F n C ",
"XX^.+XI.^.+X^.J.^.^.XX}.+X^.z.h.y.e.t.t.h.h.h.h.8.h.r.h.y.h.h.y.8.h.h.h.h.5.h.h.h.1.h.8.h.8.C n T C z T C J C T T C n n ",
"W.XX^.^.^.I.W.XX+X}.(.^.W.}.z.8.h.y.h.c.h.h.e.8.y.y.y.8.h.h.8.5.h.h.h.8.h.h.h.8.e.8.h.h.h.h.T T F x F T T C T n J z C T ",
"}.Y.+X}.^.^.XX(.^.}.G.W.}.XXc.y.h.h.x.8.h.p.8.h.8.h.h.h.h.r.8.y.h.8.e.8.h.h.y.h.<.r.h.p.h.8.Y z x T C J J C z n F C J C ",
"Y.}.}.F.^.+X+X+XXXR.XX+X^.^.h.y.r.1.8.e.h.p.h.8.h.h.h.r.h.z.c.y.x.8.h.h.h.8.c.8.h.c.r.y.p.8.F T T n T C C n T C x x J T ",
"+XW.^.R.^.^.^.^.(.XXXX^.M.&.[ [ ` ` o.{ { X.` { X.' _ X.{ { { +.{ ' o.#.` ' { { +._ [ X.` _ n C T T T x J T J h T T C T ",
"^.XXXXXX}.W.XX^.W.XX}.Z.y : ; $ ; : , 1 : ; - 5 , : : , : ; ; ; : : , : : : , : : , ; : ; ; F T C z T J C n J C T J n T ",
"Y.}.Y.}.W.W.}.}.+XI.c.h < ; $ ; ; ; ; ; ; ; o ; $ ; ; ; ; o $ o $ ; ; $ ; : : $ : : $ o : , y h C F x n T F n T T j C T ",
"}.}.}.J.}.}.XXXXXXV.i 5 $ $ @ 1 : ; o ; ; o ; ; $ $ $ ; o $ ; ; $ : $ $ : $ $ : @ $ $ : ; ; : 8 n b T x n F F Q x T T C ",
"Y.XXW.}.XXXX^.XXM.x 5 $ o ; 1 1 o ; ; ; o ; $ $ ; ; $ $ o o ; ; : : $ ; $ $ : : $ $ $ o $ : : $ y h x T C T n T J T n T ",
"XXXXI.^.^.I.}.F.p ; o $ ; < ; o ; ; $ ; $ $ ; ; $ o $ ; ; ; ; o $ $ $ $ $ : $ ; $ $ : $ : ; $ $ : 5 C J T n n T n T Q n ",
"^.Y.Y.W.^.}.B.j $ o : 1 ; $ $ ; ; ; o ; $ 1 : o ; o ; o ; $ @ $ : $ $ $ ; $ $ $ $ ; $ $ , : $ $ $ ; y x n F T x T F f C ",
"I.I.}.XX+XI.y $ $ 1 ; ; $ ; ; ; @ : , ; o ; o ; ; $ ; ; ; ; ; ; : $ : $ $ ; $ ; $ $ $ : @ : : $ : $ : 6 n J C T x z Y F ",
"}.+X+XXXM.d   , ; ; o ; : ; $ ; ; ; ; ; o $ ; ; o ; 1 ; $ ; o , $ : : $ : : ; $ $ $ : $ : $ $ $ $ $ , $ u j n n C H n n ",
"}.^.^.Z.y : ; ; ; $ ; : : o ; @ ; ; ; $ $ ; $ ; ; : ; ; ; ; o $ ; $ $ : : $ : $ : $ ; $ $ $ $ $ $ : ; 1 $ 7 z U T n T T ",
"^.^.V.d ; : @ ; $ ; $ o o ; : $ ; $ o ; o ; ; $ $ ; o ; o $ o $ $ $ : : $ @ : $ $ $ ; o ; ; $ ; , $ : $ $ : y d n T H n ",
"^.I.a @ ; ; $ $ ; $ $ ; ; $ $ o o ; $ ; ; ; $ ; $ ; $ ; o $ @ ; : ; : $ : : : $ : o : $ $ o $ $ : : : $ 5 o $ 8 z F n n ",
"V.h $ ; ; o o $ $ $ , 1 ; ; $ ; ; , ; ; ; o $ @ : , o ; o o < 1 $ ; $ $ , $ $ $ $ ; $ $ $ $ : : $ $ $ : $ $ $ : y h T T ",
"y 1 ; ; $ $ ; o ; ; ; ; o o o ; ; ; $ $ ; ; o 1 ; o $ $ ; ; < ; : : $ 5 $ $ $ ; ; : $ ; $ $ : ; $ ; $ $ $ ; : $ $ 0 h n "
};
